<?xml version="1.0" encoding="UTF-8" standalone="no"?>
<!-- Created with Inkscape (http://www.inkscape.org/) -->

<svg
   xmlns:dc="http://purl.org/dc/elements/1.1/"
   xmlns:cc="http://creativecommons.org/ns#"
   xmlns:rdf="http://www.w3.org/1999/02/22-rdf-syntax-ns#"
   xmlns:svg="http://www.w3.org/2000/svg"
   xmlns="http://www.w3.org/2000/svg"
   xmlns:sodipodi="http://sodipodi.sourceforge.net/DTD/sodipodi-0.dtd"
   xmlns:inkscape="http://www.inkscape.org/namespaces/inkscape"
   width="500"
   height="400"
   id="svg4166"
   version="1.1"
   inkscape:version="0.48.2 r9819"
   sodipodi:docname="New document 7">
  <defs
     id="defs4168" />
  <sodipodi:namedview
     id="base"
     pagecolor="#ffffff"
     bordercolor="#666666"
     borderopacity="1.0"
     inkscape:pageopacity="0.0"
     inkscape:pageshadow="2"
     inkscape:zoom="0.36250635"
     inkscape:cx="387.48901"
     inkscape:cy="646.37599"
     inkscape:document-units="px"
     inkscape:current-layer="layer1"
     showgrid="false"
     inkscape:window-width="1366"
     inkscape:window-height="688"
     inkscape:window-x="-1"
     inkscape:window-y="25"
     inkscape:window-maximized="1" />
  <metadata
     id="metadata4171">
    <rdf:RDF>
      <cc:Work
         rdf:about="">
        <dc:format>image/svg+xml</dc:format>
        <dc:type
           rdf:resource="http://purl.org/dc/dcmitype/StillImage" />
        <dc:title></dc:title>
      </cc:Work>
    </rdf:RDF>
  </metadata>
  <g
     inkscape:label="Layer 1"
     inkscape:groupmode="layer"
     id="layer1"
     transform="translate(0,-652.36218)">
    <rect
       ry="7.2368164"
       rx="8.577425"
       y="752.16193"
       x="218.84135"
       height="53.989086"
       width="21.33016"
       id="rect4927"
       style="opacity:0.25367647;fill:#000000;fill-opacity:1;stroke:#000000;stroke-width:6.45399332;stroke-linecap:butt;stroke-linejoin:round;stroke-miterlimit:4;stroke-opacity:1;stroke-dasharray:none;stroke-dashoffset:0"
       inkscape:export-filename="/home/cabral/programacion/juego/prototipo-stable-disparos/demos/prototipo/life.png"
       inkscape:export-xdpi="90"
       inkscape:export-ydpi="90" />
    <path
       sodipodi:type="arc"
       style="fill:#e9afaf;stroke:#000000;stroke-width:10;stroke-linecap:butt;stroke-linejoin:round;stroke-miterlimit:4;stroke-opacity:1;stroke-dasharray:none;stroke-dashoffset:0"
       id="path4923"
       sodipodi:cx="526.78571"
       sodipodi:cy="397.00504"
       sodipodi:rx="54.642857"
       sodipodi:ry="54.642857"
       d="m 581.42856,397.00504 a 54.642857,54.642857 0 1 1 -109.28571,0 54.642857,54.642857 0 1 1 109.28571,0 z"
       transform="matrix(0.53652695,0,0,0.53652695,-162.47684,552.80086)"
       inkscape:export-filename="/home/cabral/programacion/juego/prototipo-stable-disparos/demos/prototipo/face_jess.png"
       inkscape:export-xdpi="90"
       inkscape:export-ydpi="90" />
    <path
       style="fill:#aa0000;stroke:#000000;stroke-width:0.28721654px;stroke-linecap:butt;stroke-linejoin:miter;stroke-opacity:1;display:inline"
       d="m 135.52815,759.38319 c 3.25181,6.28294 3.06493,14.87336 1.67195,21.73198 -9.81815,-4.76158 -11.88489,-18.19937 -1.67195,-21.73198 z"
       id="path3852"
       inkscape:connector-curvature="0"
       sodipodi:nodetypes="ccc"
       inkscape:export-filename="/home/cabral/programacion/juego/prototipo-stable-disparos/demos/prototipo/face_jess.png"
       inkscape:export-xdpi="90"
       inkscape:export-ydpi="90" />
    <path
       style="fill:#ff0000;stroke:#000000;stroke-width:0.264566px;stroke-linecap:butt;stroke-linejoin:miter;stroke-opacity:1;display:inline"
       d="m 131.19762,753.01821 -10.07478,0.73545 c -2.82348,-8.85261 10.48796,-24.47035 10.07478,-0.73545 z"
       id="path3018"
       inkscape:connector-curvature="0"
       sodipodi:nodetypes="ccc"
       inkscape:export-filename="/home/cabral/programacion/juego/prototipo-stable-disparos/demos/prototipo/face_jess.png"
       inkscape:export-xdpi="90"
       inkscape:export-ydpi="90" />
    <path
       style="fill:#ff0000;stroke:#000000;stroke-width:0.264566px;stroke-linecap:butt;stroke-linejoin:miter;stroke-opacity:1;display:inline"
       d="m 113.18553,758.08234 c 3.25336,-12.82401 -12.44087,-28.94992 -15.290082,-3.52479 -0.996,5.58794 -1.48486,11.16509 -1.777,16.73807 1.2078,-1.90027 2.41562,-4.30774 3.6234,-4.38681 -0.88639,2.13358 -0.20679,1.79476 -0.34499,2.56626 0.720072,-1.42162 1.338852,-3.0489 2.444062,-3.68832 -0.69722,1.30414 -0.38386,2.6083 -0.3172,3.91245 0.4578,-1.63467 1.5748,-3.00159 2.69533,-4.36707 z"
       id="path3016"
       inkscape:connector-curvature="0"
       sodipodi:nodetypes="ccccccccc"
       inkscape:export-filename="/home/cabral/programacion/juego/prototipo-stable-disparos/demos/prototipo/face_jess.png"
       inkscape:export-xdpi="90"
       inkscape:export-ydpi="90" />
    <path
       inkscape:connector-curvature="0"
       style="fill:#ffeeaa;stroke:#000000;stroke-width:0.264566;stroke-miterlimit:4;stroke-opacity:1;stroke-dasharray:none;display:inline"
       d="m 121.95539,751.42861 c 0.50954,-0.003 1.01785,0.0175 1.53604,0.0673 8.29251,0.79797 14.38381,8.27314 13.59796,16.69326 -0.10624,1.13809 -0.33846,2.23624 -0.67094,3.28075 l 0.0244,-0.009 c 1.85327,8.33912 -0.10894,15.20046 -7.13135,20.70052 -15.16269,-2.16464 -16.87181,-8.3974 -18.25159,-14.72773 l 0.17161,-0.037 c -2.95657,-3.10586 -4.60506,-7.45649 -4.17221,-12.09395 l -2.2e-4,-0.008 c 0.73885,-7.89205 7.25348,-13.81403 14.89623,-13.86603 z"
       id="path2987-6"
       inkscape:export-filename="/home/cabral/programacion/juego/prototipo-stable-disparos/demos/prototipo/face_jess.png"
       inkscape:export-xdpi="90"
       inkscape:export-ydpi="90" />
    <path
       style="fill:#ffffff;stroke:#000000;stroke-width:0.57443309;stroke-linecap:butt;stroke-linejoin:miter;stroke-miterlimit:4;stroke-opacity:1;stroke-dasharray:none;display:inline"
       d="m 127.57161,775.31463 c -1.49335,10.94513 -11.68523,4.29009 -10.90709,-0.24523 3.76117,-0.5541 7.58226,-1.41199 10.90709,0.24523 z"
       id="path3769-8"
       inkscape:connector-curvature="0"
       sodipodi:nodetypes="ccc"
       inkscape:export-filename="/home/cabral/programacion/juego/prototipo-stable-disparos/demos/prototipo/face_jess.png"
       inkscape:export-xdpi="90"
       inkscape:export-ydpi="90" />
    <path
       style="opacity:0.35433074;fill:#000000;stroke:none;display:inline"
       d="m 136.01425,771.36919 c -0.77107,-3.04756 -2.87073,-3.97679 -5.06881,-4.7491 -0.73453,3.12144 -2.98892,5.58005 -9.24921,6.29159 l -0.30285,-1.04113 c -0.62229,1.69521 -1.52098,3.2231 -4.14406,3.70698 0.73274,3.95516 1.54915,7.86563 0.35878,12.84881 l -3.60564,-2.01846 -1.3596,-20.44616 21.05959,-6.63795 3.93056,8.67784 z"
       id="path3868"
       inkscape:connector-curvature="0"
       sodipodi:nodetypes="ccccccccccc"
       inkscape:export-filename="/home/cabral/programacion/juego/prototipo-stable-disparos/demos/prototipo/face_jess.png"
       inkscape:export-xdpi="90"
       inkscape:export-ydpi="90" />
    <path
       style="fill:#ff0000;stroke:#000000;stroke-width:0.27356642;stroke-linecap:butt;stroke-linejoin:miter;stroke-miterlimit:4;stroke-opacity:1;stroke-dasharray:none;display:inline"
       d="m 104.92961,773.11322 c -0.15957,-1.267 0.0514,-2.19659 0.43701,-2.96701 -0.22883,11.38829 5.43844,16.75837 9.87698,19.55739 1.47648,-1.03382 3.47413,-9.17818 0.28086,-15.70131 4.41617,-0.75251 7.06228,-4.2825 8.77105,-6.71369 -0.13785,0.98884 -0.80324,1.98817 -1.74277,2.99296 4.14703,-0.76745 8.96237,-2.21854 8.39666,-6.56075 4.87575,1.21977 7.6614,3.15678 7.80821,7.76534 2.33865,-4.78002 2.11675,-11.21976 -3.6722,-16.14993 0.62686,0.25242 0.10508,-0.39122 2.43796,1.19209 -14.68978,-16.39535 -39.707912,-1.54453 -32.59376,16.58491 z"
       id="path3793-7"
       inkscape:connector-curvature="0"
       sodipodi:nodetypes="ccccccccccc"
       inkscape:export-filename="/home/cabral/programacion/juego/prototipo-stable-disparos/demos/prototipo/face_jess.png"
       inkscape:export-xdpi="90"
       inkscape:export-ydpi="90" />
    <path
       inkscape:connector-curvature="0"
       id="path3856"
       d="m 135.50797,771.2705 2.61064,-1.80069 -1.99595,2.33323 1.21098,-0.64058 -0.96096,1.39643 1.38691,-0.34435 -1.91025,1.47277 z"
       style="fill:#000000;stroke:#000000;stroke-width:0.04806268;stroke-linecap:butt;stroke-linejoin:miter;stroke-miterlimit:4;stroke-opacity:1;stroke-dasharray:none;display:inline"
       inkscape:export-filename="/home/cabral/programacion/juego/prototipo-stable-disparos/demos/prototipo/face_jess.png"
       inkscape:export-xdpi="90"
       inkscape:export-ydpi="90" />
    <path
       style="fill:#ffffff;stroke:#000000;stroke-width:0.43082485;stroke-linecap:butt;stroke-linejoin:miter;stroke-miterlimit:4;stroke-opacity:1;stroke-dasharray:none;display:inline"
       d="m 135.86724,771.07566 c 0.95266,6.30956 -3.96067,10.47581 -4.28146,3.79726 1.47241,-2.23534 3.1874,-3.34776 4.28146,-3.79726 z"
       id="path3771-7"
       inkscape:connector-curvature="0"
       sodipodi:nodetypes="ccc"
       inkscape:export-filename="/home/cabral/programacion/juego/prototipo-stable-disparos/demos/prototipo/face_jess.png"
       inkscape:export-xdpi="90"
       inkscape:export-ydpi="90" />
    <path
       style="fill:none;stroke:#000000;stroke-width:0.264566;stroke-linecap:butt;stroke-linejoin:round;stroke-miterlimit:4;stroke-opacity:1;stroke-dasharray:none;display:inline"
       d="m 133.47239,778.92808 0.66199,0.35357 -0.25283,1.24302 -1.10022,1.65356"
       id="path3775-0"
       inkscape:connector-curvature="0"
       sodipodi:nodetypes="cccc"
       inkscape:export-filename="/home/cabral/programacion/juego/prototipo-stable-disparos/demos/prototipo/face_jess.png"
       inkscape:export-xdpi="90"
       inkscape:export-ydpi="90" />
    <path
       style="fill:#000000;stroke:#000000;stroke-width:0.28721654;stroke-linecap:round;stroke-linejoin:round;stroke-miterlimit:4;stroke-opacity:1;stroke-dasharray:none;stroke-dashoffset:0;display:inline"
       d="m 122.62471,774.35212 c 0.66928,-0.0148 1.33353,0.01 1.98375,0.0914 0.94508,0.78993 1.53853,2.28242 1.43736,3.90231 -0.0401,0.64008 -0.18909,1.22935 -0.41226,1.7414 -1.25582,1.27609 -2.89645,1.41066 -4.43473,0.88754 -0.67819,-0.84038 -1.07612,-2.09851 -0.99207,-3.44416 0.0851,-1.35939 0.64072,-2.49428 1.42395,-3.12816 0.33369,-0.0245 0.66367,-0.043 0.994,-0.0504 z"
       id="path3781"
       inkscape:connector-curvature="0"
       inkscape:export-filename="/home/cabral/programacion/juego/prototipo-stable-disparos/demos/prototipo/face_jess.png"
       inkscape:export-xdpi="90"
       inkscape:export-ydpi="90" />
    <path
       style="fill:#000000;stroke:#000000;stroke-width:0.28721654;stroke-linecap:round;stroke-linejoin:round;stroke-miterlimit:4;stroke-opacity:1;stroke-dasharray:none;stroke-dashoffset:0;display:inline"
       d="m 134.20654,772.03746 c 0.72185,0.38562 1.23467,1.85858 1.18078,3.48356 -0.007,0.21418 -0.0196,0.41976 -0.045,0.61802 -0.49545,1.18446 -1.20581,1.9608 -1.87712,2.11178 -0.66454,-0.46841 -1.1285,-1.87121 -1.07735,-3.4137 0.0151,-0.45196 0.0737,-0.86963 0.16513,-1.24212 0.55849,-0.64608 1.12097,-1.16016 1.65348,-1.55754 z"
       id="path3783"
       inkscape:connector-curvature="0"
       inkscape:export-filename="/home/cabral/programacion/juego/prototipo-stable-disparos/demos/prototipo/face_jess.png"
       inkscape:export-xdpi="90"
       inkscape:export-ydpi="90" />
    <path
       transform="matrix(-0.12798071,0.00272143,0.00218872,0.10612034,155.85394,743.32108)"
       sodipodi:open="true"
       sodipodi:end="12.450655"
       sodipodi:start="6.1677586"
       d="m 276.99486,337.87041 a 5.9346461,8.207489 0 1 1 -2e-4,-0.002"
       sodipodi:ry="8.207489"
       sodipodi:rx="5.9346461"
       sodipodi:cy="338.81567"
       sodipodi:cx="271.0997"
       id="path3860"
       style="fill:#ffffff;fill-opacity:1;stroke:#000000;stroke-width:0.2;stroke-linecap:round;stroke-linejoin:round;stroke-miterlimit:4;stroke-opacity:1;stroke-dasharray:none;stroke-dashoffset:0;display:inline"
       sodipodi:type="arc"
       inkscape:export-filename="/home/cabral/programacion/juego/prototipo-stable-disparos/demos/prototipo/face_jess.png"
       inkscape:export-xdpi="90"
       inkscape:export-ydpi="90" />
    <path
       transform="matrix(-0.14653111,0.0031159,0.00395306,0.19166467,172.52133,708.25114)"
       sodipodi:open="true"
       sodipodi:end="12.450655"
       sodipodi:start="6.1677586"
       d="m 276.99486,337.87041 a 5.9346461,8.207489 0 1 1 -2e-4,-0.002"
       sodipodi:ry="8.207489"
       sodipodi:rx="5.9346461"
       sodipodi:cy="338.81567"
       sodipodi:cx="271.0997"
       id="path3862"
       style="fill:#ffffff;fill-opacity:1;stroke:#000000;stroke-width:0.2;stroke-linecap:round;stroke-linejoin:round;stroke-miterlimit:4;stroke-opacity:1;stroke-dasharray:none;stroke-dashoffset:0;display:inline"
       sodipodi:type="arc"
       inkscape:export-filename="/home/cabral/programacion/juego/prototipo-stable-disparos/demos/prototipo/face_jess.png"
       inkscape:export-xdpi="90"
       inkscape:export-ydpi="90" />
    <path
       sodipodi:type="arc"
       style="fill:#ffffff;fill-opacity:1;stroke:#000000;stroke-width:0.2;stroke-linecap:round;stroke-linejoin:round;stroke-miterlimit:4;stroke-opacity:1;stroke-dasharray:none;stroke-dashoffset:0;display:inline"
       id="path3864"
       sodipodi:cx="271.0997"
       sodipodi:cy="338.81567"
       sodipodi:rx="5.9346461"
       sodipodi:ry="8.207489"
       d="m 276.99486,337.87041 a 5.9346461,8.207489 0 1 1 -2e-4,-0.002"
       sodipodi:start="6.1677586"
       sodipodi:end="12.450655"
       sodipodi:open="true"
       transform="matrix(-0.10553485,0.00224414,0.00196441,0.09524513,161.38853,744.00389)"
       inkscape:export-filename="/home/cabral/programacion/juego/prototipo-stable-disparos/demos/prototipo/face_jess.png"
       inkscape:export-xdpi="90"
       inkscape:export-ydpi="90" />
    <path
       style="fill:#000000;stroke:#000000;stroke-width:0.05291319;stroke-linecap:butt;stroke-linejoin:miter;stroke-miterlimit:4;stroke-opacity:1;stroke-dasharray:none;display:inline"
       d="m 116.67502,775.01834 -3.4726,-0.11662 3.20904,0.97932 -1.49802,0.12709 1.70318,0.72565 -1.49016,0.50785 1.98214,0.333 c -0.42097,-0.85745 -0.68005,-2.01897 -0.43358,-2.55629 z"
       id="path3854"
       inkscape:connector-curvature="0"
       sodipodi:nodetypes="cccccccc"
       inkscape:export-filename="/home/cabral/programacion/juego/prototipo-stable-disparos/demos/prototipo/face_jess.png"
       inkscape:export-xdpi="90"
       inkscape:export-ydpi="90" />
    <path
       style="fill:#000000;stroke:#000000;stroke-width:0.05291319;stroke-linecap:butt;stroke-linejoin:miter;stroke-miterlimit:4;stroke-opacity:1;stroke-dasharray:none;display:inline"
       d="m 126.97688,772.50925 0.87768,0.82397 -1.15768,-0.32393 1.12912,0.93289 c -4.03213,-2.5305 -8.62531,-3.09896 -13.44915,-2.86079 l -0.74673,-0.80275 1.38546,0.15629 -1.57703,-1.07362 c 4.73018,0.36329 9.49627,0.61332 13.53833,3.14794 z"
       id="path3872"
       inkscape:connector-curvature="0"
       sodipodi:nodetypes="ccccccccc"
       inkscape:export-filename="/home/cabral/programacion/juego/prototipo-stable-disparos/demos/prototipo/face_jess.png"
       inkscape:export-xdpi="90"
       inkscape:export-ydpi="90" />
    <path
       sodipodi:nodetypes="ccccccccc"
       inkscape:connector-curvature="0"
       id="path3874-1"
       d="m 131.48566,772.43822 -0.12692,0.77673 0.45312,-0.62781 -0.21088,0.93313 c 1.05303,-2.91582 3.11925,-5.03407 5.60194,-6.8244 l 0.0699,-0.71372 -0.62891,0.63105 0.38044,-1.18405 c -2.211,2.0659 -4.48224,4.08716 -5.5387,7.00907 z"
       style="fill:#000000;stroke:#000000;stroke-width:0.03374048;stroke-linecap:butt;stroke-linejoin:miter;stroke-miterlimit:4;stroke-opacity:1;stroke-dasharray:none;display:inline"
       inkscape:export-filename="/home/cabral/programacion/juego/prototipo-stable-disparos/demos/prototipo/face_jess.png"
       inkscape:export-xdpi="90"
       inkscape:export-ydpi="90" />
    <path
       style="fill:#ff0000;stroke:none;display:inline"
       d="m 132.18703,784.86122 c 2.52636,-3.87029 -2.71539,-2.19305 -3.13462,0.006 1.25425,-0.17102 2.00946,-0.17307 3.13462,-0.006 z"
       id="path3878"
       inkscape:connector-curvature="0"
       sodipodi:nodetypes="ccc"
       inkscape:export-filename="/home/cabral/programacion/juego/prototipo-stable-disparos/demos/prototipo/face_jess.png"
       inkscape:export-xdpi="90"
       inkscape:export-ydpi="90" />
    <path
       style="fill:#ff0000;stroke:none;display:inline"
       d="m 131.19887,787.77681 -2.85905,-0.68701 c -1.25568,2.06643 3.48107,4.31865 2.85905,0.68701 z"
       id="path3880"
       inkscape:connector-curvature="0"
       sodipodi:nodetypes="ccc"
       inkscape:export-filename="/home/cabral/programacion/juego/prototipo-stable-disparos/demos/prototipo/face_jess.png"
       inkscape:export-xdpi="90"
       inkscape:export-ydpi="90" />
    <path
       style="fill:#000000;stroke:none;display:inline"
       d="m 132.37571,784.6457 c -1.95482,1.53111 -1.49207,2.19386 -1.03878,3.4388 -0.98131,0.34548 -2.16849,-0.0886 -3.14982,-0.87283 0.24753,-1.19263 0.32118,-1.57444 0.80053,-2.45537 1.54878,-0.64833 3.1272,-1.14323 3.38807,-0.1106 z"
       id="path3882"
       inkscape:connector-curvature="0"
       sodipodi:nodetypes="ccccc"
       inkscape:export-filename="/home/cabral/programacion/juego/prototipo-stable-disparos/demos/prototipo/face_jess.png"
       inkscape:export-xdpi="90"
       inkscape:export-ydpi="90" />
    <path
       style="fill:#000080;stroke:#000000;stroke-width:0.28721654px;stroke-linecap:butt;stroke-linejoin:miter;stroke-opacity:1;display:inline"
       d="m 113.27384,750.13735 c -6.32348,3.47038 -9.93183,8.39287 -9.87431,16.33143 l 0.40717,0.51682 c -0.81197,-8.53019 5.29123,-11.91685 10.17973,-15.71125 z"
       id="path3902"
       inkscape:connector-curvature="0"
       sodipodi:nodetypes="ccccc"
       inkscape:export-filename="/home/cabral/programacion/juego/prototipo-stable-disparos/demos/prototipo/face_jess.png"
       inkscape:export-xdpi="90"
       inkscape:export-ydpi="90" />
    <path
       style="fill:#000080;stroke:#000000;stroke-width:0.28721654px;stroke-linecap:butt;stroke-linejoin:miter;stroke-opacity:1;display:inline"
       d="m 131.29193,752.51471 c -2.72898,-2.00915 -6.23066,-3.08884 -10.68869,-3.30763 1.73421,-0.99098 8.029,-0.92424 10.68869,3.30763 z"
       id="path3904"
       inkscape:connector-curvature="0"
       sodipodi:nodetypes="ccc"
       inkscape:export-filename="/home/cabral/programacion/juego/prototipo-stable-disparos/demos/prototipo/face_jess.png"
       inkscape:export-xdpi="90"
       inkscape:export-ydpi="90" />
    <path
       style="fill:#ffffff;stroke:none;display:inline"
       d="m 114.59721,765.53851 5.49704,-5.0648 3.46112,2.17063 0.81437,-4.13454 5.08985,2.68745 -2.85031,-6.20182 6.92218,-0.20672 -1.22156,-1.86054 1.89682,2.00961 -5.61453,1.31559 2.30339,6.13948 -5.75851,-2.33885 -1.5836,4.53152 -3.11179,-1.80429 z"
       id="path3843"
       inkscape:connector-curvature="0"
       sodipodi:nodetypes="ccccccccccccccc"
       inkscape:export-filename="/home/cabral/programacion/juego/prototipo-stable-disparos/demos/prototipo/face_jess.png"
       inkscape:export-xdpi="90"
       inkscape:export-ydpi="90" />
    <path
       sodipodi:type="arc"
       style="fill:#ffffff;fill-opacity:1;stroke:#000000;stroke-width:0.2;stroke-linecap:round;stroke-linejoin:round;stroke-miterlimit:4;stroke-opacity:1;stroke-dasharray:none;stroke-dashoffset:0;display:inline"
       id="path3858"
       sodipodi:cx="271.0997"
       sodipodi:cy="338.81567"
       sodipodi:rx="5.9346461"
       sodipodi:ry="8.207489"
       d="m 276.99486,337.87041 a 5.9346461,8.207489 0 1 1 -2e-4,-0.002"
       sodipodi:start="6.1677586"
       sodipodi:end="12.450655"
       sodipodi:open="true"
       transform="matrix(-0.26249621,0.00558184,0.00549724,0.2665353,193.30434,684.99845)"
       inkscape:export-filename="/home/cabral/programacion/juego/prototipo-stable-disparos/demos/prototipo/face_jess.png"
       inkscape:export-xdpi="90"
       inkscape:export-ydpi="90" />
    <path
       style="opacity:0.2519685;fill:#000000;stroke:#000000;stroke-width:0.28721654px;stroke-linecap:butt;stroke-linejoin:miter;stroke-opacity:1;display:inline"
       d="m 131.1876,752.01581 0.97089,0.0814 c 1.88146,1.09857 3.68648,2.56146 5.36217,4.43171 -2.33289,-1.58332 -1.80484,-0.94145 -2.43169,-1.19385 5.78895,4.93016 6.00844,11.37311 3.66979,16.15312 -0.11014,-4.60856 -2.29156,-6.54928 -7.81165,-7.76905 0.56568,4.3422 -4.2436,5.79872 -8.39064,6.56617 0.9395,-1.00479 1.59904,-2.00484 1.73692,-2.99367 -1.70876,2.43119 -4.34858,5.95836 -8.76474,6.71087 3.19327,6.52313 1.19145,14.66709 -0.28503,15.70092 -4.43855,-2.79903 -10.10698,-8.16551 -9.87814,-19.55378 -0.38567,0.77041 -0.59602,1.69953 -0.43645,2.96653 -0.70442,-1.79512 -1.08691,-3.56012 -1.20248,-5.2638 l 0.2494,-0.48839 c 0.34102,0.51929 1.24959,1.57683 2.15555,2.6319 1.86182,6.45969 2.36004,13.13239 8.92506,18.85738 1.47594,-3.73564 1.68841,-8.89673 -0.28503,-16.52395 3.64302,-1.34781 7.85556,-0.8161 10.07411,-6.86463 l -0.28504,3.50919 c 3.81604,-0.364 5.57992,-2.81176 6.33305,-6.28579 4.53386,0.57505 6.25868,2.21968 7.77603,3.94332 -0.12899,-1.77913 1.70643,-6.96096 -6.33305,-11.98371 l 2.15556,0.14471 z"
       id="path3929"
       inkscape:connector-curvature="0"
       sodipodi:nodetypes="cccccccccccccccccccccccc"
       inkscape:export-filename="/home/cabral/programacion/juego/prototipo-stable-disparos/demos/prototipo/face_jess.png"
       inkscape:export-xdpi="90"
       inkscape:export-ydpi="90" />
    <path
       style="fill:#ff2a2a;stroke:none;display:inline"
       d="m 131.1835,752.30656 c -17.38415,-9.43464 -29.64255,6.86861 -27.06502,17.54136 3.47573,-11.40636 11.56494,-24.32808 27.06502,-17.54136 z"
       id="path3934"
       inkscape:connector-curvature="0"
       sodipodi:nodetypes="ccc"
       inkscape:export-filename="/home/cabral/programacion/juego/prototipo-stable-disparos/demos/prototipo/face_jess.png"
       inkscape:export-xdpi="90"
       inkscape:export-ydpi="90" />
    <path
       style="opacity:0.18110238;fill:#000000;stroke:#000000;stroke-width:0.28721654px;stroke-linecap:butt;stroke-linejoin:miter;stroke-opacity:1;display:inline"
       d="m 113.33211,750.6986 c -2.16349,-5.80135 -4.87278,-10.35571 -10.0774,-9.20922 5.04047,3.18913 6.85016,7.38764 6.91023,12.13278 z"
       id="path3936"
       inkscape:connector-curvature="0"
       sodipodi:nodetypes="cccc"
       inkscape:export-filename="/home/cabral/programacion/juego/prototipo-stable-disparos/demos/prototipo/face_jess.png"
       inkscape:export-xdpi="90"
       inkscape:export-ydpi="90" />
    <path
       style="opacity:0.27952755;fill:#000000;stroke:#000000;stroke-width:0.28721654px;stroke-linecap:butt;stroke-linejoin:miter;stroke-opacity:1;display:inline"
       d="m 126.72065,740.31996 c 2.26817,6.35211 0.57415,7.31257 -0.43187,9.20921 l 4.89472,3.06974 c -0.78287,-4.57004 0.5326,-10.56051 -4.46285,-12.27895 z"
       id="path3938"
       inkscape:connector-curvature="0"
       sodipodi:nodetypes="cccc"
       inkscape:export-filename="/home/cabral/programacion/juego/prototipo-stable-disparos/demos/prototipo/face_jess.png"
       inkscape:export-xdpi="90"
       inkscape:export-ydpi="90" />
    <path
       style="fill:#ff5555;stroke:none;display:inline"
       d="m 103.08639,741.7209 c -4.241622,8.72447 -4.770882,17.44894 -5.208762,26.1734 l -1.73625,2.9835 c 1.29814,-11.79076 1.56872,-25.82939 6.945012,-29.1569 z"
       id="path3945"
       inkscape:connector-curvature="0"
       sodipodi:nodetypes="cccc"
       inkscape:export-filename="/home/cabral/programacion/juego/prototipo-stable-disparos/demos/prototipo/face_jess.png"
       inkscape:export-xdpi="90"
       inkscape:export-ydpi="90" />
    <path
       style="opacity:0.11023619;fill:#000000;stroke:#000000;stroke-width:0.28721654px;stroke-linecap:butt;stroke-linejoin:miter;stroke-opacity:1;display:inline"
       d="m 136.54277,773.25104 c 2.43439,10.00229 -3.45725,15.48775 -7.21213,18.51125 5.35383,-5.71351 7.41786,-12.70824 7.21213,-18.51125 z"
       id="path3967"
       inkscape:connector-curvature="0"
       sodipodi:nodetypes="ccc"
       inkscape:export-filename="/home/cabral/programacion/juego/prototipo-stable-disparos/demos/prototipo/face_jess.png"
       inkscape:export-xdpi="90"
       inkscape:export-ydpi="90" />
    <path
       sodipodi:nodetypes="ccccccc"
       inkscape:connector-curvature="0"
       id="path3969"
       d="m 132.78133,782.17823 1.10022,-1.65356 0.25283,-1.24302 -0.66199,-0.35357 1.33412,0.42556 -0.40066,1.28833 z"
       style="opacity:0.18110238;fill:#000000;stroke:#000000;stroke-width:0.264566;stroke-linecap:butt;stroke-linejoin:round;stroke-miterlimit:4;stroke-opacity:1;stroke-dasharray:none;display:inline"
       inkscape:export-filename="/home/cabral/programacion/juego/prototipo-stable-disparos/demos/prototipo/face_jess.png"
       inkscape:export-xdpi="90"
       inkscape:export-ydpi="90" />
    <path
       sodipodi:type="arc"
       style="fill:#ffffff;fill-opacity:1;stroke:none;display:inline"
       id="path3879"
       sodipodi:cx="266.85251"
       sodipodi:cy="364.26221"
       sodipodi:rx="2.1085801"
       sodipodi:ry="3.9828734"
       d="m 268.94706,363.8035 a 2.1085801,3.9828734 0 1 1 -7e-5,-0.001"
       sodipodi:start="6.1677586"
       sodipodi:end="12.450655"
       sodipodi:open="true"
       transform="matrix(-0.22044779,-0.18346222,-0.18068202,0.22383988,256.12645,748.88823)"
       inkscape:transform-center-x="2.061518"
       inkscape:transform-center-y="2.3384284"
       inkscape:export-filename="/home/cabral/programacion/juego/prototipo-stable-disparos/demos/prototipo/face_jess.png"
       inkscape:export-xdpi="90"
       inkscape:export-ydpi="90" />
    <rect
       style="fill:#aaffee;fill-opacity:1;stroke:#000000;stroke-width:6.45399332;stroke-linecap:butt;stroke-linejoin:round;stroke-miterlimit:4;stroke-opacity:1;stroke-dasharray:none;stroke-dashoffset:0"
       id="rect4925"
       width="21.33016"
       height="53.989086"
       x="214.62547"
       y="748.60498"
       rx="8.577425"
       ry="7.2368164"
       inkscape:export-filename="/home/cabral/programacion/juego/prototipo-stable-disparos/demos/prototipo/life.png"
       inkscape:export-xdpi="90"
       inkscape:export-ydpi="90" />
  </g>
</svg>
