<?xml version="1.0" encoding="UTF-8" standalone="no"?>
<!-- Created with Inkscape (http://www.inkscape.org/) -->

<svg
   xmlns:dc="http://purl.org/dc/elements/1.1/"
   xmlns:cc="http://creativecommons.org/ns#"
   xmlns:rdf="http://www.w3.org/1999/02/22-rdf-syntax-ns#"
   xmlns:svg="http://www.w3.org/2000/svg"
   xmlns="http://www.w3.org/2000/svg"
   xmlns:xlink="http://www.w3.org/1999/xlink"
   xmlns:sodipodi="http://sodipodi.sourceforge.net/DTD/sodipodi-0.dtd"
   xmlns:inkscape="http://www.inkscape.org/namespaces/inkscape"
   width="640"
   height="480"
   id="svg4247"
   version="1.1"
   inkscape:version="0.48.2 r9819"
   inkscape:export-filename="/home/cabral/programacion/juego/prototipo-stable-disparos/demos/prototipo/fondo.png"
   inkscape:export-xdpi="90"
   inkscape:export-ydpi="90"
   sodipodi:docname="fondo.svg">
  <defs
     id="defs4249">
    <linearGradient
       id="linearGradient3814"
       inkscape:collect="always">
      <stop
         id="stop3816"
         offset="0"
         style="stop-color:#008000;stop-opacity:0.19852941" />
      <stop
         id="stop3819"
         offset="1"
         style="stop-color:#ffffff;stop-opacity:1" />
    </linearGradient>
    <linearGradient
       inkscape:collect="always"
       id="linearGradient3936">
      <stop
         style="stop-color:#8dd35f;stop-opacity:1;"
         offset="0"
         id="stop3938" />
      <stop
         style="stop-color:#aa8800;stop-opacity:1"
         offset="1"
         id="stop3940" />
    </linearGradient>
    <linearGradient
       inkscape:collect="always"
       id="linearGradient3878">
      <stop
         style="stop-color:#5aa02c;stop-opacity:1;"
         offset="0"
         id="stop3880" />
      <stop
         style="stop-color:#5aa02c;stop-opacity:0;"
         offset="1"
         id="stop3882" />
    </linearGradient>
    <linearGradient
       inkscape:collect="always"
       id="linearGradient3816">
      <stop
         style="stop-color:#2c89a0;stop-opacity:1"
         offset="0"
         id="stop3818" />
      <stop
         style="stop-color:#d5f6ff;stop-opacity:1"
         offset="1"
         id="stop3820" />
    </linearGradient>
    <linearGradient
       inkscape:collect="always"
       id="linearGradient3821">
      <stop
         style="stop-color:#ffffff;stop-opacity:1;"
         offset="0"
         id="stop3823" />
      <stop
         style="stop-color:#e6e6e6;stop-opacity:1"
         offset="1"
         id="stop3825" />
    </linearGradient>
    <linearGradient
       inkscape:collect="always"
       id="linearGradient3813">
      <stop
         style="stop-color:#ffffff;stop-opacity:1;"
         offset="0"
         id="stop3815" />
      <stop
         style="stop-color:#ececec;stop-opacity:1"
         offset="1"
         id="stop3817" />
    </linearGradient>
    <linearGradient
       inkscape:collect="always"
       id="linearGradient3777">
      <stop
         style="stop-color:#ffff00;stop-opacity:1;"
         offset="0"
         id="stop3779" />
      <stop
         style="stop-color:#ffff00;stop-opacity:0;"
         offset="1"
         id="stop3781" />
    </linearGradient>
    <linearGradient
       inkscape:collect="always"
       id="linearGradient3769">
      <stop
         style="stop-color:#2c89a0;stop-opacity:1;"
         offset="0"
         id="stop3771" />
      <stop
         style="stop-color:#ffffff;stop-opacity:1"
         offset="1"
         id="stop3773" />
    </linearGradient>
    <linearGradient
       inkscape:collect="always"
       xlink:href="#linearGradient3769"
       id="linearGradient3775"
       x1="314.66251"
       y1="498.57455"
       x2="322.91208"
       y2="359.51022"
       gradientUnits="userSpaceOnUse" />
    <linearGradient
       inkscape:collect="always"
       xlink:href="#linearGradient3777"
       id="linearGradient3783"
       x1="326.44763"
       y1="364.64258"
       x2="315.84103"
       y2="404.71198"
       gradientUnits="userSpaceOnUse" />
    <filter
       inkscape:collect="always"
       id="filter3785">
      <feGaussianBlur
         inkscape:collect="always"
         stdDeviation="1.32595"
         id="feGaussianBlur3787" />
    </filter>
    <linearGradient
       inkscape:collect="always"
       xlink:href="#linearGradient3813"
       id="linearGradient3819"
       x1="438.74561"
       y1="290.64954"
       x2="505.68082"
       y2="198.72566"
       gradientUnits="userSpaceOnUse" />
    <linearGradient
       inkscape:collect="always"
       xlink:href="#linearGradient3821"
       id="linearGradient3827"
       x1="153.19728"
       y1="294.17584"
       x2="107.25503"
       y2="237.60727"
       gradientUnits="userSpaceOnUse" />
    <filter
       inkscape:collect="always"
       id="filter3829">
      <feGaussianBlur
         inkscape:collect="always"
         stdDeviation="1.7626738"
         id="feGaussianBlur3831" />
    </filter>
    <filter
       inkscape:collect="always"
       id="filter3833">
      <feGaussianBlur
         inkscape:collect="always"
         stdDeviation="2.0499946"
         id="feGaussianBlur3835" />
    </filter>
    <filter
       inkscape:collect="always"
       id="filter3800"
       x="-0.090237168"
       width="1.1804743"
       y="-0.16792247"
       height="1.3358449">
      <feGaussianBlur
         inkscape:collect="always"
         stdDeviation="12.059047"
         id="feGaussianBlur3802" />
    </filter>
    <linearGradient
       inkscape:collect="always"
       xlink:href="#linearGradient3816"
       id="linearGradient3822"
       x1="271.05762"
       y1="37.469006"
       x2="276.95013"
       y2="362.73813"
       gradientUnits="userSpaceOnUse" />
    <linearGradient
       inkscape:collect="always"
       xlink:href="#linearGradient3878"
       id="linearGradient3884"
       x1="328.82504"
       y1="508.58929"
       x2="329.40506"
       y2="397.10739"
       gradientUnits="userSpaceOnUse" />
    <filter
       inkscape:collect="always"
       id="filter3886"
       x="-0.10126706"
       width="1.2025341"
       y="-0.12360913"
       height="1.2472183">
      <feGaussianBlur
         inkscape:collect="always"
         stdDeviation="6.0817189"
         id="feGaussianBlur3888" />
    </filter>
    <linearGradient
       inkscape:collect="always"
       xlink:href="#linearGradient3936"
       id="linearGradient3942"
       x1="342.94678"
       y1="343.17542"
       x2="334.69724"
       y2="552.95044"
       gradientUnits="userSpaceOnUse" />
    <filter
       inkscape:collect="always"
       id="filter3944"
       x="-0.11363309"
       width="1.2272662"
       y="-0.21145412"
       height="1.4229082">
      <feGaussianBlur
         inkscape:collect="always"
         stdDeviation="15.185965"
         id="feGaussianBlur3946" />
    </filter>
    <linearGradient
       inkscape:collect="always"
       xlink:href="#linearGradient3814"
       id="linearGradient3812"
       gradientUnits="userSpaceOnUse"
       x1="314.66251"
       y1="498.57455"
       x2="322.91208"
       y2="359.51022"
       gradientTransform="matrix(1.0112613,0,0,1,-1.2751913,121.05373)" />
  </defs>
  <sodipodi:namedview
     id="base"
     pagecolor="#ffffff"
     bordercolor="#666666"
     borderopacity="1.0"
     inkscape:pageopacity="0.0"
     inkscape:pageshadow="2"
     inkscape:zoom="0.84852814"
     inkscape:cx="337.12517"
     inkscape:cy="318.48226"
     inkscape:current-layer="layer1"
     inkscape:document-units="px"
     showgrid="false"
     inkscape:window-width="1366"
     inkscape:window-height="688"
     inkscape:window-x="-1"
     inkscape:window-y="25"
     inkscape:window-maximized="1" />
  <metadata
     id="metadata4252">
    <rdf:RDF>
      <cc:Work
         rdf:about="">
        <dc:format>image/svg+xml</dc:format>
        <dc:type
           rdf:resource="http://purl.org/dc/dcmitype/StillImage" />
        <dc:title></dc:title>
      </cc:Work>
    </rdf:RDF>
  </metadata>
  <g
     id="layer1"
     inkscape:label="Layer 1"
     inkscape:groupmode="layer"
     transform="translate(0,-120)">
    <rect
       style="fill:url(#linearGradient3822);fill-opacity:1;stroke:none;stroke-width:10;stroke-linecap:round;stroke-linejoin:round;stroke-miterlimit:4;stroke-opacity:1;stroke-dasharray:none"
       id="rect4789"
       width="655.25226"
       height="449.01282"
       x="-8.2495794"
       y="-22.045815"
       transform="translate(0,120)" />
    <path
       sodipodi:type="arc"
       style="fill:#ffff00;fill-opacity:1;stroke:none;stroke-width:2.03577517999999991;stroke-miterlimit:4;stroke-opacity:1;stroke-dasharray:none;filter:url(#filter3785)"
       id="path4791"
       sodipodi:cx="304.64517"
       sodipodi:cy="59.860722"
       sodipodi:rx="40.658642"
       sodipodi:ry="40.658642"
       d="m 345.03326,55.178043 c 2.58617,22.305725 -13.39968,42.484595 -35.70541,45.070767 -22.30572,2.58617 -42.48459,-13.399684 -45.07077,-35.70541 -2.58617,-22.305725 13.39969,-42.484595 35.70541,-45.070767 22.30117,-2.585643 42.47733,13.393321 45.06942,35.693742"
       transform="matrix(4.9121336,0,0,4.9121336,-1168.3202,237.65482)"
       sodipodi:start="6.1677586"
       sodipodi:end="12.450655"
       sodipodi:open="true" />
    <path
       style="fill:url(#linearGradient3819);stroke:none;stroke-width:8.33916282999999936;stroke-linecap:round;stroke-linejoin:round;stroke-miterlimit:4;stroke-opacity:1;stroke-dasharray:none;fill-opacity:1;filter:url(#filter3829)"
       d="m 458.04589,171.38249 c -1.52712,0.0151 -3.06282,0.0835 -4.6126,0.20848 -21.39051,1.72526 -37.51872,13.56308 -39.71526,27.85802 -20.58036,2.84285 -34.90575,16.09432 -32.44455,30.67248 1.36208,8.06787 7.5974,14.94268 16.44378,19.38855 0.002,1.36462 0.0776,2.7294 0.2606,4.11747 2.59423,19.67943 22.83866,33.78807 45.2139,31.50639 5.2695,-0.53735 10.18778,-1.93238 14.59353,-4.01322 9.50871,12.35064 25.47035,19.61446 42.52973,17.72072 17.13755,-1.90241 31.00095,-12.56029 37.26563,-26.7635 3.47145,0.53457 7.11255,0.66808 10.84091,0.36484 18.06195,-1.46903 31.02061,-12.92049 28.92648,-25.5908 l 0,-0.0261 c -1.58984,-9.59489 -11.35659,-17.11865 -23.8448,-19.57098 0.515,-2.85127 0.62741,-5.81442 0.2606,-8.8343 -2.0676,-16.97957 -18.17391,-29.14917 -35.96264,-27.18045 -5.53929,0.61304 -10.58698,2.51396 -14.85413,5.36833 -4.2768,-14.83336 -23.23493,-25.44057 -44.90118,-25.22597 z"
       id="path4255"
       inkscape:connector-curvature="0" />
    <path
       style="fill:url(#linearGradient3827);stroke:none;stroke-width:10;stroke-linecap:round;stroke-linejoin:round;stroke-miterlimit:4;stroke-opacity:1;stroke-dasharray:none;fill-opacity:1;filter:url(#filter3833)"
       d="m 159.00386,226.39684 c -1.77155,0.0184 -3.54592,0.12902 -5.34375,0.28125 -17.39672,1.4731 -31.80769,9.00429 -39.75,19.375 -3.55491,-0.77173 -7.30534,-0.99759 -11.125,-0.5625 -18.426466,2.09892 -31.6364,18.4593 -29.499997,36.5625 1.527455,12.94316 10.502691,23.27859 22.21875,27.34375 0.04114,1.05851 0.121551,2.11618 0.28125,3.1875 3.035941,20.3661 26.721267,34.98629 52.906247,32.625 18.68013,-1.68452 33.56198,-11.56137 39.46875,-24.46875 4.53764,1.06021 9.37328,1.41818 14.3125,0.90625 21.33591,-2.21136 36.62998,-19.45824 34.15625,-38.53125 l 0,-0.0312 c -1.80938,-13.9156 -12.58507,-24.94168 -26.5625,-29.03125 -6.48936,-16.43252 -27.38415,-27.90248 -51.0625,-27.65625 z"
       id="path4270"
       inkscape:connector-curvature="0" />
    <path
       style="fill:url(#linearGradient3942);stroke:none;fill-opacity:1"
       d="M 705.92827,392.79016 C 461.35086,324.84894 219.43915,320.40847 -18.856181,406.9323 l 1.178511,78.96026 722.42743,-1.17851 z"
       id="path4279"
       inkscape:connector-curvature="0"
       transform="translate(0,120)"
       sodipodi:nodetypes="ccccc" />
    <path
       style="fill:url(#linearGradient3775);fill-opacity:1;stroke:none;"
       d="m 325.26912,340.93567 c 7.48768,0.59062 -110.88151,54.98501 -139.06433,142.59986 l 261.6295,-1.17851 c -18.78461,-41.54769 -57.68298,-61.74927 -104.8875,-140.24285 -9.20567,0.61807 22.65297,-2.51076 -17.67767,-1.1785 z"
       id="path2987"
       inkscape:connector-curvature="0"
       sodipodi:nodetypes="ccccc"
       transform="translate(0,120)" />
    <path
       style="opacity:0.64705882000000003;fill:url(#linearGradient3783);stroke:none;fill-opacity:1"
       d="m 386.5517,403.39676 c -61.41717,50.89002 -124.26171,-11.89223 -141.42135,-2.35701 l 84.85282,-63.63962 c 11.98198,-8.93499 37.71235,43.99775 56.56853,65.99663 z"
       id="path3759"
       inkscape:connector-curvature="0"
       transform="translate(0,120)"
       sodipodi:nodetypes="cccc" />
    <path
       sodipodi:nodetypes="ccccc"
       inkscape:connector-curvature="0"
       id="path3034"
       d="m 324.12133,461.40014 c 7.572,0.59062 -108.59465,55.57427 -137.09484,143.18912 l 264.57577,-1.17851 C 432.60612,561.86306 393.26969,541.66148 345.5336,463.1679 c -9.30935,0.61807 19.37254,-3.10002 -21.41227,-1.76776 z"
       style="fill:url(#linearGradient3812);fill-opacity:1;stroke:none" />
  </g>
</svg>
