<?xml version="1.0" encoding="UTF-8" standalone="no"?>
<!-- Created with Inkscape (http://www.inkscape.org/) -->

<svg
   xmlns:dc="http://purl.org/dc/elements/1.1/"
   xmlns:cc="http://creativecommons.org/ns#"
   xmlns:rdf="http://www.w3.org/1999/02/22-rdf-syntax-ns#"
   xmlns:svg="http://www.w3.org/2000/svg"
   xmlns="http://www.w3.org/2000/svg"
   xmlns:sodipodi="http://sodipodi.sourceforge.net/DTD/sodipodi-0.dtd"
   xmlns:inkscape="http://www.inkscape.org/namespaces/inkscape"
   width="640px"
   height="480px"
   id="svg2985"
   version="1.1"
   inkscape:version="0.48.2 r9819"
   sodipodi:docname="youlose.svg"
   inkscape:export-filename="/home/cabral/programacion/juego/prototipo-stable-disparos/demos/prototipo/youlose.png"
   inkscape:export-xdpi="90"
   inkscape:export-ydpi="90">
  <defs
     id="defs2987" />
  <sodipodi:namedview
     id="base"
     pagecolor="#ffffff"
     bordercolor="#666666"
     borderopacity="1.0"
     inkscape:pageopacity="0.0"
     inkscape:pageshadow="2"
     inkscape:zoom="0.77472527"
     inkscape:cx="154.19935"
     inkscape:cy="240"
     inkscape:current-layer="layer1"
     inkscape:document-units="px"
     showgrid="false"
     inkscape:window-width="1366"
     inkscape:window-height="688"
     inkscape:window-x="-1"
     inkscape:window-y="25"
     inkscape:window-maximized="1" />
  <metadata
     id="metadata2990">
    <rdf:RDF>
      <cc:Work
         rdf:about="">
        <dc:format>image/svg+xml</dc:format>
        <dc:type
           rdf:resource="http://purl.org/dc/dcmitype/StillImage" />
        <dc:title></dc:title>
      </cc:Work>
    </rdf:RDF>
  </metadata>
  <g
     id="layer1"
     inkscape:label="Layer 1"
     inkscape:groupmode="layer">
    <path
       style="opacity:0.86029412;fill:#000000;fill-opacity:1;stroke:none"
       id="path3771"
       d="m 70.315446,39.583148 c 1.502495,1.815806 2.73644,3.583943 4.702765,4.943222 0.505348,0.349336 1.251701,0.276297 1.711503,0.683722 1.114941,0.987936 2.068357,2.164607 2.898745,3.401363 2.310317,3.440922 7.757333,14.506673 8.891854,16.728487 3.037139,5.108621 5.999576,10.2624 9.111418,15.325864 4.034519,6.564804 7.975419,13.196203 12.325879,19.556044 9.61817,14.06058 18.07818,24.66519 29.39978,37.22064 4.80743,5.33135 15.47916,15.86752 21.10503,21.47741 4.08903,3.03597 7.12129,7.18957 10.9057,10.5426 8.17019,7.23888 26.27001,-0.3342 -18.36484,22.29091 -2.8009,1.41975 -4.27384,-4.60189 -6.41076,-6.90283 0,0 26.57045,-14.59805 26.57045,-14.59805 l 0,0 c -12.65824,-12.06135 -3.01841,-6.44007 -25.18727,15.1229 -0.4747,0.46173 0.6309,-1.26561 0.51755,-1.91806 -0.74824,-4.30695 -4.20009,-9.30309 -6.12654,-12.70152 -4.95336,-8.98026 -9.07499,-16.78216 -14.81496,-25.49488 C 116.78479,128.91777 111.67792,122.83732 98.584059,107.6567 84.07663,90.837219 84.575276,91.833019 70.084298,77.434876 67.123714,74.718425 64.196001,71.965708 61.202547,69.285522 58.254384,66.645889 54.929952,64.41604 52.123634,61.622561 51.373702,60.876061 50.76893,59.990378 50.002429,59.2609 c -0.897218,-0.853879 -1.904588,-1.583979 -2.856881,-2.375968 0,0 23.169898,-17.301784 23.169898,-17.301784 z"
       inkscape:connector-curvature="0" />
    <path
       style="opacity:0.86029412;fill:#000000;fill-opacity:1;stroke:none"
       id="path3773"
       d="m 187.30275,51.07156 c -0.3901,1.67429 -0.8384,3.336076 -1.1703,5.022868 -1.26922,6.45046 -0.43598,4.659392 -2.15345,11.053137 -2.90846,10.82745 -7.20061,21.276583 -11.21104,31.712709 -2.68592,6.721306 -5.63538,13.343196 -8.05776,20.163906 -2.41357,6.7959 -4.3325,13.75766 -6.43907,20.6549 -3.0511,9.98975 -7.42106,24.7946 -10.31611,35.14957 -6.51458,23.30129 -0.60475,3.48971 -7.04235,24.59779 -4.58331,14.65465 -11.93899,28.5036 -14.24204,43.8433 -0.80724,5.37669 -0.30121,7.34495 0.28318,12.3031 0.40668,0.32414 1.59018,0.60709 1.22005,0.97242 -6.67742,6.59105 -12.5959,14.656 -21.09016,18.64066 -2.54881,1.19565 -3.95232,-4.01338 -6.02129,-5.92267 -0.18058,-0.16664 -0.50939,-0.0977 -0.68682,-0.26773 -0.78009,-0.74736 -1.424293,-1.62472 -2.136438,-2.43708 0,0 24.483968,-16.94105 24.483968,-16.94105 l 0,0 c 0.79277,0.65557 3.03457,2.7589 2.37831,1.96671 -1.15312,-1.39197 -2.36993,-4.68354 -3.91747,-3.74952 -7.89567,4.76547 -13.17426,12.98934 -20.55444,18.51964 -0.980734,0.73492 0.44362,-2.41059 0.66543,-3.61589 0.48143,-3.11049 2.04712,-13.4861 2.59498,-15.65036 0.89238,-3.52522 2.22931,-6.92276 3.35978,-10.37899 3.78933,-11.58523 7.64059,-23.15447 11.94999,-34.55918 10.37297,-22.81634 -0.30917,1.05361 10.72604,-24.9359 2.2771,-5.3629 4.87783,-10.58994 6.99985,-16.01607 7.46685,-19.09317 12.8214,-38.9255 16.71248,-59.03683 0.65791,-4.750214 1.40283,-9.489186 1.97374,-14.250639 0.72797,-6.071422 0.65301,-10.209014 1.82054,-15.994102 0.88947,-4.407282 1.85378,-5.118179 2.36428,-9.599344 0.20015,-1.756884 0.0803,-3.535583 0.12048,-5.303374 0,0 27.38564,-5.941981 27.38564,-5.941981 z"
       inkscape:connector-curvature="0" />
    <path
       style="opacity:0.86029412;fill:#000000;fill-opacity:1;stroke:none"
       id="path3775"
       d="m 213.28195,198.6588 c -2.21403,-3.61974 -6.04085,-5.68029 -8.94644,-8.60162 -3.19689,-3.21419 -5.92332,-7.06311 -8.41128,-10.82759 -3.41717,-6.59559 -3.93018,-14.02688 -5.94322,-21.04006 -0.71663,-2.49664 -1.53551,-4.48605 -2.45912,-6.89597 -2.38373,-6.89879 -1.53516,-14.18653 -1.35709,-21.32095 0.37275,-1.35518 0.45512,-2.8263 1.11826,-4.06553 0.3313,-0.61911 1.17941,-0.76951 1.71321,-1.2257 2.01679,-1.72358 3.6116,-3.97871 5.38483,-5.94139 1.76909,-1.44874 3.0804,-3.44286 4.76747,-4.95272 0.5799,-0.51898 1.31451,-0.83394 1.95766,-1.27209 11.0716,-7.54266 -13.31331,6.94373 24.45454,-13.840653 0.96125,-0.3951 1.89185,-0.875087 2.88376,-1.185302 1.22823,-0.384125 2.55848,-0.421114 3.75638,-0.891377 7.99309,-3.137876 -1.95239,-0.790521 7.59817,-3.683934 2.16076,-0.65462 6.09915,-1.083714 8.42394,-1.384784 3.69374,0.117565 7.34566,0.799469 11.03535,0.959405 2.21467,0.096 4.43894,-0.173818 6.64684,-0.302997 0.83169,-0.01599 1.68495,-0.236783 2.49508,-0.04796 5.47675,1.276534 12.85629,6.187862 17.41337,9.631528 3.83869,3.12784 4.78295,8.14535 7.82402,11.86807 3.08525,4.4328 4.76519,9.4796 5.3616,14.84077 0.33301,2.99344 0.24482,6.01895 0.39829,9.02694 0.59282,4.06642 2.79843,10.90501 0.85787,14.70422 -0.28728,0.56243 -0.82753,0.95426 -1.2413,1.43139 -0.45742,0.76699 -0.91485,1.53398 -1.37227,2.30096 -0.32881,0.0772 -0.77745,-0.0337 -0.98641,0.23161 -1.09294,1.38783 -2.24525,5.64228 -2.62781,6.88972 -2.43274,7.93276 -0.25403,1.41202 -3.1383,9.71395 -1.47803,1.8271 -1.72642,4.36218 -3.05063,6.27364 -0.26121,0.37705 -0.78677,0.48147 -1.12855,0.7874 -0.3749,0.33557 -0.70789,0.71983 -1.00717,1.12429 -0.71651,0.96831 -1.02226,2.33376 -2.03465,2.98651 -7.17258,4.62457 -14.83192,8.44656 -22.24789,12.66985 -7.10722,-0.2476 -1.66014,-0.23378 -8.0196,0.16122 -1.29928,0.0807 -2.61447,-0.0353 -3.90228,0.15492 -1.04886,0.15497 -2.01167,0.70509 -3.05846,0.87351 -9.5821,1.54175 1.12052,-1.15422 -7.55408,1.23529 -7.56842,1.07408 -15.10522,-0.38104 -22.68245,-0.56178 -3.23885,-0.35713 -6.30835,0.49747 -9.46484,0.96873 0,0 15.87329,-24.88384 15.87329,-24.88384 l 0,0 c 2.94383,0.411 5.74786,1.19056 8.77954,0.73517 2.93611,-0.0122 5.87292,-0.12291 8.80824,-0.0536 0.88279,0.0208 1.75878,0.19025 2.64179,0.19673 3.0447,0.0224 6.11817,-0.42008 9.06739,-1.13129 1.4598,-0.21859 2.91959,-0.43718 4.37938,-0.65577 1.17727,-0.24038 2.34419,-0.53861 3.5318,-0.72114 3.38291,-0.51992 7.42129,-0.43658 10.61296,-1.90785 0.59545,-0.27449 0.95429,-0.89942 1.43143,-1.34913 -5.75923,3.40656 -11.73434,6.47205 -17.27768,10.21968 -0.42225,0.28547 0.98092,0.67418 1.45195,0.47948 1.41101,-0.58325 1.40889,-2.84126 2.64189,-3.74171 0.56299,-0.41115 1.43561,-0.0701 2.05454,-0.39094 0.90024,-0.46663 1.58171,-1.26921 2.37257,-1.90382 0.78961,-0.74572 1.83986,-1.2886 2.36885,-2.23716 1.67813,-3.00911 1.84994,-8.6556 2.21953,-12.04502 0.15215,-1.39541 0.13728,-2.84036 0.58765,-4.16982 0.17809,-0.52573 0.80787,-0.76143 1.21181,-1.14214 0.25959,-0.60503 0.34766,-1.3175 0.77877,-1.81508 0.87429,-1.00909 2.17874,1.2545 2.3702,1.20483 0.3681,-0.0955 0.51861,-7.4794 0.39301,-7.85542 -0.14637,-1.57044 -0.40157,-3.13452 -0.4391,-4.71131 -0.0605,-2.54346 0.65735,-3.60758 -0.0153,-6.04065 -0.63231,-2.2871 -2.35203,-4.25701 -3.55879,-6.23891 -1.96526,-3.01687 -4.03858,-5.97918 -5.89852,-9.05422 -1.98798,-2.02591 -4.98587,-3.93763 -7.93944,-3.96702 -1.66452,-0.0166 -3.25811,0.99516 -4.97148,0.47172 -2.71817,-0.0519 -2.5591,0.0157 -5.25255,-0.29173 -3.41632,-0.38989 -6.75992,-1.12508 -10.11346,0.14469 -3.8089,1.0593 -5.74212,2.21055 -9.38392,3.90537 -3.45777,1.60918 -6.96099,3.02917 -10.20934,5.06101 5.60611,-3.16578 11.25949,-6.24924 16.81832,-9.49732 0.65692,-0.38385 -1.43382,0.52739 -2.09903,0.89668 -0.68968,0.38286 -1.21086,1.0593 -1.94486,1.34823 -0.49007,0.19291 -1.10132,-0.18158 -1.57953,0.0391 -1.0462,0.48276 -1.36929,1.98684 -2.46172,2.42655 -1.99782,1.74571 -4.08973,3.42588 -5.72766,5.53509 -0.48941,0.63022 -0.55526,1.91875 -1.35114,1.97604 -0.73726,0.0531 -0.87805,-1.18932 -1.31707,-1.78398 -0.41132,-0.089 -1.01503,-0.62653 -1.23396,-0.26712 -0.46193,0.75837 -0.0851,1.77719 -0.2204,2.6548 -0.54018,3.50353 -2.21788,6.79228 -1.25654,10.42645 1.33132,4.02086 1.53524,4.31142 2.48215,8.55306 0.99179,4.44272 1.47343,9.10426 2.86782,13.45216 0.34288,1.06917 0.87568,2.06784 1.31351,3.10175 0.6483,0.89108 3.67948,5.07855 4.37766,5.95432 3.83498,4.81044 8.77113,8.55791 13.27703,12.69448 0,0 -23.91837,15.58711 -23.91837,15.58711 z"
       inkscape:connector-curvature="0" />
    <path
       style="opacity:0.86029412;fill:#000000;fill-opacity:1;stroke:none"
       id="path3777"
       d="m 363.41536,74.715125 c -0.40396,1.154273 -0.92647,2.273673 -1.2119,3.462819 -0.93021,3.875506 -0.4171,8.033712 -1.11548,11.958828 -0.68314,3.839478 -2.65395,10.474628 -3.65283,14.040068 -0.74451,3.00333 -1.50037,6.00386 -2.23352,9.00999 -2.87268,11.77892 -2.06633,7.19538 -3.41031,17.4723 -0.21838,1.6699 -0.45882,3.33738 -0.63678,5.01207 -0.11675,1.09871 -0.0347,2.22117 -0.24707,3.30546 -0.15923,0.81286 -0.57154,1.5549 -0.85731,2.33235 0.9002,2.0923 -1.43403,1.79699 -1.91813,2.82806 -1.08399,2.30873 -1.28852,4.81848 -1.31509,7.30076 -0.0582,2.03929 0.0334,4.39024 -0.46149,6.43966 -0.10321,0.42741 -0.38847,0.79303 -0.5172,1.21346 -0.40033,1.30741 -0.22207,2.7557 -0.0746,4.07539 -0.0871,-0.33991 -0.39481,-1.34421 -0.26127,-1.01973 1.37168,3.33283 2.4184,6.75342 3.95538,10.02785 1.07291,4.01935 3.19818,7.6488 5.02742,11.38535 0.11871,-0.26682 2.15887,5.52725 3.47331,4.53859 0.2309,-0.17367 -0.0381,-0.83258 0.25078,-0.82968 1.09108,0.0109 3.70687,2.25405 4.2061,2.63155 0.70265,0.73446 1.19607,1.75432 2.10794,2.20337 0.34252,0.16867 0.0249,-0.76322 0.042,-1.14464 0.0508,-1.1357 -0.25729,-1.74197 1.16232,-2.12056 1.18134,-0.31505 4.52799,-0.14527 5.5711,-0.12302 13.60336,0.0134 5.28645,-0.93886 -16.97239,9.48114 -0.39801,0.18633 0.68909,0.81723 1.11402,0.7051 0.63284,-0.16699 0.93761,-0.91344 1.40641,-1.37016 0.23165,-0.008 0.52872,0.13764 0.69495,-0.0239 0.82728,-0.8039 1.86161,-3.80366 2.15983,-4.45922 1.83049,-4.02395 2.00905,-3.6428 3.88116,-8.29169 0.95328,-2.3672 1.76113,-4.7904 2.6417,-7.1856 0.73703,-2.43019 1.47363,-4.8605 2.2111,-7.29055 1.48723,-4.90061 3.3921,-11.3049 5.03033,-16.14197 3.28621,-9.7029 4.96157,-13.23793 7.9878,-23.55866 1.3079,-4.4605 2.33839,-8.99771 3.50759,-13.49656 3.8819,-15.32698 4.57129,-31.254393 8.37364,-46.578226 5.01839,-11.007076 0.93763,-3.777639 24.51322,-15.614993 0.44403,-0.222943 1.85557,-0.260101 1.48867,0.07492 -7.12326,6.50427 -17.21421,10.38266 -22.0696,18.717614 -1.70595,2.928494 4.4816,5.085326 6.7224,7.627989 0,0 13.54241,-27.466067 13.54241,-27.466067 l 0,0 c 2.54483,2.461148 9.26535,4.241192 7.6345,7.383445 -4.5156,8.700461 -14.56854,13.120497 -21.74294,19.800069 -0.0855,0.07957 0.21651,0.205465 0.31779,0.147362 6.73098,-3.861409 13.52264,-7.633593 20.04914,-11.83139 0.61827,-0.39767 -1.45291,0.225114 -2.17936,0.337671 -0.90984,0.44226 -2.10452,0.531306 -2.72951,1.32678 -0.80185,1.020586 -4.46853,10.913363 -4.60127,11.335497 -0.90375,2.874066 -1.4496,5.851667 -2.33071,8.732754 -9.51276,31.105134 3.26147,-13.970299 -6.82664,22.336584 -3.06769,13.38114 -3.19219,13.14168 -5.54098,26.37013 -0.63083,3.55287 -0.93773,7.1664 -1.7393,10.68468 -0.60903,2.67316 -1.70824,5.21135 -2.48155,7.84168 -1.78595,6.07471 -2.43473,9.15332 -3.89141,15.27842 -3.9897,17.48562 0.52598,-3.48497 -2.14546,12.5038 -0.81404,4.87211 -0.73847,2.02939 -1.78939,5.8382 -0.23704,0.85911 -0.32003,1.75377 -0.5078,2.62498 -0.23388,1.08518 -0.5046,2.16209 -0.7569,3.24314 -0.37499,0.63024 -0.84091,1.21461 -1.12496,1.89073 -0.44377,1.05627 -0.0379,2.72816 -1.04503,3.27438 -23.66926,12.83747 -16.17266,10.5092 -27.80048,10.43251 -0.18962,0.0331 -5.05213,0.88433 -5.14792,0.88796 -4.36776,0.16576 -7.55328,-2.05403 -10.78733,-4.75907 -2.39478,-1.09408 -4.35183,-2.04125 -6.33499,-3.99546 -2.2121,-2.1798 -2.94836,-5.47555 -4.5217,-8.0518 -0.49172,-0.83877 -0.9499,-1.69814 -1.47518,-2.51632 -1.54469,-2.40603 -3.42026,-4.36954 -4.46556,-7.08818 -0.13498,-0.35105 -0.0103,-0.76658 -0.14006,-1.1196 -0.27791,-0.7562 -0.71214,-1.4454 -1.06821,-2.1681 -0.1923,-2.4074 0.12632,0.20601 -1.13849,-3.7049 -0.0864,-0.26706 0.0456,-0.58128 -0.0642,-0.83957 -1.06321,-2.50049 -2.80371,-4.80661 -3.49505,-7.47726 -0.13682,-2.85637 -1.52165,-9.20475 0.34745,-11.40734 0.20427,-0.24072 0.56097,-0.28983 0.84146,-0.43475 -0.34676,-2.95317 -0.39327,-5.94497 -0.009,-8.9095 0.11061,-0.85297 0.44943,-1.6648 0.57196,-2.51614 0.18922,-1.31473 0.0394,-2.67974 0.36131,-3.96841 0.1821,-0.72892 0.74596,-1.30442 1.11894,-1.95663 0.43357,-0.59401 0.79296,-1.25002 1.30071,-1.78201 0.65797,-0.68937 1.62973,-1.07481 2.17314,-1.85766 1.0311,-1.48543 1.7217,-3.18363 2.46917,-4.83013 1.06718,-2.35076 2.25631,-4.67174 2.97067,-7.15259 1.68847,-5.8637 2.17956,-12.60729 2.84117,-18.64172 0.31103,-2.41068 0.60888,-4.8231 0.93308,-7.23205 0.176,-1.30778 1.092,-7.211349 1.15296,-8.996003 0.0499,-1.459711 -0.14869,-2.91912 -0.13476,-4.379616 0.0276,-2.888604 0.44719,-5.766425 0.29723,-8.661109 0,0 28.51866,-5.122937 28.51866,-5.122937 z"
       inkscape:connector-curvature="0" />
    <path
       style="opacity:0.86029412;fill:#000000;fill-opacity:1;stroke:none"
       id="path3795"
       d="m 526.02269,97.574486 c 10.08052,3.052254 20.70651,2.961194 31.12842,2.750924 3.59762,-0.0726 7.18903,-0.579994 10.78533,-0.458488 3.185,0.107609 6.32598,0.778368 9.4918,1.143578 2.09015,0.24111 4.18386,0.45024 6.2758,0.67536 1.02909,-0.0176 2.19739,0.46438 3.08728,-0.0528 0.45805,-0.2662 -0.21084,-1.0384 -0.31626,-1.55759 -7.61695,3.34277 -28.29867,3.74238 -22.85083,10.02831 4.7919,5.52908 34.54054,-12.596514 29.1603,2.11167 -0.18755,2.96717 0.23573,5.04727 -1.83341,7.44337 -0.19158,0.22186 -0.40174,-0.47113 -0.6829,-0.55406 -0.3877,-0.11437 -0.90531,-0.26766 -1.21263,-0.005 -0.90529,0.77348 -2.50573,4.57407 -2.87076,5.361 -0.36464,0.7866 -0.83007,1.5339 -1.09393,2.35978 -0.63813,1.99738 -1.33398,6.20913 -1.70536,8.21459 -1.59064,8.5894 -2.53705,16.93149 -3.43183,25.63124 -0.26599,4.38354 -0.56652,8.76511 -0.79797,13.15061 -0.27585,5.22675 -0.66231,10.45171 -0.7239,15.68537 -0.13835,11.75695 0.61127,15.96774 1.09648,27.33961 0.26173,6.13406 0.39693,16.87666 0.49773,23.09244 0.0263,12.0248 -0.0919,24.07347 -0.58758,36.09016 -0.74427,18.04231 -1.17268,13.58567 -1.33264,32.21663 -0.0458,5.33186 0.12744,10.66336 0.19117,15.99504 0.56742,6.34514 0.41155,13.43855 3.08893,19.49643 0.34574,0.78226 2.67262,1.47583 1.86623,1.76079 -9.52867,2.56049 -19.05734,5.12097 -28.58602,7.68146 0.20088,-1.49214 0.60243,-1.17787 -0.19578,-1.51714 9.74688,-2.53699 19.31825,-5.88356 29.24065,-7.61095 0.87325,-0.15202 -0.3321,1.74146 -0.51151,2.6095 -0.38585,1.86693 -0.7185,3.74658 -1.18421,5.59521 -0.52175,2.07111 -4.53794,15.66792 -4.70563,16.50294 -0.5963,2.96939 -0.66989,6.0202 -1.00483,9.0303 0.17193,2.20582 0.0883,4.44664 0.5158,6.61745 0.20427,1.03718 0.73646,2.00939 1.35246,2.86847 0.15789,0.22019 0.83762,0.40392 0.80148,0.13539 -0.15127,-1.12409 -0.23026,-3.74931 -1.21116,-3.17984 -8.85398,5.14033 -15.78697,13.22504 -24.71667,18.23266 -1.10877,0.62178 -1.21354,-2.23411 -1.82031,-3.35117 -1.48187,-3.72458 -2.34365,-7.75973 -1.50878,-11.72748 0.67043,-0.0641 -0.68727,-2.37332 0.0447,-2.23448 0.48109,0.0913 1.02407,1.45731 0.5432,1.36489 -0.51028,-0.0981 -0.49517,-0.91554 -0.69683,-1.39442 -0.36471,-0.86605 -0.80426,-1.71666 -1.00033,-2.63569 -0.24691,-1.15738 -0.21091,-2.35743 -0.31637,-3.53614 0.38771,-3.05667 0.57716,-2.74311 -0.31152,-6.3623 -1.34671,-5.48455 -2.80093,-7.71334 -3.92012,-13.53128 -0.71413,-3.7123 -1.00905,-7.4931 -1.50712,-11.24051 -0.59269,-4.45931 -1.17677,-8.91975 -1.76516,-13.37962 -0.80557,-4.40405 -1.40807,-8.85012 -2.41672,-13.21213 -1.43548,-6.20789 -2.63505,-9.69976 -5.46366,-14.96913 -1.50372,-2.80124 -2.7133,-3.51426 -3.6178,-6.59501 -0.36656,-1.24851 -0.38668,-2.57353 -0.58002,-3.86029 -0.49447,-8.02455 -3.40626,-15.66127 -4.05394,-23.69626 -1.86796,-23.17339 1.56784,3.80881 -1.23869,-16.50106 -0.92006,-5.10041 -1.19063,-10.30214 -2.09467,-15.4049 -2.28461,-12.89521 -0.37795,0.42123 -2.30461,-9.60752 -0.44885,-2.33636 -0.82936,-6.33329 -1.08533,-8.72267 -1.02245,-4.32363 -2.07549,-8.91852 -2.76737,-13.30125 -0.70364,-4.45731 -0.36728,-5.1586 -1.25994,-9.27647 -0.24142,-1.11366 -0.62223,-2.19246 -0.93334,-3.2887 -1.27298,-3.03513 -2.22813,-6.14157 -2.22093,-9.46242 0.002,-0.84068 0.1197,-1.67889 0.24601,-2.51003 0.0786,-0.51726 0.37672,-1.00289 0.36734,-1.52601 -0.0188,-1.04593 -0.30026,-2.07053 -0.45039,-3.1058 -0.19984,-1.11129 -0.48082,-2.211 -0.59953,-3.33385 -0.13881,-1.31302 -0.074,-2.64056 -0.17129,-3.9573 -0.22859,-3.09358 -0.99909,-6.1507 -1.22253,-9.24184 -0.0932,-1.28945 -0.0325,-2.58544 -0.0487,-3.87816 -0.035,-0.32977 -0.51718,-4.09364 -0.31197,-4.72643 0.70209,-2.1651 0.60064,2.21025 0.019,1.20669 -0.39519,-0.6818 -1.42127,-2.81269 -1.03837,-2.12391 0.58438,1.05123 1.09559,2.1415 1.64338,3.21226 -0.57145,-0.70913 -1.34104,-1.29668 -1.71434,-2.12738 -1.82052,-4.0512 -1.71018,-4.72164 -1.74069,-8.35716 -0.006,-0.70524 0.0165,-1.41044 0.022,-2.11569 0.004,-0.46044 -0.28191,-1.74139 0.005,-1.38135 0.49502,0.62091 0.47148,1.51657 0.70721,2.27486 -1.95289,-2.76272 -2.29104,-6.29719 -2.03105,-9.58973 0.0165,-0.2089 0.26376,-0.37319 0.23931,-0.58131 -0.0614,-0.52237 -0.32268,-1.00122 -0.48402,-1.50183 -0.3086,-2.45318 -1.30963,-4.93459 -1.25742,-7.44046 0.0123,-0.58958 0.22648,-1.15829 0.30249,-1.74308 0.14836,-1.14151 0.21449,-2.29248 0.35195,-3.43535 -0.19706,-2.67067 -0.49915,-5.28457 -0.40019,-7.96724 0.0759,-1.74791 0.0561,-3.49764 0.041,-5.24647 0,0 28.75559,-8.541175 28.75559,-8.541175 l 0,0 c -0.009,1.781705 -0.0179,3.563775 0.038,5.344925 0.0642,2.72036 -0.27275,5.40467 -0.25929,8.12505 0.13901,1.54793 0.47346,4.54915 0.20099,6.09676 -0.10981,0.62371 -1.08043,0.91325 -0.82446,1.71168 -0.0613,0.43687 0.0222,0.88202 0.0333,1.32303 0.55542,2.16823 1.45017,4.25582 1.82055,6.4632 0.0764,0.45543 -0.0788,0.94512 -0.29354,1.35393 -0.13114,0.24961 -0.90886,-0.51322 -0.80814,-0.24986 0.21303,0.55701 0.59699,1.03256 0.89549,1.54884 1.94214,4.7297 2.23421,3.13949 1.67373,6.21702 -0.0933,0.5124 -0.20712,1.02087 -0.31619,1.53014 -0.0771,0.36017 0.0686,1.27552 -0.2424,1.0781 -1.03164,-0.65494 -1.10148,-2.26688 -2.073,-3.02352 0.99876,1.37276 2.05304,2.70679 2.99628,4.11828 0.0646,0.0967 -0.36668,-0.23255 -0.32661,-0.1233 1.38543,3.77683 1.44343,0.67429 2.49335,6.35459 0.13377,0.72374 -0.68271,3.71463 -0.82596,4.29953 -0.0169,0.58404 -0.16234,4.92468 -0.10595,5.57175 0.26224,3.00874 0.96937,4.07959 1.31938,7.22273 0.0986,0.88546 -0.0508,1.78178 -0.0349,2.67256 0.0161,0.90112 0.0872,1.80041 0.13074,2.70061 0.24577,1.14935 0.45376,2.30744 0.7373,3.44806 0.38989,1.56844 1.0451,3.07723 1.28219,4.67592 0.38246,2.57888 -2.95766,4.97166 -0.94403,7.68042 0.41645,1.56329 0.92136,3.10565 1.24935,4.68985 1.25052,6.04 0.27685,3.19365 1.03022,8.84582 0.61636,4.62425 1.53759,9.27179 2.87062,13.73942 0.32625,1.6126 0.7599,3.20714 0.97874,4.83778 0.17369,1.29425 0.11204,2.6095 0.19558,3.91267 0.10556,1.64683 0.35097,3.28656 0.37167,4.93664 0.024,1.91302 -0.34359,3.82435 -0.23778,5.7346 0.28547,5.15393 1.73153,10.20152 1.77456,15.38347 0.41832,2.83331 0.914,5.65628 1.25495,8.49995 1.09714,9.15057 -0.002,5.47959 1.84893,14.00788 1.80419,8.31388 0.91258,3.27094 4.06366,11.70602 0.54446,1.45747 0.88331,2.98369 1.32497,4.47554 0.18326,0.95193 0.36651,1.90386 0.54977,2.85579 -0.0415,0.80434 -0.22172,1.61351 -0.12445,2.41303 1.76855,14.53673 0.51013,-6.81021 1.83665,12.51169 1.26023,18.35617 -1.06018,1.93313 2.70935,23.10673 1.26727,4.2001 2.52947,8.40174 3.8018,12.60031 0.9189,3.03228 1.68916,6.11451 2.7719,9.09223 0.18868,0.51891 5.05963,11.4566 5.60978,12.601 0.93003,1.93461 2.08037,3.76338 2.92818,5.73541 0.5539,1.28841 0.84194,2.67552 1.26291,4.01328 -0.11302,0.11211 -0.19279,0.27351 -0.33907,0.33633 -0.11487,0.0493 -0.39705,-0.15303 -0.37384,-0.0302 0.085,0.44987 0.40477,0.82139 0.60152,1.23479 1.66973,3.5084 1.98648,3.62458 2.09797,6.82619 0.10244,1.47678 0.65577,4.82709 -1.44827,5.28778 -4.75365,-10.04106 1.58966,2.70754 -23.87472,18.50362 -1.13947,0.70684 -1.35808,-2.35025 -1.69521,-3.64809 -0.24291,-0.93508 -0.0925,-1.93617 -0.005,-2.89834 0.38632,-4.26273 1.67661,-8.42096 1.54545,-12.74728 2.13686,-22.367 -0.11471,2.59717 1.4414,-19.0888 0.14474,-2.01709 0.44447,-4.02095 0.59342,-6.03773 0.0846,-1.14496 0.18751,-2.29736 0.10675,-3.4426 -0.0553,-0.78379 -1.23695,-1.99848 -0.51178,-2.30098 9.47571,-3.95266 19.49317,-6.45499 29.23976,-9.68249 -0.68393,0.63755 -0.40485,0.18274 -0.19777,1.58856 -9.52832,3.08414 -19.05663,6.16829 -28.58495,9.25243 -1.10795,0.26508 1.49227,-1.78596 1.86983,-2.86079 2.5947,-7.38654 2.41381,-13.30204 3.09687,-21.32355 0.0623,-5.36815 0.2363,-10.73617 0.18688,-16.10445 -0.17218,-18.6999 -0.58727,-13.45477 -1.36721,-31.41614 -0.51757,-11.91909 -0.64037,-23.8754 -0.52442,-35.80292 0.14605,-6.30735 0.37039,-17.1385 0.62477,-23.36052 0.45305,-11.08156 1.14204,-16.48083 0.7975,-27.83242 -0.15393,-5.07132 -0.68012,-10.12455 -1.04675,-15.18495 -0.31004,-4.27929 -0.65552,-8.55593 -0.98327,-12.8339 -0.27263,-3.52679 -0.64119,-7.04746 -0.81788,-10.58035 -0.16314,-3.26216 -0.11291,-10.97677 -0.12661,-14.59775 -0.007,-1.79762 -0.13731,-3.59774 -0.0401,-5.39273 0.16372,-3.0225 1.16046,-5.96927 0.94295,-9.03169 1.10757,-2.82356 1.30079,-2.95596 1.90664,-5.93332 0.10587,-0.52029 0.58581,-5.64819 1.74991,-6.28698 1.23986,-0.68035 1.17477,4.90139 2.29105,3.57103 -0.006,-0.6375 -0.1878,-1.29828 -0.017,-1.91248 0.0665,-0.23892 0.1219,0.66319 0.36928,0.64584 9.90987,-0.69499 23.76923,-10.74088 29.67521,-2.7529 33.90854,45.86215 -27.36838,10.53355 -27.25977,7.77256 -1.29636,-0.6354 -2.50596,-1.49237 -3.88909,-1.90619 -5.93278,-1.77503 -11.25595,-1.76756 -17.47819,-1.89648 -11.6249,-0.24084 -23.33009,0.0556 -34.70137,2.75093 0,0 15.54892,-23.943224 15.54892,-23.943224 z"
       inkscape:connector-curvature="0" />
    <path
       style="opacity:0.86029412;fill:#000000;fill-opacity:1;stroke:none"
       id="path3797"
       d="m 532.31332,449.84851 c 1.08349,-4.47894 -1.32353,-9.02868 -0.12111,-13.48737 0.0725,-0.26898 0.0759,1.01339 0.25142,0.79706 0.45135,-0.55621 0.49278,-1.34519 0.73916,-2.01779 0.22118,0.15378 0.49523,0.67168 0.66353,0.46134 0.5204,-0.65038 0.51895,-1.58538 0.8481,-2.35055 0.38535,-0.89583 0.73498,-1.82439 1.29209,-2.62479 0.14506,-0.20841 0.51778,-0.10147 0.71598,-0.26021 0.57065,-0.45706 1.18303,-1.30065 1.654,-1.91495 0.32667,-1.66675 0.76266,-4.79039 1.39062,-6.3552 0.0701,-0.17477 0.4968,0.0731 0.55493,-0.10606 0.42163,-1.2993 0.29156,-2.7483 0.78472,-4.02218 0.14102,-0.36427 0.22536,0.748 0.33804,1.12201 7.18683,-4.71087 14.37366,-9.42174 21.56049,-14.13261 1.18449,0.43475 4.63608,0.65617 3.55348,1.30424 -6.94582,4.15793 -15.43036,5.4105 -22.196,9.85561 -1.24472,0.8178 -0.0581,3.03914 0.42584,4.44766 0.31862,0.92736 -0.0775,-1.97446 0.0921,-2.94026 0.0275,-0.15673 0.30093,-0.10357 0.4514,-0.15535 3.21207,-11.01048 0.25365,-2.98093 22.1156,-17.83091 0.50064,-0.34007 1.12472,-0.49991 1.72686,-0.56085 0.92313,-0.0934 1.90593,0.41142 2.78158,0.10459 0.38222,-0.13392 0.19224,-0.78686 0.28837,-1.18029 0.64149,-0.0963 1.28299,-0.19263 1.92448,-0.28895 0.60207,-0.54802 6.38009,1.95424 6.55788,1.73276 0.36521,-0.45498 -0.75897,-1.16035 -0.49274,-1.6795 0.63203,-1.23243 4.55242,-0.52922 4.83939,-0.51124 2.47196,0.005 4.78548,0.90265 7.25267,0.91487 0.44585,0.002 0.89281,-0.0468 1.33169,-0.12535 0.3004,-0.0538 0.63756,-0.46151 0.87489,-0.26968 1.83181,1.48064 3.324,3.338 4.98599,5.00699 1.03796,2.56317 1.29951,2.89299 1.88556,5.6308 0.18635,0.87056 1.28696,2.75397 0.40399,2.64012 -0.92651,-0.11947 -0.5941,-1.77567 -0.78762,-2.68959 -0.0195,-0.0923 0.29751,0.21771 0.24728,0.13783 -0.63283,-1.00622 -1.34146,-1.96274 -2.01218,-2.9441 3.75534,3.69744 2.83039,2.13449 5.17529,7.86777 0.0588,0.14375 -0.11718,0.30612 -0.0851,0.45808 0.14605,0.69165 0.38929,1.35954 0.61066,2.03089 0.22115,0.67066 0.68809,1.23364 1.01386,1.86018 1.01063,2.34772 1.58399,4.80812 1.28136,7.36465 -0.10934,0.92371 -0.41403,1.77072 -0.49823,2.70668 0.31745,3.10234 -0.0855,6.17595 -0.10686,9.26818 0.10447,3.1084 0.77381,6.44249 0.13646,9.52432 -0.24194,1.1699 -0.97323,2.18211 -1.45984,3.27316 -0.28992,0.0965 -0.7179,0.0243 -0.86974,0.28948 -0.50242,0.87731 -0.46591,1.99199 -0.94627,2.88156 -0.27795,0.51473 -0.74485,0.94964 -1.26602,1.21532 -7.51682,3.83196 -14.93476,7.92781 -22.77652,11.0412 -0.91953,0.36508 -1.892,-1.16441 -2.83711,-0.87187 -0.53478,0.16552 0.43144,1.03315 0.64716,1.54972 -0.41971,0.17547 -0.80615,0.48448 -1.25912,0.5264 -3.02445,0.27986 -5.69513,-1.64313 -8.73227,-1.30048 -2.47862,0.49909 -5.01698,0.2765 -7.52442,0.22149 -0.0976,-3.28514 -3.56331,-1.88008 -4.94745,-3.29889 -1.07975,-1.10681 -1.84004,-2.4928 -2.88548,-3.63206 -0.11895,-0.12963 -0.0565,0.37673 0.0357,0.52657 0.60432,0.98238 2.17789,1.66894 2.01746,2.8111 -0.12232,0.87083 -1.47328,-0.96057 -2.20992,-1.44086 -0.89123,-1.12129 -1.83557,1.27098 -2.20288,1.05326 -1.61795,-0.95904 -2.94057,-2.34644 -4.38237,-3.55423 -0.29512,-0.24723 -0.9496,-1.17247 -0.82518,-0.80813 0.23412,0.68557 0.78256,1.21938 1.17384,1.82907 -1.00428,-1.06723 -2.00855,-2.13445 -3.01282,-3.20167 0.0828,0.24886 0.41256,0.9511 0.24835,0.7466 -2.2684,-2.82497 -2.92301,-3.89018 -3.66625,-7.50037 -0.17828,-0.86601 -0.91458,-2.98966 -0.098,-2.65071 0.94684,0.39299 0.55982,1.97239 0.83973,2.95859 -1.02665,-0.60106 -1.4003,-2.34653 -1.94752,-2.99929 -0.27593,-0.32915 0.69662,1.49959 0.35559,1.23848 -1.72547,-1.32106 -2.49645,-4.68402 -3.09233,-6.33968 -0.27285,-5.7761 -0.42425,-2.23482 0.41409,-1.45472 0.27867,0.25931 -0.51431,-1.43093 -0.35355,-1.08588 0.40001,0.85861 1.1728,1.68911 1.07345,2.6311 -0.0499,0.47315 -1.06295,-0.94572 -2.29465,-2.58467 -0.34033,-0.44949 -0.68066,-0.89897 -1.021,-1.34846 -0.039,0.26768 0.11667,0.93911 -0.11714,0.80305 -0.85445,-0.49722 -1.23857,-1.60969 -2.10062,-2.0936 -0.36438,-0.20454 0.3021,0.77921 0.45315,1.16881 -0.90775,-1.25242 -1.81549,-2.50484 -2.72324,-3.75726 0,0 26.5191,-14.90109 26.5191,-14.90109 l 0,0 c -2.14026,-2.60503 -3.16353,-3.70204 -0.0541,-0.45827 0.16113,0.16809 -0.68194,-0.63427 -0.50853,-0.47888 1.31713,1.18023 2.6168,2.37987 3.93878,3.55473 3.20971,2.21007 4.99563,6.81017 5.85313,10.47734 0.0368,0.15722 -0.31369,-0.0766 -0.47054,-0.11491 -0.44021,-0.68684 -0.85224,-1.39257 -1.32063,-2.06051 -0.16311,-0.23259 -0.73327,-0.86625 -0.56916,-0.63436 1.73699,2.45433 2.62895,3.1792 4.42583,5.74938 0.57572,1.54588 1.29797,3.04485 1.72714,4.63765 0.0416,0.15447 -0.29354,0.35763 -0.41057,0.24855 -0.48876,-0.45555 -0.71625,-1.12935 -1.11199,-1.66768 -0.43722,-0.59476 -2.11917,-1.80026 -1.38451,-1.72835 0.85339,0.0836 1.30332,2.4257 1.86183,1.77507 0.56121,-0.65378 -1.17491,-1.26063 -1.76236,-1.89095 8.18542,6.46742 0.39185,0.31297 0.32275,0.16953 -0.31747,-0.65913 1.43373,0.30179 2.13339,0.51561 0.77685,0.23741 1.52896,0.54949 2.2891,0.83593 0.64487,0.24301 1.28377,0.50154 1.92566,0.75231 1.37583,-1.75723 0.48249,-0.94219 4.32558,2.65539 0.54689,0.51195 2.01245,1.51112 1.32713,1.81365 -0.70972,0.31331 -1.38347,-0.94914 -1.59408,-1.69581 -0.58455,-2.07248 4.46788,4.60736 0.21442,-0.6948 2.66201,-0.0301 5.33728,-0.32281 7.98508,0.0879 0.77363,0.11859 2.83259,0.78883 3.57198,0.10968 0.77795,-0.71456 -0.42276,-1.50955 1.90596,-1.73329 1.12993,0.20059 2.24547,0.68861 3.38978,0.60178 0.28486,-0.0216 0.1639,-0.97339 -0.0946,-0.85179 -6.85117,3.22264 -13.52026,6.82225 -20.19517,10.39568 -0.29386,0.15732 0.7205,-0.30751 0.99322,-0.11587 0.49266,0.34618 0.43568,1.74276 0.99107,1.5102 0.79995,-0.33496 0.71201,-1.5816 1.06802,-2.3724 1.79335,1.10571 0.90986,0.3074 2.26636,2.76122 0.28911,0.2388 -0.009,-0.75006 -7.5e-4,-1.12495 0.0315,-1.39446 0.21178,-2.77826 0.27441,-4.17108 0.008,-2.93772 -0.25474,-5.86703 -0.2498,-8.81139 -0.063,-0.77195 -0.53979,-5.48246 0.15243,-5.81373 0.0523,-0.025 1.18473,0.65871 1.20257,0.66925 -0.72033,-2.43433 0.40685,1.1556 -1.80097,-3.7675 -0.14971,-0.33383 -0.10255,-0.73091 -0.234,-1.07234 -0.32164,-0.8354 -1.90192,-2.87512 -1.11883,-2.44139 1.68164,0.9314 1.63196,3.73643 3.5268,4.56294 -3.72625,-3.37528 -4.91349,-4.07315 -6.43417,-8.93061 -0.0662,-0.21151 0.21031,-0.3903 0.32231,-0.58155 0.0547,-0.0934 0.0726,-0.24537 0.1775,-0.27192 0.0711,-0.018 0.0338,0.14277 0.0508,0.21415 1.36632,1.2607 2.95666,2.31534 4.09895,3.78208 0.28885,0.37088 -0.92008,-0.19333 -1.37995,-0.29083 -1.96386,-0.41635 -3.86429,-0.72337 -5.77926,0.13087 -1.25252,0.78433 -1.95335,1.43557 -3.60614,1.4079 -1.46774,-0.0246 -2.89983,-0.4669 -4.35917,-0.62564 -0.32631,-0.0355 -0.69795,-0.11706 -0.98369,0.0445 -0.38829,0.21951 0.0534,1.30973 0.0831,1.41801 -1.87528,1.81484 1.20558,-0.88324 -3.23121,0.83197 -0.29671,0.11471 -0.0638,0.67162 -0.26731,0.91614 -0.33733,0.40532 -1.70107,1.24722 -1.27478,0.93681 19.06713,-13.88385 25.65527,-10.01647 18.07624,-14.12795 -0.0869,0.5872 0.26202,1.48047 -0.26079,1.7616 -0.42158,0.22668 -0.74377,-1.6604 -0.80922,-1.18624 -0.30553,2.21353 1.84256,5.3724 0.0477,6.70337 -6.98768,5.18164 -16.09024,6.70075 -23.73132,10.85899 -0.54328,0.29565 0.8261,0.92075 1.23915,1.38113 6.66749,-4.468 13.33498,-8.93601 20.00248,-13.40402 -1.70802,5.66787 0.31396,0.53815 -1.54956,-0.44719 -0.65655,-0.34715 -0.0213,1.61222 -0.514,2.16794 -0.23528,0.26536 -0.60771,-0.80769 -0.88643,-0.58839 -0.46701,0.36744 -0.35289,1.13487 -0.52933,1.7023 -0.30826,0.15236 -0.61653,0.30473 -0.92479,0.45709 -0.23448,2.15155 -0.50122,6.50104 -1.82505,8.33259 -0.30705,0.42482 -1.65958,0.0191 -1.8935,0.7525 -0.29349,0.92019 -0.20304,1.92103 -0.30455,2.88155 -1.71405,-0.75496 1.29841,0.35805 -0.9456,1.84487 -0.52999,0.35116 -1.52594,-3.14942 -2.58618,-1.90484 -0.70673,0.8296 -0.14601,6.32904 -0.11648,6.8111 0,0 -27.37337,8.10836 -27.37337,8.10836 z"
       inkscape:connector-curvature="0" />
    <path
       style="opacity:0.86029412;fill:#000000;fill-opacity:1;stroke:none"
       id="path3801"
       d="m 44.665405,266.19405 c 0.0698,0.6792 0.03352,1.37788 0.209407,2.03762 0.155402,0.58292 0.494495,1.10119 0.770402,1.63769 0.235482,0.45788 0.626065,1.83971 0.762645,1.34326 0.169022,-0.61436 -0.90684,-2.37947 -0.636283,-1.80257 1.851421,3.94772 1.419533,3.04129 1.913243,7.19092 0.13421,4.2625 1.397992,8.38856 1.734367,12.62213 2.918821,36.73589 -2.581828,-13.29605 1.646483,32.55685 2.025796,21.96826 2.710638,22.13317 7.242263,43.88292 19.521662,79.95899 -7.809824,-31.53303 9.301109,36.96034 1.087513,4.3532 2.007365,8.7471 3.090584,13.10138 1.816954,7.30372 3.069531,10.12595 3.974474,17.3331 0.293333,2.33616 0.281894,4.70056 0.422842,7.05085 0.09769,3.43417 -0.272531,5.32205 0.882753,8.28696 0.152608,0.39166 0.835637,1.43119 0.7383,1.02228 -0.390557,-1.64071 -0.34722,-5.87764 -1.634767,-4.78829 -7.520965,6.36324 -20.05191,12.62492 -19.231279,22.44237 0.667889,7.99016 13.325808,-8.92065 19.988712,-13.38097 -0.405829,0.95156 -0.447115,2.16425 -1.217487,2.85467 -0.607212,0.54419 -0.563604,-4.67995 -1.077822,-3.36456 -2.701029,6.90936 1.494878,3.0218 -0.448432,3.63757 -9.457015,2.9966 -18.899229,6.03972 -28.348843,9.05959 -1.186013,-4.78332 -1.882919,-5.35685 -1.05523,-10.14951 0.795819,-4.60812 0.560887,0.77715 1.253202,-0.38039 0.428418,-0.7163 0.299411,-1.64692 0.552924,-2.44213 0.317804,-0.99689 0.770655,-1.94557 1.155982,-2.91835 0.519376,-0.72943 0.984247,-1.50091 1.558128,-2.18828 1.360169,-1.62916 1.542599,-1.38961 2.990654,-2.73856 0.779738,-0.72637 1.344994,-1.7195 2.266556,-2.2546 21.434771,-12.44597 15.427579,-10.35115 28.347218,-13.98711 17.892781,-5.11392 -7.153675,1.8823 13.297363,-3.22753 2.359154,-0.58945 4.673724,-1.34578 6.997897,-2.06081 2.15162,-0.66196 4.21773,-1.64503 6.42843,-2.06984 4.79241,-0.92091 8.31158,-0.36213 13.06663,-0.0114 1.1504,0.14303 8.25504,1.16574 9.86004,0.88897 0.96991,-0.16726 1.72481,-0.9486 2.58902,-1.4196 0.78824,-0.4296 1.58323,-0.84684 2.36831,-1.28219 0.56165,-0.31145 2.23785,-1.26105 1.67158,-0.95807 -6.88845,3.68557 -13.75918,7.40414 -20.63878,11.10622 0,0 29.96545,2.9356 29.96545,2.9356 l 0,0 c -7.46172,4.20632 -14.79557,8.64801 -22.38516,12.61896 -0.48375,0.2531 -1.09117,-0.0546 -1.63711,-0.0503 -1.11299,0.009 -2.2262,0.14456 -3.33785,0.0895 -4.52748,-0.22416 -8.8914,-1.46414 -13.43056,-1.54043 -1.49154,0.0461 -2.99265,-0.0367 -4.47462,0.13815 -2.38504,0.28136 -9.000612,1.90902 -11.017658,2.46036 -6.842102,1.87025 -13.616058,4.07374 -19.952523,7.30524 -13.416734,7.32341 7.364769,-4.00081 11.106115,-6.26494 0.493345,-0.29855 -1.193534,0.0383 -1.701847,0.31055 -1.486775,0.79643 -2.319329,2.79933 -4.262138,2.90575 -0.567801,-0.14784 -1.596125,-0.6878 -1.755875,-0.12324 -0.612683,2.16525 0.362386,5.21851 -0.959053,4.42265 -0.800223,-0.48195 -0.846751,-1.6654 -1.270057,-2.49814 -0.47185,-0.92823 -0.943606,-1.85651 -1.415409,-2.78477 -9.34763,3.17238 -18.557868,6.78281 -28.04289,9.51713 -0.506304,0.14595 -0.12778,-1.72549 0.364705,-1.53813 0.705438,0.26839 0.746419,2.76681 0.970115,2.04596 0.586342,-1.88947 -1.226596,-5.72638 0.652883,-7.64074 0.392886,-0.40018 0.501392,1.0033 0.752087,1.50495 7.07079,-5.00056 17.69052,-22.91359 21.21237,-15.00168 3.854949,8.66022 -10.856446,15.83508 -18.141554,21.90033 -1.421458,1.18345 -1.602732,-3.38731 -1.902629,-5.21245 -0.05593,-0.3404 0.784379,0.0242 1.006793,-0.23951 1.862632,-2.20829 1.860607,-5.11559 2.35757,-7.79358 0.637814,-5.84914 0.992063,-7.92123 1.065716,-14.07199 0.04179,-3.4902 -0.116458,-6.97997 -0.157541,-10.47018 -0.05353,-4.5472 0.163949,-9.10372 -0.126281,-13.64197 -0.9808,-15.33647 -2.769854,-22.58016 -5.542864,-38.13685 -1.774395,-7.35744 -3.534292,-14.71838 -5.323187,-22.0723 -4.034091,-16.58365 -7.874099,-33.38139 -13.822198,-49.42343 -1.447664,-3.90436 -3.499265,-7.56551 -4.880881,-11.49933 -0.396179,-0.79942 -0.859288,-1.56902 -1.188537,-2.39825 -0.108774,-0.27395 0.656384,0.97648 0.52022,0.71506 -0.603946,-1.15951 -1.45326,-2.19756 -1.927063,-3.41605 -0.150259,-0.38643 0.157646,-0.82565 0.117255,-1.23829 -0.186843,-1.9088 -1.225167,-5.75837 -1.601752,-7.29632 0,0 27.373363,-8.10836 27.373363,-8.10836 z"
       inkscape:connector-curvature="0" />
    <path
       style="opacity:0.86029412;fill:#000000;fill-opacity:1;stroke:none"
       id="path3803"
       d="m 198.16683,437.66508 c -0.89211,-1.21272 -1.63186,-2.55387 -2.67631,-3.63814 -0.89126,-0.92523 -5.54868,-4.04091 -6.47783,-4.84334 -3.4946,-3.01798 -7.02129,-6.94866 -10.07814,-10.41228 -3.66007,-3.90498 -5.92042,-8.81718 -8.97776,-13.13664 -0.69846,-0.9868 -1.71514,-1.73486 -2.34532,-2.76661 -2.08301,-3.4103 -2.74823,-6.13537 -3.97848,-9.8704 -0.94077,-2.73639 -1.27591,-5.65436 -2.19866,-8.39644 -2.26318,-6.72538 -0.0336,1.90167 -2.32717,-5.45435 -0.78209,-2.50834 -1.28555,-5.09521 -1.93072,-7.64221 -1.29593,-6.85883 -0.33535,-13.82728 -0.61041,-20.74219 -0.46535,-1.58782 -0.9067,-7.44673 -0.005,-7.7381 0.47727,-0.15421 0.49181,1.62192 0.83224,1.25359 0.65026,-0.70356 0.3579,-1.88413 0.60582,-2.80952 0.30281,-1.13031 0.69648,-2.2343 1.04472,-3.35145 0.49916,-0.91917 0.83591,-1.94734 1.49748,-2.7575 -0.17056,-2.75148 1.70988,-0.51976 2.35101,-1.10094 1.16848,-1.05923 1.16122,-3.01882 1.64478,-4.29368 0.34634,-0.9131 0.87976,-1.7438 1.31963,-2.61569 0.65817,-1.04253 2.77305,-6.31468 4.05806,-6.69787 0.39008,-0.11632 0.01,1.01136 0.38976,1.15728 0.3112,0.1195 0.49587,-0.46305 0.65424,-0.75639 0.69837,-1.29361 1.26813,-2.65263 1.90219,-3.97895 1.53963,-2.04803 4.13609,-2.63957 6.06426,-4.11666 1.67289,-1.28153 3.70621,-3.89585 5.55926,-4.96294 7.2876,-4.1966 14.79339,-8.00238 22.19008,-12.00357 1.6558,0.14458 3.30543,0.45423 4.9674,0.43374 1.09053,-0.0134 2.13941,-0.46577 3.22784,-0.53476 2.52906,-0.16032 5.52074,0.27167 8.02465,0.40922 2.80634,0.15417 3.87851,0.098 6.5616,0.0596 1.23422,0.53413 2.61543,0.81085 3.70265,1.60238 1.52628,1.11117 2.67204,2.6678 4.00252,4.00722 2.19761,2.21235 4.79365,4.23739 6.70659,6.71242 0.80485,1.04135 1.4864,2.17241 2.22959,3.25862 5.9026,10.11352 6.49377,21.78991 8.25841,33.08034 0.75329,4.81971 1.62461,9.62024 2.43692,14.43035 0.78921,5.1065 1.38082,10.24748 2.36763,15.31951 1.31329,6.75007 2.9297,13.17107 5.70102,19.43712 0.50707,1.14652 2.96898,2.54154 1.92279,3.23228 -25.78195,17.02224 -21.92503,20.88363 -28.51244,8.82156 1.85843,11.06605 -0.78456,-2.49419 27.56231,-10.89727 1.26969,-0.37639 0.0114,2.67042 -0.27512,3.96335 -0.13979,0.63087 -2.52417,6.38232 -2.89775,6.99624 -0.74156,1.21865 -1.75068,2.25281 -2.62602,3.37921 -4.94885,5.62494 -9.13744,12.12234 -12.40077,18.88062 -3.37556,6.99071 0.041,1.04154 -2.62345,5.52165 -2.26441,-8.88308 -14.86778,14.3874 -23.7571,12.90535 -0.68313,-0.11389 -1.65076,-1.14978 -2.00266,-0.55329 -0.36831,0.62433 1.40268,1.02463 1.30118,1.74236 -0.0776,0.54857 -1.08348,0.24273 -1.60738,0.42294 -0.59437,0.20444 -1.15957,0.48548 -1.73935,0.72822 -4.87931,0.36775 -9.61764,-1.10237 -14.43876,-1.46616 -1.04618,-0.0789 -2.11635,0.15319 -3.14719,-0.042 -1.42939,-0.27061 -2.76898,-0.89346 -4.15347,-1.3402 -7.05722,-3.41517 -1.16469,-0.49815 -7.60194,-3.85238 -1.09851,-0.57239 -2.11466,-1.36919 -3.31277,-1.68363 -0.71438,-0.18748 -1.46528,0.26941 -2.20309,0.23602 -2.81757,-0.1275 -3.68291,-0.72658 -6.35875,-1.75251 0.11004,-3.22104 -3.5208,-1.4934 -4.66341,-2.93039 -1.17568,-1.47858 -1.82827,-3.31828 -2.94581,-4.84127 -0.39453,-0.53766 1.06167,2.44474 0.75336,1.8534 -0.44705,-0.85745 -0.78058,-1.76947 -1.17087,-2.6542 0,0 27.87716,-12.27249 27.87716,-12.27249 l 0,0 c -2.31472,-3.90496 0.96356,1.54966 0.54665,1.36521 -1.25539,-0.55541 -1.72653,-2.13544 -2.55209,-3.23223 -0.31534,-0.41894 0.83213,1.23157 1.1731,1.04805 0.96867,0.24334 4.68119,1.16612 5.23368,1.35965 4.31812,1.51256 8.13837,4.21975 12.68418,5.06102 4.01079,0.056 10.08548,1.44489 13.66808,-0.71004 0.58817,-0.35379 1.05209,-0.88178 1.57814,-1.32266 0.76801,-0.3715 1.55313,-0.70951 2.30401,-1.1145 0.38154,-0.20577 0.65346,-0.70155 1.08677,-0.71427 1.26913,-0.0373 2.4963,0.58753 3.76588,0.57177 0.21048,-0.003 0.0242,-0.43254 0.12,-0.61999 0.0865,-0.16929 0.56561,-0.50191 0.4029,-0.40362 -6.73419,4.06791 -13.42088,8.21394 -20.13131,12.3209 0.64487,-0.39618 1.25854,-0.84833 1.93462,-1.18855 0.94233,-0.47421 2.16042,-0.50426 2.90812,-1.24844 1.32758,-1.32132 1.99762,-3.17085 3.07299,-4.70445 1.11308,-1.58739 2.52845,-2.9695 3.48892,-4.65362 1.955,-3.42796 2.73817,-7.43748 4.75988,-10.83972 6.9742,-9.46103 -1.89392,2.08058 3.54183,-3.87036 0.39727,-0.43492 0.41806,-1.19597 0.91546,-1.51153 0.23965,-0.15204 0.4416,0.61083 0.69755,0.4882 28.06328,-13.44481 23.79036,-23.52452 27.88179,-12.20019 -6.58246,-9.57647 -0.0899,-1.31686 -26.17875,12.18921 -0.93448,0.48377 2.01271,-1.11491 2.3451,-2.11331 0.84847,-2.54849 1.05121,-5.30745 1.01969,-7.99329 -0.0504,-4.29263 -0.64337,-8.56877 -1.26395,-12.81661 -0.70936,-4.85553 -1.8147,-9.64491 -2.72206,-14.46737 -7.28946,-21.85297 -1.17935,-4.91073 -8.93041,-23.46652 -2.37112,-5.67637 -3.36987,-11.77247 -7.41982,-16.54368 -2.16796,-2.97511 -0.0185,-0.20835 -3.1309,-3.51968 -1.6302,-1.73441 -1.70154,-2.40273 -3.87154,-3.78406 -0.44185,-0.28126 -1.13723,1.00219 -1.53785,0.32265 -1.83465,-0.20255 -3.78508,-0.47445 -5.63235,-0.41954 -3.22122,0.0958 -3.56565,0.4227 -6.63449,0.90456 -1.08336,0.1701 -2.23122,0.0548 -3.26165,0.43006 -0.69296,0.25234 -1.14981,0.92378 -1.72472,1.38567 5.54057,-3.14928 11.2036,-6.09223 16.6217,-9.44783 0.77397,-0.47935 -1.7823,0.41606 -2.61877,0.77537 -0.8281,0.35572 -1.68391,0.73669 -2.33995,1.35466 -4.19485,3.95147 0.23077,1.48152 -3.77625,4.27251 -0.53443,0.37224 -1.15907,0.59434 -1.73861,0.89151 -0.41625,-0.48313 -0.61236,-1.49026 -1.24877,-1.44939 -0.55519,0.0357 -0.41191,1.03489 -0.57569,1.56657 -0.33889,1.10019 -0.34032,2.33772 -0.93127,3.32567 -0.71843,1.20109 -3.88602,0.42834 -4.41618,1.98011 -0.38031,0.53952 -0.70822,1.12008 -1.14093,1.61856 -0.31784,0.36615 -0.91186,0.50848 -1.0951,0.95738 -0.37004,0.90647 -0.27551,1.94021 -0.4787,2.89798 -0.32566,1.53498 -0.96796,4.94921 -2.3224,6.22166 -0.34461,0.32375 -0.94526,0.0272 -1.41789,0.0409 -0.41216,-0.008 -0.85599,-0.18121 -1.23647,-0.0226 -1.63711,0.68253 -0.31157,3.53421 -0.52081,5.29551 -0.0283,0.2382 -0.5578,0.1989 -0.7193,0.0215 -0.62183,-0.68291 -0.52391,-2.17321 -1.4249,-2.37635 -0.65608,-0.14793 -0.1458,1.33718 -0.2187,2.00577 -0.1038,3.13625 -0.15427,6.32445 -0.42953,9.44966 -0.25722,2.92051 -0.84322,5.81848 -0.36713,8.76948 0.21861,1.11059 0.47268,2.21478 0.65583,3.33176 0.12899,0.78665 0.0556,1.61009 0.2799,2.37501 0.34732,1.18425 1.00791,2.25599 1.41954,3.41945 1.35648,3.834 2.10659,7.85133 2.99429,11.80761 1.2707,4.76651 2.01502,5.77176 4.62766,10.05249 2.29975,3.76807 4.36068,7.70973 7.47968,10.90414 2.08169,2.0131 4.02418,4.17097 6.16569,6.12031 1.04205,0.94854 2.20191,1.75948 3.27923,2.66776 3.58397,3.02162 6.92634,6.34692 10.85295,8.94406 0,0 -23.16989,17.30179 -23.16989,17.30179 z"
       inkscape:connector-curvature="0" />
    <path
       style="opacity:0.86029412;fill:#000000;fill-opacity:1;stroke:none"
       id="path3807"
       d="m 313.60762,275.44818 c -6.82349,4.28913 -19.22453,11.61286 12.09654,-6.41464 0.57645,-0.33178 -1.32462,0.35008 -1.84113,0.76911 -1.45857,1.18328 -2.47203,2.82863 -3.73487,4.21889 -0.39044,0.38625 -0.76316,0.79127 -1.17132,1.15875 -0.25456,1.46926 -1.63318,0.37753 -2.26114,0.88895 -1.25324,1.02064 -1.29568,4.06826 -2.9396,4.32053 -1.4455,9.61773 -0.0727,2.3438 -0.67047,1.97786 -0.37389,-0.22889 -0.40893,0.90387 -0.83207,1.01848 -0.29687,0.0804 -0.49897,-0.83929 -0.69733,-0.60423 -0.91607,2.67572 -0.2174,1.81462 -1.4332,3.00209 0.17007,0.29938 -0.56822,-0.49744 -0.61763,-0.27725 -0.17282,0.77021 0.20329,1.5656 0.31051,2.34764 0.24516,1.78805 0.20028,1.6788 0.27138,3.42694 -0.009,0.46746 0.4086,1.57267 -0.0268,1.40238 -0.54841,-0.21447 -0.7083,-2.23673 -0.61852,-1.65476 0.14659,0.95024 0.59172,1.83325 0.79115,2.77382 0.53377,2.51731 0.52158,4.09142 1.51815,6.28514 1.31674,1.6678 1.35269,3.91969 3.27758,4.97234 0.33527,0.18334 0.70806,0.83661 0.98976,0.57842 0.33064,-0.30304 -0.10915,-0.89034 -0.16372,-1.33552 3.57695,1.00329 -1.08194,-0.46188 4.32539,2.2356 4.41913,2.20451 -2.31391,-2.45198 3.32037,1.32319 3.02676,2.02804 1.44845,2.35772 3.43138,1.55455 7.62758,2.68049 -2.35697,-0.48674 4.22008,0.65468 1.10124,0.19112 2.09573,0.80389 3.18908,1.03592 0.77627,0.16474 1.61385,-0.0751 2.37625,0.14514 6.13639,1.77242 0.92104,1.34092 4.57728,1.51722 3.68124,1.83579 6.05039,5.51182 7.41499,9.24229 0.0798,0.21826 -0.28249,-0.37396 -0.37803,-0.58581 -0.0312,-0.0691 0.11854,0.0945 0.1778,0.14182 6.36374,4.98916 6.68488,12.2343 8.0096,19.63681 0.44252,2.21245 1.05158,5.31085 1.56455,5.97982 0.0978,0.1275 -0.0522,-0.31709 -0.0782,-0.47563 0.40403,0.66349 0.80806,1.32699 1.21209,1.99048 0.84594,2.30835 1.67043,3.79103 1.59172,6.27749 -0.005,0.15935 -0.46383,-0.0683 -0.46955,0.091 -0.0454,1.26393 1.15764,4.58856 1.45984,5.97277 0.20141,3.39159 -0.35498,6.84822 -0.68984,10.23825 -0.48803,1.21277 -0.92257,2.44847 -1.46408,3.63832 -0.32297,0.70964 -0.82227,1.33221 -1.12505,2.05069 -1.31327,3.11637 -1.72326,6.38621 -2.51145,9.63867 0.11121,3.15947 0.3115,5.65468 -1.07248,8.67778 -0.1026,0.22413 -0.52361,-0.0748 -0.738,0.0468 -0.66411,0.37681 -1.92423,2.07143 -2.27155,2.49893 -0.46955,0.54948 -0.93909,1.09896 -1.40864,1.64844 -0.52509,0.3088 -1.16494,0.47617 -1.57527,0.92639 -0.95223,1.04481 -2.68023,4.45291 -4.11297,5.39878 -21.19543,13.99285 -13.34306,13.42209 -25.26115,13.2972 -5.70216,-1.91486 -2.784,-2.35074 -4.47593,-0.18872 -0.23631,0.30198 -0.65825,0.43616 -0.86349,0.76005 -0.23268,0.3672 0.006,1.09466 -0.4039,1.24003 -1.03894,0.36862 -2.21765,-0.097 -3.30632,0.0764 -0.87311,0.13908 -1.67487,0.56698 -2.5123,0.85046 -4.3786,2.50424 -0.19138,0.50319 -5.96417,1.84082 -4.68684,1.086 -0.14184,1.1754 -5.80064,1.01681 -3.39828,-0.0952 -2.40201,-1.22797 -3.42768,0.9113 -3.08958,1.83163 -6.19262,-0.72977 -9.43379,-0.35986 -0.35837,0.0503 -0.88695,-0.15831 -1.07511,0.15081 -0.25647,0.42137 0.40553,1.10335 0.084,1.47746 -0.44772,0.52097 -1.26735,0.56333 -1.94324,0.68596 -2.48363,0.45065 -4.66906,-0.35999 -6.96073,-1.17031 -0.37323,-0.0556 -0.74646,-0.11114 -1.11968,-0.16671 0,0 18.05701,-24.11041 18.05701,-24.11041 l 0,0 c 0.3765,0.0566 0.75299,0.11329 1.12949,0.16993 0.37429,-0.51939 0.25635,-0.21379 0.28106,-0.94167 1.53397,-2.1628 6.21486,-1.02453 8.36713,-0.94645 0.68375,0.0967 2.81795,0.77213 3.45872,0.0945 0.12489,-0.13208 0.017,-0.38603 0.12778,-0.53015 0.5329,-0.69329 1.70039,-0.58681 2.37116,-0.68234 1.06909,0.0884 2.1346,0.27662 3.20729,0.26531 0.93591,-0.01 1.71031,-0.77213 2.6037,-1.05119 0.90887,-0.28389 1.88021,-0.34934 2.77696,-0.66944 0.69648,-0.24862 1.31197,-0.68288 1.96795,-1.02432 1.13266,-0.35428 2.26531,-0.70856 3.39796,-1.06284 1.01943,-0.32147 2.10244,-0.48592 3.05828,-0.9644 3.88613,-1.94538 -1.83349,-1.30352 4.62311,-1.76306 0.62754,-0.0447 1.2625,0.0101 1.88449,0.10461 0.98797,0.1501 1.93764,0.73035 2.93158,0.62707 0.33156,-0.0344 0.18536,-0.64039 0.27804,-0.96058 1.20312,-7.611 0.47825,-1.45125 -16.94434,9.82554 -0.63598,0.41164 1.33332,-0.72216 2.02243,-1.03689 0.60183,-0.27487 1.43232,-0.21334 1.84582,-0.72982 6.2987,-7.86745 -2.0568,-0.24096 2.47225,-4.19102 1.132,-1.11964 1.12146,-0.9638 1.94542,-2.39936 0.36035,-0.62783 0.27672,-2.00913 0.99624,-1.92968 0.73432,0.0811 2.30549,7.23327 2.3873,0.51654 1.17305,-10.61902 -0.56785,2.92533 1.11837,-5.21055 0.2511,-1.21155 0.28593,-2.45802 0.42889,-3.68703 0.32694,-0.95673 0.71749,-1.89403 0.98082,-2.87018 1.33525,-4.94966 -0.11698,-2.42102 1.89055,-5.32497 0.27412,0.0579 0.68675,0.41896 0.82234,0.17379 0.48797,-0.88234 -1.11672,-5.01302 0.26988,-6.03981 1.99116,-2.12684 -4.09037,-10.78159 0.0185,-6.39827 -0.3752,-1.56445 0.25073,0.86937 -1.95886,-3.16956 -0.28469,-0.5204 -0.39703,-1.11801 -0.58717,-1.6799 -0.39939,-1.18023 -1.04943,-2.30737 -1.18136,-3.54635 -0.14851,-1.39466 2.98277,-2.28443 0.7996,-4.13097 -0.15919,-1.30829 -0.33799,-2.61434 -0.47756,-3.92486 -0.0924,-0.86748 -0.002,-1.7629 -0.21817,-2.60803 -0.67664,-2.64351 -3.82555,-3.90902 -5.35989,-5.90414 -1.78576,-2.12777 -2.52884,-2.68974 -3.62911,-5.26582 -0.20693,-0.48449 0.37898,1.25613 0.90429,1.29625 0.46517,0.0355 -0.99512,-1.49274 -0.58422,-1.27181 3.85393,2.07222 2.5925,1.99596 1.43693,2.05143 -0.7834,-0.33488 -1.54617,-0.72288 -2.35022,-1.00462 -0.2438,-0.0854 -0.51808,-0.0311 -0.76991,-0.0887 -1.01595,-0.23242 -2.01847,-0.52005 -3.02771,-0.78007 -0.79418,-0.10764 -1.60063,-0.14705 -2.38254,-0.32291 -1.20176,-0.27028 -2.37023,-0.67171 -3.55401,-1.01225 -0.91464,-0.26312 -1.82747,-0.53247 -2.74121,-0.7987 -1.09168,-0.6123 -2.16268,-1.26301 -3.27503,-1.83689 -0.93208,-0.48087 -2.01219,-0.6169 -2.96159,-1.06261 -0.60876,-0.28579 -1.10593,-0.78656 -1.72897,-1.03969 -1.10002,-0.44689 -2.60316,0.74536 -3.48244,-0.74857 -4.28287,-3.34684 -8.37864,-7.18197 -9.80302,-12.64615 -1.62566,-3.10912 -1.94523,-3.19555 -2.67887,-6.54945 -0.0964,-0.44069 0.0406,-0.91136 -0.0551,-1.3522 -0.48849,-2.25074 -2.88539,-4.13038 -2.24684,-6.57548 0.11742,-0.86922 0.34539,-1.74711 0.22241,-2.62979 -0.34051,-2.44401 -1.22342,-4.80429 -0.87139,-7.32537 0.16842,-0.79417 0.33684,-1.58834 0.50526,-2.38251 0.2547,-0.18584 0.6811,-0.25335 0.76411,-0.55752 0.27824,-1.01955 0.16706,-2.10706 0.25059,-3.16059 0.15626,-0.24875 0.38152,-0.46575 0.46879,-0.74625 0.26433,-0.84957 -0.31428,-2.56357 0.57442,-2.60669 0.89124,-0.0432 0.56842,1.69163 0.85263,2.53745 0.28539,-0.86778 0.37711,-1.82552 0.85616,-2.60333 2.65637,-4.313 0.0762,3.37137 2.45646,-2.77716 1.59871,-4.12967 0.10671,-3.44018 3.7475,-6.10035 0.20526,-0.13715 3.90838,-2.59905 4.00982,-2.71905 0.85701,-1.01394 0.93598,-2.67558 2.0312,-3.42593 10.13954,-6.94684 18.39734,-12.47514 29.52207,-15.4501 0,0 -13.01171,25.88927 -13.01171,25.88927 z"
       inkscape:connector-curvature="0" />
    <path
       style="opacity:0.86029412;fill:#000000;fill-opacity:1;stroke:none"
       id="path3809"
       d="m 316.38502,248.71353 c 2.34089,0.76429 4.58849,0.92654 6.86098,-0.10073 0.41792,-0.18892 0.72222,-0.65049 1.17653,-0.71336 0.81303,-0.11252 1.63486,0.14869 2.45327,0.21101 1.00746,0.0767 2.01607,0.13738 3.0241,0.20607 4.46155,0.58698 8.91197,-0.37054 13.36141,-0.15675 3.91215,0.10685 7.83126,-0.0732 11.74284,0.0685 2.27153,-0.12356 4.52462,-0.32657 6.80072,-0.28348 0,0 -16.39394,25.24446 -16.39394,25.24446 l 0,0 c -2.15838,0.04 -4.29134,-0.14393 -6.44428,-0.28033 -3.91456,0.1301 -7.8332,-0.0699 -11.74834,0.0862 -4.25361,0.22614 -8.43098,-0.85726 -12.69622,-0.33827 -0.92814,0.12247 -1.86213,0.20671 -2.78441,0.36742 -0.80326,0.13996 -1.57221,0.50744 -2.38715,0.53371 -0.69541,0.0224 -1.3676,-0.2571 -2.05043,-0.39067 -3.12268,-0.61085 -6.10796,-1.62897 -9.27376,-2.0369 0,0 18.35868,-22.41691 18.35868,-22.41691 z"
       inkscape:connector-curvature="0" />
    <path
       style="opacity:0.86029412;fill:#000000;fill-opacity:1;stroke:none"
       id="path3811"
       d="m 412.30478,252.70986 c -0.15531,1.76705 -0.42054,3.52786 -0.46593,5.30114 -0.14118,5.51658 0.60674,5.93968 0.63451,11.84668 0.0356,7.56922 -0.84613,14.17201 -1.46716,21.79279 -0.40791,5.0055 -0.7586,10.01551 -1.1379,15.02326 -0.42038,11.7356 -1.02859,18.48673 -0.10278,30.02551 0.26383,3.28817 0.92048,6.53344 1.44884,9.78959 0.69358,4.27428 1.33517,8.70714 2.97405,12.74102 0.1173,0.42288 0.30647,0.83215 0.3519,1.26864 0.0849,0.81577 -0.24463,3.09237 -0.30247,3.71652 -0.262,2.8269 -0.29599,5.62977 -0.27969,8.46614 0.32173,2.90393 0.66006,5.84955 0.6258,8.78147 -0.0191,0.53717 0.5577,4.4804 -0.84264,5.59397 -0.21462,0.17066 -0.61924,-0.13175 -0.82082,0.0541 -0.64697,0.59655 -0.0828,2.32809 0.0524,2.97917 0.37378,1.46272 0.40659,2.95427 0.39689,4.45149 0,0 -28.95685,8.1057 -28.95685,8.1057 l 0,0 c 0.0605,-0.83042 0.19894,-1.61315 0.31633,-2.43557 -0.23128,-3.50728 -1.04922,-7.20701 -0.76878,-10.71487 0.0423,-0.52939 0.0974,-1.62502 0.60639,-1.47334 0.73181,0.21809 0.75481,1.32765 1.13221,1.99148 -0.0341,-3.0498 0.32715,-6.10874 0.62139,-9.13504 0.009,-2.3498 0.0461,-3.4014 -0.0759,-5.75266 -0.10053,-1.93809 -0.68075,-4.16238 -0.46089,-6.1105 0.0523,-0.46315 0.2346,-0.90217 0.3519,-1.35326 1.47487,-4.72763 2.07387,-9.67406 2.77236,-14.56704 0.50872,-3.5636 1.15258,-7.11404 1.44884,-10.70155 0.98005,-11.86748 0.57135,-18.11891 0.38126,-30.15712 -0.77426,-13.62176 -0.55937,-13.18955 -1.91849,-25.74281 -0.19798,-1.82865 -1.48135,-11.94965 -1.86139,-14.42425 -0.3268,-2.12796 -0.80263,-4.23226 -1.09492,-6.36524 -0.22839,-1.66664 -0.31062,-3.35007 -0.46593,-5.0251 0,0 26.90743,-7.97035 26.90743,-7.97035 z"
       inkscape:connector-curvature="0" />
    <path
       style="opacity:0.86029412;fill:#000000;fill-opacity:1;stroke:none"
       id="path3813"
       d="m 409.32119,257.74899 c 4.27003,1.12954 8.90189,1.38252 13.29862,0.91813 1.79574,-0.18967 3.53676,-0.74666 5.32617,-0.98892 2.855,-0.38651 11.79671,-1.01993 14.32703,-1.21266 7.7313,-1.57697 14.65164,-5.33551 22.00217,-8.01502 2.92867,-1.0676 4.07528,-1.86877 7.14625,-0.9873 1.09522,0.31437 2.02879,1.03797 3.04318,1.55695 0.46676,0.31055 0.8519,1.04823 1.40027,0.93166 0.41272,-0.0877 -0.24574,-1.25232 -0.63683,-1.09395 -8.20269,3.32158 -16.07357,7.41001 -24.11036,11.11501 0,0 30.36336,0.25113 30.36336,0.25113 l 0,0 c -33.63908,16.62051 -16.46907,17.02223 -27.39934,10.9589 -0.0708,-0.0393 0.0596,0.15051 0.0893,0.22576 0.38245,0.28369 0.87949,0.45737 1.14735,0.85106 0.0882,0.12969 -0.21847,0.26331 -0.37368,0.28604 -0.83368,0.12214 -1.68573,0.0528 -2.52395,0.13845 -1.44187,0.14735 -2.89569,0.25184 -4.3119,0.56012 -6.11215,1.3305 -12.00583,3.56578 -18.13717,4.8167 -7.25669,1.30472 -14.58053,2.82739 -21.97446,3.12289 -5.69501,0.2276 -11.37077,-0.62431 -17.03471,-1.01804 0,0 18.35868,-22.41691 18.35868,-22.41691 z"
       inkscape:connector-curvature="0" />
    <path
       style="opacity:0.86029412;fill:#000000;fill-opacity:1;stroke:none"
       id="path3815"
       d="m 406.6477,314.09792 c 1.13054,-0.0979 2.32743,0.10035 3.39162,-0.29359 4.70684,-1.74239 -1.79687,-2.06198 4.53206,-2.16701 1.16681,-0.0194 2.32343,0.67451 3.47054,0.46013 0.47051,-0.0879 0.47923,-0.82872 0.71884,-1.24308 1.03234,0.0647 2.06468,0.12937 3.09703,0.19405 3.99288,0.1541 7.92053,1.00306 11.90163,1.27352 3.24025,0.22014 6.51238,-0.16006 9.74132,0.18868 1.93871,0.20939 3.83179,0.72603 5.74768,1.08904 5.34496,0.81728 11.00187,1.01762 16.23818,-0.61155 0.87868,-0.27338 1.68597,-0.74368 2.55664,-1.04159 1.12445,0.32846 2.22174,0.5743 3.38574,0.67271 0,0 -16.7295,24.97683 -16.7295,24.97683 l 0,0 c -0.37956,0.004 -2.07099,-0.27536 -2.1089,0.51136 -3.03793,-0.87253 -6.12798,-0.96478 -9.25609,-1.37045 -1.57163,-0.20381 -3.1319,-0.48941 -4.70322,-0.6956 -1.7664,-0.23179 -3.53917,-0.41214 -5.30876,-0.61821 -7.79259,-0.30107 -1.62511,-0.11904 -9.87347,-0.19581 -5.22617,-0.0487 -10.57616,-0.25433 -15.65789,1.19408 -4.79072,2.32057 1.01404,-0.0483 -4.8969,0.7258 -0.43213,0.0566 -0.66469,0.57395 -1.04719,0.78283 -0.54541,0.29783 -1.10823,0.60126 -1.7169,0.72656 -8.58546,1.76742 1.47654,-1.26499 -6.49417,1.33056 0,0 13.01171,-25.88926 13.01171,-25.88926 z"
       inkscape:connector-curvature="0" />
    <path
       style="opacity:0.86029412;fill:#000000;fill-opacity:1;stroke:none"
       id="path3817"
       d="m 401.48458,382.50927 c 3.9027,-1.31283 8.13697,-2.49748 12.30518,-1.67805 4.00515,0.78737 6.66266,2.66995 10.32433,4.26776 1.74917,0.76328 3.55419,1.3916 5.33128,2.08739 2.2042,0.91076 4.35743,1.95626 6.6126,2.73227 5.8157,2.00121 10.26495,2.62316 16.39233,3.86214 1.11705,0.22587 23.21294,4.74293 23.95282,4.86686 3.21309,0.53817 6.46682,0.79654 9.70024,1.19481 1.9957,0.24043 3.99141,0.48087 5.98712,0.72131 0.85281,-0.21193 1.67997,-0.61379 2.55844,-0.63577 0.77202,-0.0193 1.49235,0.42033 2.25875,0.51521 0.17844,0.0221 0.62092,-0.0299 0.51113,-0.17231 -1.53679,-1.99318 -3.17073,-1.82748 -1.22981,-1.81161 0.5483,0.0881 1.0966,0.17625 1.6449,0.26437 0,0 -15.49168,25.66445 -15.49168,25.66445 l 0,0 c -0.33575,0.15283 -0.6715,0.30567 -1.00725,0.4585 -2.03817,0.53262 -1.00474,0.5149 -4.01306,-1.42085 -0.21533,-0.13855 -0.11991,-0.55348 -0.33607,-0.69073 -6.71278,-4.26243 0.82889,1.24969 -6.13705,-4.05907 -2.5751,-0.97991 -5.05687,-2.25355 -7.7253,-2.93972 -11.75704,-3.02329 -23.88984,-2.56457 -35.77398,-4.59421 -2.801,-0.47837 -5.519,-1.35715 -8.26562,-2.08548 -2.32255,-0.61588 -4.62706,-1.29788 -6.94059,-1.94682 -1.18164,-0.30521 -8.28025,-2.25921 -10.35144,-2.44294 -4.16008,-0.36902 -9.37462,2.90112 -13.31898,3.73175 0,0 13.01171,-25.88926 13.01171,-25.88926 z"
       inkscape:connector-curvature="0" />
  </g>
</svg>
