<?xml version="1.0" encoding="UTF-8" standalone="no"?>
<!-- Created with Inkscape (http://www.inkscape.org/) -->

<svg
   xmlns:dc="http://purl.org/dc/elements/1.1/"
   xmlns:cc="http://creativecommons.org/ns#"
   xmlns:rdf="http://www.w3.org/1999/02/22-rdf-syntax-ns#"
   xmlns:svg="http://www.w3.org/2000/svg"
   xmlns="http://www.w3.org/2000/svg"
   xmlns:sodipodi="http://sodipodi.sourceforge.net/DTD/sodipodi-0.dtd"
   xmlns:inkscape="http://www.inkscape.org/namespaces/inkscape"
   width="640px"
   height="480px"
   id="svg2985"
   version="1.1"
   inkscape:version="0.48.2 r9819"
   sodipodi:docname="youwin.svg">
  <defs
     id="defs2987" />
  <sodipodi:namedview
     id="base"
     pagecolor="#ffffff"
     bordercolor="#666666"
     borderopacity="1.0"
     inkscape:pageopacity="0.0"
     inkscape:pageshadow="2"
     inkscape:zoom="0.77472527"
     inkscape:cx="154.19935"
     inkscape:cy="240"
     inkscape:current-layer="layer1"
     inkscape:document-units="px"
     showgrid="false"
     inkscape:window-width="1366"
     inkscape:window-height="688"
     inkscape:window-x="-1"
     inkscape:window-y="25"
     inkscape:window-maximized="1" />
  <metadata
     id="metadata2990">
    <rdf:RDF>
      <cc:Work
         rdf:about="">
        <dc:format>image/svg+xml</dc:format>
        <dc:type
           rdf:resource="http://purl.org/dc/dcmitype/StillImage" />
        <dc:title />
      </cc:Work>
    </rdf:RDF>
  </metadata>
  <g
     id="layer1"
     inkscape:label="Layer 1"
     inkscape:groupmode="layer">
    <path
       style="opacity:0.86029412;fill:#000000;fill-opacity:1;stroke:none"
       id="path3771"
       d="m 70.315446,39.583148 c 1.502495,1.815806 2.73644,3.583943 4.702765,4.943222 0.505348,0.349336 1.251701,0.276297 1.711503,0.683722 1.114941,0.987936 2.068357,2.164607 2.898745,3.401363 2.310317,3.440922 7.757333,14.506673 8.891854,16.728487 3.037139,5.108621 5.999576,10.2624 9.111418,15.325864 4.034519,6.564804 7.975419,13.196203 12.325879,19.556044 9.61817,14.06058 18.07818,24.66519 29.39978,37.22064 4.80743,5.33135 15.47916,15.86752 21.10503,21.47741 4.08903,3.03597 7.12129,7.18957 10.9057,10.5426 8.17019,7.23888 26.27001,-0.3342 -18.36484,22.29091 -2.8009,1.41975 -4.27384,-4.60189 -6.41076,-6.90283 0,0 26.57045,-14.59805 26.57045,-14.59805 l 0,0 c -12.65824,-12.06135 -3.01841,-6.44007 -25.18727,15.1229 -0.4747,0.46173 0.6309,-1.26561 0.51755,-1.91806 -0.74824,-4.30695 -4.20009,-9.30309 -6.12654,-12.70152 -4.95336,-8.98026 -9.07499,-16.78216 -14.81496,-25.49488 C 116.78479,128.91777 111.67792,122.83732 98.584059,107.6567 84.07663,90.837219 84.575276,91.833019 70.084298,77.434876 67.123714,74.718425 64.196001,71.965708 61.202547,69.285522 58.254384,66.645889 54.929952,64.41604 52.123634,61.622561 51.373702,60.876061 50.76893,59.990378 50.002429,59.2609 c -0.897218,-0.853879 -1.904588,-1.583979 -2.856881,-2.375968 0,0 23.169898,-17.301784 23.169898,-17.301784 z"
       inkscape:connector-curvature="0" />
    <path
       style="opacity:0.86029412;fill:#000000;fill-opacity:1;stroke:none"
       id="path3773"
       d="m 187.30275,51.07156 c -0.3901,1.67429 -0.8384,3.336076 -1.1703,5.022868 -1.26922,6.45046 -0.43598,4.659392 -2.15345,11.053137 -2.90846,10.82745 -7.20061,21.276583 -11.21104,31.712709 -2.68592,6.721306 -5.63538,13.343196 -8.05776,20.163906 -2.41357,6.7959 -4.3325,13.75766 -6.43907,20.6549 -3.0511,9.98975 -7.42106,24.7946 -10.31611,35.14957 -6.51458,23.30129 -0.60475,3.48971 -7.04235,24.59779 -4.58331,14.65465 -11.93899,28.5036 -14.24204,43.8433 -0.80724,5.37669 -0.30121,7.34495 0.28318,12.3031 0.40668,0.32414 1.59018,0.60709 1.22005,0.97242 -6.67742,6.59105 -12.5959,14.656 -21.09016,18.64066 -2.54881,1.19565 -3.95232,-4.01338 -6.02129,-5.92267 -0.18058,-0.16664 -0.50939,-0.0977 -0.68682,-0.26773 -0.78009,-0.74736 -1.424293,-1.62472 -2.136438,-2.43708 0,0 24.483968,-16.94105 24.483968,-16.94105 l 0,0 c 0.79277,0.65557 3.03457,2.7589 2.37831,1.96671 -1.15312,-1.39197 -2.36993,-4.68354 -3.91747,-3.74952 -7.89567,4.76547 -13.17426,12.98934 -20.55444,18.51964 -0.980734,0.73492 0.44362,-2.41059 0.66543,-3.61589 0.48143,-3.11049 2.04712,-13.4861 2.59498,-15.65036 0.89238,-3.52522 2.22931,-6.92276 3.35978,-10.37899 3.78933,-11.58523 7.64059,-23.15447 11.94999,-34.55918 10.37297,-22.81634 -0.30917,1.05361 10.72604,-24.9359 2.2771,-5.3629 4.87783,-10.58994 6.99985,-16.01607 7.46685,-19.09317 12.8214,-38.9255 16.71248,-59.03683 0.65791,-4.750214 1.40283,-9.489186 1.97374,-14.250639 0.72797,-6.071422 0.65301,-10.209014 1.82054,-15.994102 0.88947,-4.407282 1.85378,-5.118179 2.36428,-9.599344 0.20015,-1.756884 0.0803,-3.535583 0.12048,-5.303374 0,0 27.38564,-5.941981 27.38564,-5.941981 z"
       inkscape:connector-curvature="0" />
    <path
       style="opacity:0.86029412;fill:#000000;fill-opacity:1;stroke:none"
       id="path3775"
       d="m 213.28195,198.6588 c -2.21403,-3.61974 -6.04085,-5.68029 -8.94644,-8.60162 -3.19689,-3.21419 -5.92332,-7.06311 -8.41128,-10.82759 -3.41717,-6.59559 -3.93018,-14.02688 -5.94322,-21.04006 -0.71663,-2.49664 -1.53551,-4.48605 -2.45912,-6.89597 -2.38373,-6.89879 -1.53516,-14.18653 -1.35709,-21.32095 0.37275,-1.35518 0.45512,-2.8263 1.11826,-4.06553 0.3313,-0.61911 1.17941,-0.76951 1.71321,-1.2257 2.01679,-1.72358 3.6116,-3.97871 5.38483,-5.94139 1.76909,-1.44874 3.0804,-3.44286 4.76747,-4.95272 0.5799,-0.51898 1.31451,-0.83394 1.95766,-1.27209 11.0716,-7.54266 -13.31331,6.94373 24.45454,-13.840653 0.96125,-0.3951 1.89185,-0.875087 2.88376,-1.185302 1.22823,-0.384125 2.55848,-0.421114 3.75638,-0.891377 7.99309,-3.137876 -1.95239,-0.790521 7.59817,-3.683934 2.16076,-0.65462 6.09915,-1.083714 8.42394,-1.384784 3.69374,0.117565 7.34566,0.799469 11.03535,0.959405 2.21467,0.096 4.43894,-0.173818 6.64684,-0.302997 0.83169,-0.01599 1.68495,-0.236783 2.49508,-0.04796 5.47675,1.276534 12.85629,6.187862 17.41337,9.631528 3.83869,3.12784 4.78295,8.14535 7.82402,11.86807 3.08525,4.4328 4.76519,9.4796 5.3616,14.84077 0.33301,2.99344 0.24482,6.01895 0.39829,9.02694 0.59282,4.06642 2.79843,10.90501 0.85787,14.70422 -0.28728,0.56243 -0.82753,0.95426 -1.2413,1.43139 -0.45742,0.76699 -0.91485,1.53398 -1.37227,2.30096 -0.32881,0.0772 -0.77745,-0.0337 -0.98641,0.23161 -1.09294,1.38783 -2.24525,5.64228 -2.62781,6.88972 -2.43274,7.93276 -0.25403,1.41202 -3.1383,9.71395 -1.47803,1.8271 -1.72642,4.36218 -3.05063,6.27364 -0.26121,0.37705 -0.78677,0.48147 -1.12855,0.7874 -0.3749,0.33557 -0.70789,0.71983 -1.00717,1.12429 -0.71651,0.96831 -1.02226,2.33376 -2.03465,2.98651 -7.17258,4.62457 -14.83192,8.44656 -22.24789,12.66985 -7.10722,-0.2476 -1.66014,-0.23378 -8.0196,0.16122 -1.29928,0.0807 -2.61447,-0.0353 -3.90228,0.15492 -1.04886,0.15497 -2.01167,0.70509 -3.05846,0.87351 -9.5821,1.54175 1.12052,-1.15422 -7.55408,1.23529 -7.56842,1.07408 -15.10522,-0.38104 -22.68245,-0.56178 -3.23885,-0.35713 -6.30835,0.49747 -9.46484,0.96873 0,0 15.87329,-24.88384 15.87329,-24.88384 l 0,0 c 2.94383,0.411 5.74786,1.19056 8.77954,0.73517 2.93611,-0.0122 5.87292,-0.12291 8.80824,-0.0536 0.88279,0.0208 1.75878,0.19025 2.64179,0.19673 3.0447,0.0224 6.11817,-0.42008 9.06739,-1.13129 1.4598,-0.21859 2.91959,-0.43718 4.37938,-0.65577 1.17727,-0.24038 2.34419,-0.53861 3.5318,-0.72114 3.38291,-0.51992 7.42129,-0.43658 10.61296,-1.90785 0.59545,-0.27449 0.95429,-0.89942 1.43143,-1.34913 -5.75923,3.40656 -11.73434,6.47205 -17.27768,10.21968 -0.42225,0.28547 0.98092,0.67418 1.45195,0.47948 1.41101,-0.58325 1.40889,-2.84126 2.64189,-3.74171 0.56299,-0.41115 1.43561,-0.0701 2.05454,-0.39094 0.90024,-0.46663 1.58171,-1.26921 2.37257,-1.90382 0.78961,-0.74572 1.83986,-1.2886 2.36885,-2.23716 1.67813,-3.00911 1.84994,-8.6556 2.21953,-12.04502 0.15215,-1.39541 0.13728,-2.84036 0.58765,-4.16982 0.17809,-0.52573 0.80787,-0.76143 1.21181,-1.14214 0.25959,-0.60503 0.34766,-1.3175 0.77877,-1.81508 0.87429,-1.00909 2.17874,1.2545 2.3702,1.20483 0.3681,-0.0955 0.51861,-7.4794 0.39301,-7.85542 -0.14637,-1.57044 -0.40157,-3.13452 -0.4391,-4.71131 -0.0605,-2.54346 0.65735,-3.60758 -0.0153,-6.04065 -0.63231,-2.2871 -2.35203,-4.25701 -3.55879,-6.23891 -1.96526,-3.01687 -4.03858,-5.97918 -5.89852,-9.05422 -1.98798,-2.02591 -4.98587,-3.93763 -7.93944,-3.96702 -1.66452,-0.0166 -3.25811,0.99516 -4.97148,0.47172 -2.71817,-0.0519 -2.5591,0.0157 -5.25255,-0.29173 -3.41632,-0.38989 -6.75992,-1.12508 -10.11346,0.14469 -3.8089,1.0593 -5.74212,2.21055 -9.38392,3.90537 -3.45777,1.60918 -6.96099,3.02917 -10.20934,5.06101 5.60611,-3.16578 11.25949,-6.24924 16.81832,-9.49732 0.65692,-0.38385 -1.43382,0.52739 -2.09903,0.89668 -0.68968,0.38286 -1.21086,1.0593 -1.94486,1.34823 -0.49007,0.19291 -1.10132,-0.18158 -1.57953,0.0391 -1.0462,0.48276 -1.36929,1.98684 -2.46172,2.42655 -1.99782,1.74571 -4.08973,3.42588 -5.72766,5.53509 -0.48941,0.63022 -0.55526,1.91875 -1.35114,1.97604 -0.73726,0.0531 -0.87805,-1.18932 -1.31707,-1.78398 -0.41132,-0.089 -1.01503,-0.62653 -1.23396,-0.26712 -0.46193,0.75837 -0.0851,1.77719 -0.2204,2.6548 -0.54018,3.50353 -2.21788,6.79228 -1.25654,10.42645 1.33132,4.02086 1.53524,4.31142 2.48215,8.55306 0.99179,4.44272 1.47343,9.10426 2.86782,13.45216 0.34288,1.06917 0.87568,2.06784 1.31351,3.10175 0.6483,0.89108 3.67948,5.07855 4.37766,5.95432 3.83498,4.81044 8.77113,8.55791 13.27703,12.69448 0,0 -23.91837,15.58711 -23.91837,15.58711 z"
       inkscape:connector-curvature="0" />
    <path
       style="opacity:0.86029412;fill:#000000;fill-opacity:1;stroke:none"
       id="path3777"
       d="m 363.41536,74.715125 c -0.40396,1.154273 -0.92647,2.273673 -1.2119,3.462819 -0.93021,3.875506 -0.4171,8.033712 -1.11548,11.958828 -0.68314,3.839478 -2.65395,10.474628 -3.65283,14.040068 -0.74451,3.00333 -1.50037,6.00386 -2.23352,9.00999 -2.87268,11.77892 -2.06633,7.19538 -3.41031,17.4723 -0.21838,1.6699 -0.45882,3.33738 -0.63678,5.01207 -0.11675,1.09871 -0.0347,2.22117 -0.24707,3.30546 -0.15923,0.81286 -0.57154,1.5549 -0.85731,2.33235 0.9002,2.0923 -1.43403,1.79699 -1.91813,2.82806 -1.08399,2.30873 -1.28852,4.81848 -1.31509,7.30076 -0.0582,2.03929 0.0334,4.39024 -0.46149,6.43966 -0.10321,0.42741 -0.38847,0.79303 -0.5172,1.21346 -0.40033,1.30741 -0.22207,2.7557 -0.0746,4.07539 -0.0871,-0.33991 -0.39481,-1.34421 -0.26127,-1.01973 1.37168,3.33283 2.4184,6.75342 3.95538,10.02785 1.07291,4.01935 3.19818,7.6488 5.02742,11.38535 0.11871,-0.26682 2.15887,5.52725 3.47331,4.53859 0.2309,-0.17367 -0.0381,-0.83258 0.25078,-0.82968 1.09108,0.0109 3.70687,2.25405 4.2061,2.63155 0.70265,0.73446 1.19607,1.75432 2.10794,2.20337 0.34252,0.16867 0.0249,-0.76322 0.042,-1.14464 0.0508,-1.1357 -0.25729,-1.74197 1.16232,-2.12056 1.18134,-0.31505 4.52799,-0.14527 5.5711,-0.12302 13.60336,0.0134 5.28645,-0.93886 -16.97239,9.48114 -0.39801,0.18633 0.68909,0.81723 1.11402,0.7051 0.63284,-0.16699 0.93761,-0.91344 1.40641,-1.37016 0.23165,-0.008 0.52872,0.13764 0.69495,-0.0239 0.82728,-0.8039 1.86161,-3.80366 2.15983,-4.45922 1.83049,-4.02395 2.00905,-3.6428 3.88116,-8.29169 0.95328,-2.3672 1.76113,-4.7904 2.6417,-7.1856 0.73703,-2.43019 1.47363,-4.8605 2.2111,-7.29055 1.48723,-4.90061 3.3921,-11.3049 5.03033,-16.14197 3.28621,-9.7029 4.96157,-13.23793 7.9878,-23.55866 1.3079,-4.4605 2.33839,-8.99771 3.50759,-13.49656 3.8819,-15.32698 4.57129,-31.254393 8.37364,-46.578226 5.01839,-11.007076 0.93763,-3.777639 24.51322,-15.614993 0.44403,-0.222943 1.85557,-0.260101 1.48867,0.07492 -7.12326,6.50427 -17.21421,10.38266 -22.0696,18.717614 -1.70595,2.928494 4.4816,5.085326 6.7224,7.627989 0,0 13.54241,-27.466067 13.54241,-27.466067 l 0,0 c 2.54483,2.461148 9.26535,4.241192 7.6345,7.383445 -4.5156,8.700461 -14.56854,13.120497 -21.74294,19.800069 -0.0855,0.07957 0.21651,0.205465 0.31779,0.147362 6.73098,-3.861409 13.52264,-7.633593 20.04914,-11.83139 0.61827,-0.39767 -1.45291,0.225114 -2.17936,0.337671 -0.90984,0.44226 -2.10452,0.531306 -2.72951,1.32678 -0.80185,1.020586 -4.46853,10.913363 -4.60127,11.335497 -0.90375,2.874066 -1.4496,5.851667 -2.33071,8.732754 -9.51276,31.105134 3.26147,-13.970299 -6.82664,22.336584 -3.06769,13.38114 -3.19219,13.14168 -5.54098,26.37013 -0.63083,3.55287 -0.93773,7.1664 -1.7393,10.68468 -0.60903,2.67316 -1.70824,5.21135 -2.48155,7.84168 -1.78595,6.07471 -2.43473,9.15332 -3.89141,15.27842 -3.9897,17.48562 0.52598,-3.48497 -2.14546,12.5038 -0.81404,4.87211 -0.73847,2.02939 -1.78939,5.8382 -0.23704,0.85911 -0.32003,1.75377 -0.5078,2.62498 -0.23388,1.08518 -0.5046,2.16209 -0.7569,3.24314 -0.37499,0.63024 -0.84091,1.21461 -1.12496,1.89073 -0.44377,1.05627 -0.0379,2.72816 -1.04503,3.27438 -23.66926,12.83747 -16.17266,10.5092 -27.80048,10.43251 -0.18962,0.0331 -5.05213,0.88433 -5.14792,0.88796 -4.36776,0.16576 -7.55328,-2.05403 -10.78733,-4.75907 -2.39478,-1.09408 -4.35183,-2.04125 -6.33499,-3.99546 -2.2121,-2.1798 -2.94836,-5.47555 -4.5217,-8.0518 -0.49172,-0.83877 -0.9499,-1.69814 -1.47518,-2.51632 -1.54469,-2.40603 -3.42026,-4.36954 -4.46556,-7.08818 -0.13498,-0.35105 -0.0103,-0.76658 -0.14006,-1.1196 -0.27791,-0.7562 -0.71214,-1.4454 -1.06821,-2.1681 -0.1923,-2.4074 0.12632,0.20601 -1.13849,-3.7049 -0.0864,-0.26706 0.0456,-0.58128 -0.0642,-0.83957 -1.06321,-2.50049 -2.80371,-4.80661 -3.49505,-7.47726 -0.13682,-2.85637 -1.52165,-9.20475 0.34745,-11.40734 0.20427,-0.24072 0.56097,-0.28983 0.84146,-0.43475 -0.34676,-2.95317 -0.39327,-5.94497 -0.009,-8.9095 0.11061,-0.85297 0.44943,-1.6648 0.57196,-2.51614 0.18922,-1.31473 0.0394,-2.67974 0.36131,-3.96841 0.1821,-0.72892 0.74596,-1.30442 1.11894,-1.95663 0.43357,-0.59401 0.79296,-1.25002 1.30071,-1.78201 0.65797,-0.68937 1.62973,-1.07481 2.17314,-1.85766 1.0311,-1.48543 1.7217,-3.18363 2.46917,-4.83013 1.06718,-2.35076 2.25631,-4.67174 2.97067,-7.15259 1.68847,-5.8637 2.17956,-12.60729 2.84117,-18.64172 0.31103,-2.41068 0.60888,-4.8231 0.93308,-7.23205 0.176,-1.30778 1.092,-7.211349 1.15296,-8.996003 0.0499,-1.459711 -0.14869,-2.91912 -0.13476,-4.379616 0.0276,-2.888604 0.44719,-5.766425 0.29723,-8.661109 0,0 28.51866,-5.122937 28.51866,-5.122937 z"
       inkscape:connector-curvature="0" />
    <path
       style="opacity:0.86029412;fill:#000000;fill-opacity:1;stroke:none"
       id="path3779"
       d="m 84.514027,295.15762 c 6.124296,5.34421 9.979628,12.40097 13.940112,19.34933 5.155331,9.04463 4.888531,8.42061 10.841911,18.14429 8.64455,11.41219 16.4711,23.52205 25.91972,34.31557 3.42917,3.91728 7.79827,7.00539 10.8972,11.18879 0.98891,1.33497 1.57912,2.92348 2.36868,4.38521 0.85158,2.07861 2.25928,5.95646 3.67572,7.92283 0.32043,0.44483 0.89619,0.63252 1.3275,0.97092 0.39216,0.30769 0.64434,1.00402 1.14136,0.96614 0.36116,-0.0275 -0.15139,-0.7286 -0.35844,-1.0258 -0.82114,-1.1786 -1.79838,-2.24039 -2.69757,-3.36059 4.29636,3.00527 6.73836,7.23128 7.56982,12.38369 0.13734,0.85106 0.98812,2.27503 0.18173,2.57982 -9.27798,3.50676 -19.07548,5.4442 -28.61322,8.1663 -0.47903,-4.52547 -0.44045,-9.33017 0.38807,-13.83079 0.48825,-2.65226 1.51171,-5.17748 2.27383,-7.76438 1.74781,-6.47749 3.85459,-12.86754 5.29909,-19.42591 0.72141,-3.27538 2.21093,-12.7203 2.98756,-15.78728 0.93659,-3.69867 2.18342,-7.31179 3.27512,-10.96768 4.24482,-10.60151 5.05789,-21.92512 6.37158,-33.1218 2.08855,4.59695 -0.68793,-5.98142 0.44747,-4.83017 0.46832,0.47487 0.12955,1.33356 0.301,1.9781 0.13634,0.51256 0.62305,1.99761 0.61548,1.46729 -0.23343,-16.35846 -9.74164,-3.60543 27.39381,-14.37743 0.61044,1.61606 1.37608,3.18174 1.83133,4.84818 0.66216,2.42386 0.57906,6.84773 0.0574,9.43441 -0.85725,3.18284 1.52543,5.73516 2.966,8.23981 6.82807,11.87154 -0.89124,-0.55474 7.12917,12.02494 1.56622,2.25307 3.22214,4.44636 4.69864,6.75922 12.28276,19.24029 -2.34904,-2.56635 10.85706,19.27155 5.83734,9.65275 6.55012,9.15571 13.00036,17.92803 1.99574,2.71421 3.83206,5.5421 5.7481,8.31315 1.72315,2.5943 3.34873,5.25611 5.16947,7.78288 1.44902,2.0109 3.1954,3.7971 4.63083,5.81773 7.81607,11.00252 -0.10339,0.75981 6.33694,11.11706 0.96506,1.55199 2.39969,2.75737 3.57358,4.15809 -6.58237,6.79995 -19.92267,10.9375 -19.74711,20.39985 0.14229,7.66927 15.41236,-5.32311 19.91157,-11.5356 2.71115,-3.74353 -6.24875,-17.10727 -1.62312,-9.96164 0,0 -25.07233,16.9871 -25.07233,16.9871 l 0,0 c 0.87374,4.02688 -5.78244,-8.52263 -3.40035,-11.8849 4.68644,-6.6148 18.87415,-20.06812 21.01073,-12.24806 2.41533,8.84028 -12.60179,13.30909 -18.90269,19.96364 0.33942,-0.0687 0.98451,0.13854 1.01826,-0.20612 0.17304,-1.76714 -1.94183,-7.14238 -2.36175,-8.19808 -2.7949,-7.02657 -6.73594,-13.4699 -10.6283,-19.9277 -10.8284,-17.64488 -22.26969,-35.01772 -35.59909,-50.89327 -1.56668,-1.95179 -3.07217,-3.95432 -4.70006,-5.85536 -2.01945,-2.35829 -5.7505,-5.93388 -7.61455,-8.59959 -2.68124,-3.83434 -3.15488,-6.89364 -4.82533,-11.11163 -0.30234,-2.21296 -0.20176,-3.95031 0.37972,-6.10027 0.0621,-0.22966 0.0463,-0.83091 0.22733,-0.67654 0.58305,0.4972 0.83016,1.28819 1.24524,1.93228 9.0226,-3.07806 18.76328,-4.55264 27.06778,-9.23419 1.56343,-0.88137 -1.01227,-3.44385 -1.53035,-5.1622 -0.32156,-1.06653 0.7712,2.10574 0.94077,3.20671 0.57272,3.71849 0.38439,3.53835 -2.38946,3.72425 -0.31905,1.00596 -0.61136,2.0208 -0.95715,3.01788 -0.34861,1.00522 -0.95353,1.93693 -1.12533,2.98692 -0.31126,1.90236 0.21755,3.92019 -0.30826,5.77475 -0.50448,1.77932 -1.83562,3.21198 -2.70284,4.84551 -5.23711,9.8647 -3.32969,5.77241 -6.85402,17.8494 -0.60599,3.24181 -1.31112,6.46664 -1.81797,9.72542 -0.43384,2.78935 -0.59271,5.61613 -1.00257,8.40911 -0.37549,2.5587 -0.96181,5.08309 -1.35255,7.63951 -0.97859,6.40246 -1.57838,12.86965 -2.97948,19.20747 -0.18102,1.44967 -0.36216,2.89932 -0.54305,4.34901 -0.15175,1.21616 -0.12388,2.46847 -0.45489,3.64852 -0.1685,0.60069 -0.86488,0.96877 -1.01046,1.57542 -0.43187,1.79965 0.34131,3.71023 -0.094,5.50822 -9.31063,3.57663 -18.59563,7.22073 -27.9319,10.7299 -0.20498,0.077 0.29334,-0.36261 0.50443,-0.42087 0.18817,-0.0519 0.40345,0.0259 0.57241,0.12367 1.25035,0.72349 0.27535,3.38564 2.78409,3.07141 -1.49668,-1.16642 -3.11604,-2.19054 -4.49004,-3.49925 -4.06128,-3.86832 -0.60782,-0.71665 -1.22384,-2.92862 -0.30349,-1.08977 -0.85905,-2.09349 -1.25406,-3.15352 -2.48684,-6.67359 -0.0429,-0.90992 -3.2118,-7.97999 -0.45416,-1.27445 -1.00762,-2.51776 -1.36248,-3.82335 -0.43696,-1.60761 -0.43229,-3.33169 -1.00727,-4.89525 -1.05973,-2.88174 -2.3282,-5.70327 -3.86725,-8.3601 -7.23652,-12.49229 -17.09253,-23.16623 -26.840921,-33.69241 -2.710666,-3.11699 -5.475369,-6.18778 -8.132,-9.35095 -6.978334,-8.30887 -11.839306,-17.08232 -21.460089,-22.69621 0,0 23.169897,-17.30178 23.169897,-17.30178 z"
       inkscape:connector-curvature="0" />
    <path
       style="opacity:0.86029412;fill:#000000;fill-opacity:1;stroke:none"
       id="path3781"
       d="m 218.72649,416.73168 c 0.81904,-2.09099 2.67203,-6.66592 3.28821,-8.85204 0.589,-2.08965 0.96089,-4.23478 1.4825,-6.34227 0.91856,-3.71131 1.8633,-7.41627 2.83782,-11.11329 5.12583,-19.44557 4.91908,-18.24591 10.91633,-39.06536 4.59598,-17.71372 7.29499,-27.45691 11.23813,-45.19879 2.38177,-11.57889 5.44416,-26.74749 8.0557,-38.39926 8.34328,-37.22484 -0.46421,3.82937 5.69941,-25.17433 0.30247,-2.3888 0.80598,-4.76066 0.90743,-7.16639 0.48912,-11.59886 -15.19148,-13.5093 23.78156,-17.09991 3.84075,-0.35385 3.79623,6.78863 4.888,10.4879 0.47733,1.61736 1.38403,5.05352 -0.3023,5.04996 -10.12023,-0.0214 -19.95133,-3.40922 -29.92699,-5.11382 0.32907,2.83903 -1.86311,8.30716 0.98721,8.51709 9.89875,0.72909 19.53665,-3.65269 29.10242,-6.30087 0.55754,-0.15435 -0.57529,-2.05079 -0.82298,-1.52799 -2.96265,6.25348 1.20231,2.87668 -1.0104,4.54133 0,0 -30.02138,1.47055 -30.02138,1.47055 l 0,0 c 0.20308,-0.54526 0.044,-1.77383 0.60923,-1.63579 0.74465,0.18186 0.81582,2.77037 1.05647,2.04258 0.41456,-1.25373 -1.6651,-3.47177 -0.4297,-3.93811 32.05256,-12.09925 28.46691,-15.81735 30.78923,2.14059 -10.16978,-1.58696 -20.2174,-4.6239 -30.50935,-4.76087 -1.47353,-0.0196 0.0632,3.03822 0.70612,4.36423 1.46051,3.01216 2.18872,8.97705 5.48801,8.41055 62.30129,-10.69729 24.96483,-19.19217 20.13107,-10.96871 -1.52731,2.59836 -2.08417,5.65622 -3.12625,8.48432 -4.24014,8.52122 -8.30493,16.15267 -11.50428,25.24678 -2.12086,6.02852 -3.67914,12.24114 -5.41031,18.39291 -1.91672,6.81111 -3.7126,13.65571 -5.53266,20.49329 -7.46553,28.04645 -4.63088,16.16698 -10.30176,44.83312 -0.99642,6.8003 -2.34276,13.55847 -2.98928,20.40092 -0.50329,5.32654 -0.47914,10.69415 -0.45432,16.04436 0.0168,3.6151 0.55292,7.21492 0.57896,10.82997 0.0158,2.19367 -0.30606,4.37677 -0.45368,6.56553 -0.48016,7.11949 0.10998,3.96182 -1.22951,9.21888 0,0 -28.51866,5.12294 -28.51866,5.12294 z"
       inkscape:connector-curvature="0" />
    <path
       style="opacity:0.86029412;fill:#000000;fill-opacity:1;stroke:none"
       id="path3783"
       d="m 331.14586,296.72931 c -0.96441,3.05947 -1.16127,3.41963 -1.8263,6.79431 -0.13741,0.69725 -0.10909,1.42371 -0.27995,2.11353 -0.10693,0.43171 -0.44387,0.78474 -0.54517,1.21781 -0.65041,2.78049 -1.02111,5.61999 -1.61837,8.41237 -1.96035,10.20336 -2.75676,20.07118 -2.1529,30.48569 0.25915,4.46932 0.96826,8.9014 1.39468,13.35788 1.19187,12.45602 1.04044,11.73786 1.71153,23.66242 0.0713,8.3359 -0.41607,8.95526 1.05307,16.04795 0.21319,1.02922 0.41891,2.09181 0.91891,3.01633 0.13381,0.24742 0.83592,0.47988 0.82004,0.19904 -0.0529,-0.93632 -0.96103,-3.58302 -0.9583,-2.64521 0.007,2.41402 0.64769,4.78443 0.97153,7.17664 -1.80583,14.16139 0.94202,4.38297 -29.34239,8.21821 0,0 26.75782,-14.1122 26.75782,-14.1122 l 0,0 c -29.18218,5.63171 -29.92336,-3.88286 -27.14277,9.10814 0.69612,1.5132 1.17334,3.14781 2.08835,4.53961 0.71605,1.08915 -1.31125,-2.32621 -1.48267,-3.61833 -0.0716,-0.53942 0.60852,-0.91099 0.81499,-1.41444 0.4884,-1.19084 0.90827,-2.41173 1.26178,-3.64934 2.34054,-8.19408 1.66712,-6.63429 2.45477,-16.42323 0.60365,-10.21121 1.04716,-12.67916 0.36025,-23.24937 -0.29003,-4.46298 -0.71826,-8.92327 -1.38857,-13.34514 -0.68617,-4.52651 -1.90847,-8.95801 -2.67653,-13.47135 -0.91783,-5.39344 -1.4888,-11.5909 -2.05792,-17.11299 -0.0484,-1.63602 -0.0967,-3.27203 -0.14511,-4.90805 0.10052,-0.93811 0.29053,-1.87092 0.30156,-2.81434 0.0154,-1.3171 -0.38478,-2.63815 -0.22248,-3.94531 0.29663,-2.38909 3.43185,-5.66679 2.41149,-8.51769 0,0 28.51866,-5.12294 28.51866,-5.12294 z"
       inkscape:connector-curvature="0" />
    <path
       style="opacity:0.86029412;fill:#000000;fill-opacity:1;stroke:none"
       id="path3785"
       d="m 299.40904,289.64676 c -2.25423,0.19513 -5.60665,0.88605 -7.58724,-0.88185 -4.64496,-4.14614 -7.79404,-10.17269 -4.17289,-15.88413 0.18965,-0.0797 0.49494,-0.0473 0.56894,-0.23926 0.22257,-0.57734 0.19171,-1.22419 0.23321,-1.84155 0.15088,-2.24469 0.20531,-4.98415 -0.016,-7.22541 -0.58332,-3.15597 -0.38543,-1.63227 -0.63261,-4.56588 -0.36411,-2.27036 -0.3052,-3.99713 0.19582,-6.41287 -0.36703,-1.07239 0.83789,-1.38224 1.07904,-2.1456 0.28819,-0.91227 0.45298,-1.85902 0.67947,-2.78853 0.73891,-2.51403 1.02051,-4.16581 2.44409,-6.38907 0.12743,-0.19901 0.47835,-0.1238 0.64738,-0.28893 0.31593,-0.30865 0.50642,-0.72378 0.75963,-1.08566 7.12574,-4.88523 13.66976,-10.75226 21.37721,-14.6557 1.36102,-0.68929 2.84052,1.11421 4.26078,1.67132 -0.66425,-0.65977 -1.3285,-1.31955 -1.99275,-1.97932 0.21754,-0.13327 0.87172,-0.53052 0.65263,-0.3998 -51.21494,30.55741 1.47519,-0.82808 2.11822,-1.33956 5.56972,-4.43025 -25.29345,12.84952 -18.55339,10.56466 7.86976,-2.66783 14.66397,-7.82112 21.99595,-11.73167 1.03612,0.23883 2.07005,0.94568 3.10834,0.71651 0.44629,-0.0985 -0.23781,-0.88257 -0.35671,-1.32386 0.48568,-0.11823 0.95719,-0.3539 1.45706,-0.35469 2.00175,-0.003 3.11418,0.70698 5.06258,1.14264 0.72029,0.16106 1.46234,0.20155 2.19351,0.30233 1.05929,0.40752 2.29328,-0.34072 3.35482,0.011 1.24482,0.41241 2.30836,1.26262 3.53471,1.72709 0.79339,0.30049 1.68129,0.27927 2.48444,0.5526 3.23369,1.10051 3.67307,1.66653 6.57091,3.57598 3.88807,3.8743 2.28873,-0.50143 6.0252,4.47167 0.54703,0.72809 0.84893,1.61165 1.25313,2.42772 0.0814,0.1643 0.25741,0.68631 0.20257,0.51136 -0.17133,-0.5465 -0.36821,-1.08466 -0.55232,-1.62698 2.17606,1.92733 3.70947,4.13178 4.68359,6.91377 3.96881,11.33461 -0.84907,-1.01246 0.93475,4.32979 0.62632,4.36644 1.43825,9.01212 0.65584,13.43373 -0.0635,0.35892 -0.43243,0.58689 -0.64864,0.88034 -0.51997,1.12685 -1.42242,3.3879 -2.39642,4.24205 -0.18219,0.15977 -0.57431,-0.45936 -0.68491,-0.24374 -0.22846,0.97179 -0.45692,1.94359 -0.68539,2.91539 -0.0793,-0.49054 0.18226,-1.737 -0.23785,-1.47162 -7.3657,4.65294 -14.22291,10.0659 -21.33437,15.09886 -0.59207,3.72688 -4.49877,-3.89966 -5.81829,-2.28681 -0.44964,0.5496 1.00912,1.17681 0.98932,1.88662 -0.0466,1.67101 -5.15098,0.29731 -5.72394,0.15954 0.32756,0.54665 1.09804,1.01322 0.98267,1.63997 -0.0869,0.4723 -0.88789,0.43543 -1.36783,0.45243 -2.74838,0.0973 -5.29467,-1.36124 -8.00591,-1.59387 -2.38238,0.5259 -4.78539,0.47241 -7.20694,0.39094 -0.97639,-0.34437 -4.44308,0.36489 -5.16115,-0.0171 -4.06465,-2.92466 -2.32405,-1.97054 -4.96516,-3.28746 -6.39562,-9.32013 -0.0163,1.92241 -4.65062,-6.28316 0,0 27.18365,-13.43881 27.18365,-13.43881 l 0,0 c -3.90579,-5.29065 3.4651,4.46433 -1.4236,-1.44351 0.43016,0.21441 1.16251,1.10652 1.29048,0.64324 0.15468,-0.55995 -1.18473,-0.78351 -1.09326,-1.35718 0.02,-0.1253 5.09779,0.23243 5.16821,0.0222 2.76913,-0.10066 5.54238,-0.30473 8.27237,0.34875 0.37503,0.0404 1.65172,0.34383 2.11472,-0.0817 0.58924,-0.54161 -0.27436,-0.87902 0.2434,-1.45871 1.11785,-1.25156 3.67354,-0.12287 4.58807,0.0331 0.28404,-4.79779 11.29683,2.49438 5.57987,-2.70348 -6.6767,4.81845 -12.96776,10.22227 -20.03012,14.45536 -0.81735,0.48991 -0.15148,-2.19122 0.58264,-2.79878 0.46358,-0.38366 0.44529,1.90646 0.92864,1.54804 3.4022,-2.52285 -1.43955,-2.72842 2.9146,-3.68877 1.3588,-2.962 -0.21087,-0.5358 1.77532,0.60499 0.35611,0.20453 0.14586,-0.80885 0.24422,-1.20757 0.24629,-0.99839 0.59932,-1.97396 0.69465,-3.00754 -0.14346,-0.46982 -0.27254,-0.94426 -0.43036,-1.40945 -0.76143,-2.24429 -2.16557,-4.28377 -0.41237,-2.64288 0.25984,0.2432 0.53656,0.48116 0.7274,0.78156 0.0977,0.15378 -0.29221,-0.21765 -0.43831,-0.32648 0.0482,0.0636 0.0964,0.12724 0.14465,0.19085 -3.21289,-3.38826 -2.34935,-2.16608 -4.38391,-5.14468 -0.11421,-0.1672 0.21878,0.34541 0.36469,0.48579 0.45888,0.44149 1.9464,1.6417 1.44226,1.25269 -3.94444,-3.04368 -0.36693,-0.63912 -3.6853,-2.78268 -1.31918,-0.57346 -5.02671,-1.4784 -6.26397,-1.5437 -0.46225,-0.0244 -0.85292,0.40528 -1.3136,0.45035 -0.97541,0.0954 -2.72851,-0.16303 -3.77791,-0.2935 -1.26495,0.0466 -1.90569,-0.21862 -2.81148,0.79971 -0.67589,0.75986 0.73637,1.14689 -1.21916,1.21186 -0.9846,0.0327 -1.9728,-0.58172 -2.93316,-0.36213 -0.3324,0.076 0.26713,0.62747 0.40069,0.9412 6.38399,-3.54139 24.97453,-15.02811 19.15197,-10.62418 -6.56782,4.96762 -13.49504,10.04891 -21.40762,12.33026 -7.11236,2.05064 25.13844,-15.64009 18.92647,-11.61489 -7.06542,4.5782 -14.29499,8.89851 -21.48749,13.27437 -0.26777,0.16291 -0.57316,0.40095 -0.87922,0.33335 -1.20992,-0.26726 -2.32243,-0.8647 -3.48364,-1.29706 7.69199,6.85505 0.74538,1.69009 21.12089,-12.0727 0.39513,-0.26689 -0.61072,0.73693 -0.85762,1.14485 -2.03961,3.36966 -0.35391,1.65183 -3.8553,2.43561 -0.19873,0.39908 -0.50049,0.76182 -0.59619,1.19726 -0.1021,0.46453 -0.14968,3.96396 -0.81175,4.5604 -0.26872,0.24208 -0.5175,-0.83626 -0.84436,-0.68143 -0.76596,0.36282 0.62578,2.26566 -0.42203,2.50736 -0.19786,1.40645 -0.59333,2.78934 -0.67294,4.2074 -0.25409,4.52575 1.40654,8.83005 1.59288,13.32277 -0.43601,1.99569 -0.69653,3.8464 -1.35542,3.6059 -0.80637,-0.29433 -0.90848,-1.46725 -1.48143,-2.10647 -5.14505,-5.74017 -6.84602,-4.62932 -1.82399,-6.16435 0,0 -13.01171,25.88927 -13.01171,25.88927 z"
       inkscape:connector-curvature="0" />
    <path
       style="opacity:0.86029412;fill:#000000;fill-opacity:1;stroke:none"
       id="path3787"
       d="m 411.91775,269.75213 c -1.98739,3.1046 -4.17821,6.27764 -5.15139,9.89205 -0.46874,1.74094 -0.46758,3.38165 -1.04229,5.11828 -0.35687,1.0784 -0.91623,2.07888 -1.37435,3.11832 -1.11648,2.39477 -2.64653,5.42843 -3.31741,7.97153 -0.58662,2.22366 -0.82583,4.52549 -1.30995,6.77369 -0.61994,2.87892 -1.27874,5.7502 -2.00166,8.605 -4.16645,16.45344 -1.79571,4.30021 -4.51441,20.58999 -1.03844,12.25077 -0.45412,3.8752 -0.91262,13.9014 -0.0615,1.34533 0.0989,2.72681 -0.22546,4.03391 -0.64688,2.60714 -2.86214,6.29091 -3.91886,8.78527 -0.3263,0.77023 -0.50852,1.59384 -0.76277,2.39076 -0.26665,1.92862 0.54568,3.73848 0.46026,5.71696 -0.0668,1.5468 -0.38543,3.08274 -0.79136,4.57682 -0.30861,1.1359 -1.02557,2.12683 -1.39085,3.24579 -0.0431,0.0797 -0.26852,-0.91351 -0.24051,-0.67599 0.20477,1.73686 0.66288,3.45159 0.69717,5.20015 0.0104,0.53079 -0.37211,0.99448 -0.56601,1.4887 -0.34936,0.89044 -0.55541,1.85484 -1.0637,2.66513 -0.13189,0.21027 -0.48141,0.12114 -0.72211,0.1817 0.42398,1.06006 -0.7901,-1.59325 -0.80084,-1.13134 -0.0303,1.30545 0.28339,2.6048 0.24177,3.90993 1.77355,1.89757 -0.64757,1.25085 -0.82133,1.92719 -0.26511,1.03194 -0.32459,2.10603 -0.48689,3.15905 -1.39087,3.25755 -0.2297,2.74138 -2.05006,3.21405 0,0 -29.80157,0.78471 -29.80157,0.78471 l 0,0 c 1.08359,-2.75746 0.14459,-2.71033 2.03343,-1.95466 3.03508,2.09173 -0.35917,-3.03299 1.51984,-2.56211 0.5432,0.13612 0.90049,1.85834 1.04321,1.31683 0.55848,-2.11899 -2.15207,-4.34639 -0.62645,-6.54413 1.69849,-6.16055 -0.48424,-1.51649 1.59272,-2.40578 0.27204,-0.11648 0.32176,-0.96047 0.50638,-0.7292 0.74583,0.93428 0.63436,2.43841 1.5088,3.25358 1.35226,1.26062 -3.30198,-7.20276 -0.84683,-5.48112 0.1761,-0.98767 0.78112,-5.02745 1.39932,-5.91194 0.41318,-0.59115 2.06099,0.0529 2.05791,-0.6683 -0.005,-1.23654 -0.52046,-2.41773 -0.78069,-3.62659 -0.006,-1.47504 -0.0117,-2.95009 -0.0175,-4.42513 1.30223,-4.7185 0.89101,-4.11918 3.05326,-8.46855 0.52038,-1.04674 1.09279,-2.0686 1.70393,-3.06508 0.6391,-1.04207 1.51399,-1.94341 2.0435,-3.04522 2.23918,-4.6593 3.04475,-9.13436 4.33117,-14.17306 4.30853,-25.10131 -0.49422,4.36506 2.78656,-20.63431 0.32457,-2.4732 1.04097,-4.8881 1.30596,-7.3684 0.24592,-2.30171 0.14858,-4.62723 0.22286,-6.94085 -0.002,-2.21456 -0.22492,-4.44005 -0.005,-6.64369 0.12962,-1.30023 0.69614,-2.51893 1.04421,-3.77839 0.29484,-0.89673 0.58968,-1.79346 0.88451,-2.69019 0.33458,-0.54687 0.76151,-1.04704 1.00375,-1.64061 0.95177,-2.33223 1.15952,-4.91788 2.05694,-7.27156 0.51414,-1.34844 1.29078,-2.58156 1.93617,-3.87234 0.46486,-1.27642 0.92972,-2.55285 1.39458,-3.82928 0,0 28.71492,-2.28297 28.71492,-2.28297 z"
       inkscape:connector-curvature="0" />
    <path
       style="opacity:0.86029412;fill:#000000;fill-opacity:1;stroke:none"
       id="path3789"
       d="m 399.83445,258.57598 c 1.10724,1.42784 2.12647,2.92849 3.3217,4.28352 4.80698,5.44965 3.5493,2.3392 7.64213,9.22636 3.26181,5.48878 3.12969,6.77968 5.28889,12.86206 0.79143,2.22942 1.65874,4.43117 2.4881,6.64676 4.51639,12.98341 7.92295,26.3124 12.05334,39.41731 1.90229,6.03559 3.93173,12.03044 5.93328,18.03384 2.05211,6.15503 3.95203,12.3652 6.2276,18.44116 2.04894,5.47086 4.49216,10.78583 6.73824,16.17874 2.32433,3.61332 4.28392,7.48921 6.97299,10.83995 1.49819,1.86685 3.3917,3.46213 5.46496,4.6585 0.78322,0.45195 3.5866,-0.1702 2.71214,0.0601 -8.6545,2.27885 -18.03477,2.32397 -26.14405,6.10988 -1.74081,0.81272 0.44566,3.82204 0.84514,5.70122 0.1013,0.47654 0.0376,-0.97367 0.0564,-1.4605 0,0 27.64035,-10.43314 27.64035,-10.43314 l 0,0 c 4.98794,17.09153 0.65331,15.32614 -25.16189,17.36921 -1.57496,0.12465 -1.36975,-2.85694 -1.8661,-4.35683 -0.8481,-2.56285 -1.36048,-5.22678 -2.1587,-7.8056 -1.34893,-4.35798 -2.85401,-8.66609 -4.28101,-12.99914 -2.85712,-8.49145 -8.94401,-26.90053 -12.1237,-35.00155 -3.40022,-8.66289 -10.30907,-23.64637 -14.40812,-32.32919 -1.86584,-3.95233 -3.65609,-7.94557 -5.71576,-11.80045 -1.66698,-3.11992 -3.63555,-6.06907 -5.45333,-9.10361 -1.1068,-2.30214 -2.27357,-4.57641 -3.32041,-6.90643 -1.74402,-3.88185 -2.22908,-6.17014 -4.39196,-9.7266 -2.73889,-4.50361 -6.76112,-7.95634 -10.97943,-11.01493 0,0 22.61925,-16.8906 22.61925,-16.8906 z"
       inkscape:connector-curvature="0" />
    <path
       style="opacity:0.86029412;fill:#000000;fill-opacity:1;stroke:none"
       id="path3793"
       d="m 471.91363,214.56284 c -0.1553,1.55191 -0.40415,3.0973 -0.46592,4.65574 -0.30614,7.72358 0.30349,0.88201 0.46592,7.28398 0.0662,2.60727 -0.52134,6.91086 -0.75713,9.25973 -0.25277,2.51799 -0.48534,5.03797 -0.72802,7.55696 -2.44874,22.2627 -4.53627,44.84449 -1.64531,67.1844 0.32189,2.48739 0.98282,4.91905 1.47423,7.37858 0.55723,4.83468 3.69096,10.44334 1.56896,15.32669 -0.31361,0.72172 -0.78059,1.36661 -1.17088,2.04992 -0.23002,0.27107 -0.46003,0.54214 -0.69004,0.81321 -0.10905,-0.0229 -0.25086,-0.14989 -0.32716,-0.0687 -0.67528,0.71869 0.13949,5.87802 0.2615,6.96938 0.50541,2.46444 0.12596,4.93671 0.0923,7.41698 -0.21169,2.27211 0.93062,5.2345 -0.73809,7.10849 -0.10709,0.12026 -0.30307,-0.17671 -0.4609,-0.14477 -0.99771,0.20191 -0.60759,0.91227 -0.61513,1.75294 0.6168,6.94667 -1.80282,13.7164 -1.69974,20.62067 -0.0353,3.28989 1.34411,6.43608 1.14138,9.71144 -0.0493,2.07311 -0.0985,4.14622 -0.14781,6.21932 0,0 -30.14707,-3.30181 -30.14707,-3.30181 l 0,0 c 0.39612,1.70669 0.79224,3.41338 1.18836,5.12006 0.0212,-1.04382 0.31325,-1.64136 0.49202,-2.63976 0.41951,-2.3429 -0.11384,-4.69233 -0.0413,-7.04868 0.0461,-2.21034 0.058,-5.70477 0.36994,-7.85127 0.31548,-2.17076 1.34895,-4.22548 1.46261,-6.41609 0.0492,-0.94887 -0.22443,-1.88699 -0.33663,-2.83048 -0.085,-0.7149 -0.17,-1.4298 -0.255,-2.1447 -0.38598,-2.8448 -1.36415,-5.77716 -0.73947,-8.65731 0.0985,-0.4544 0.21232,-1.3458 0.66205,-1.22776 0.66791,0.17529 0.51692,1.48751 1.17101,1.70885 0.4155,0.1406 -0.007,-0.87727 -0.01,-1.3159 -0.0894,-2.48892 -0.47873,-4.99294 0.34444,-7.40867 0.51088,-4.88456 -2.17401,-9.61108 -0.35232,-14.44206 0.3636,-0.7377 1.03859,-2.39735 1.55765,-2.37787 0.50253,0.0189 0.79097,1.17762 1.21051,0.90036 0.57024,-0.37684 0.3073,-1.33206 0.45319,-1.99982 0.96558,-4.41968 0.71182,-3.33289 1.69446,-8.71552 0.49141,-2.75065 1.14078,-5.47772 1.47423,-8.25196 2.6487,-22.03699 1.0943,-44.27138 -1.64532,-66.20966 -0.24267,-2.37522 -0.47462,-4.75157 -0.72801,-7.12567 -0.2627,-2.46129 -0.82281,-6.18416 -0.75714,-8.81118 0.15265,-6.10654 0.75333,-0.47935 0.46593,-7.56 -0.0595,-1.46694 -0.31062,-2.91982 -0.46593,-4.37972 0,0 27.37336,-8.10836 27.37336,-8.10836 z"
       inkscape:connector-curvature="0" />
    <path
       style="opacity:0.86029412;fill:#000000;fill-opacity:1;stroke:none"
       id="path3795"
       d="m 526.02269,97.574486 c 10.08052,3.052254 20.70651,2.961194 31.12842,2.750924 3.59762,-0.0726 7.18903,-0.579994 10.78533,-0.458488 3.185,0.107609 6.32598,0.778368 9.4918,1.143578 2.09015,0.24111 4.18386,0.45024 6.2758,0.67536 1.02909,-0.0176 2.19739,0.46438 3.08728,-0.0528 0.45805,-0.2662 -0.21084,-1.0384 -0.31626,-1.55759 -7.61695,3.34277 -28.29867,3.74238 -22.85083,10.02831 4.7919,5.52908 34.54054,-12.596514 29.1603,2.11167 -0.18755,2.96717 0.23573,5.04727 -1.83341,7.44337 -0.19158,0.22186 -0.40174,-0.47113 -0.6829,-0.55406 -0.3877,-0.11437 -0.90531,-0.26766 -1.21263,-0.005 -0.90529,0.77348 -2.50573,4.57407 -2.87076,5.361 -0.36464,0.7866 -0.83007,1.5339 -1.09393,2.35978 -0.63813,1.99738 -1.33398,6.20913 -1.70536,8.21459 -1.59064,8.5894 -2.53705,16.93149 -3.43183,25.63124 -0.26599,4.38354 -0.56652,8.76511 -0.79797,13.15061 -0.27585,5.22675 -0.66231,10.45171 -0.7239,15.68537 -0.13835,11.75695 0.61127,15.96774 1.09648,27.33961 0.26173,6.13406 0.39693,16.87666 0.49773,23.09244 0.0263,12.0248 -0.0919,24.07347 -0.58758,36.09016 -0.74427,18.04231 -1.17268,13.58567 -1.33264,32.21663 -0.0458,5.33186 0.12744,10.66336 0.19117,15.99504 0.56742,6.34514 0.41155,13.43855 3.08893,19.49643 0.34574,0.78226 2.67262,1.47583 1.86623,1.76079 -9.52867,2.56049 -19.05734,5.12097 -28.58602,7.68146 0.20088,-1.49214 0.60243,-1.17787 -0.19578,-1.51714 9.74688,-2.53699 19.31825,-5.88356 29.24065,-7.61095 0.87325,-0.15202 -0.3321,1.74146 -0.51151,2.6095 -0.38585,1.86693 -0.7185,3.74658 -1.18421,5.59521 -0.52175,2.07111 -4.53794,15.66792 -4.70563,16.50294 -0.5963,2.96939 -0.66989,6.0202 -1.00483,9.0303 0.17193,2.20582 0.0883,4.44664 0.5158,6.61745 0.20427,1.03718 0.73646,2.00939 1.35246,2.86847 0.15789,0.22019 0.83762,0.40392 0.80148,0.13539 -0.15127,-1.12409 -0.23026,-3.74931 -1.21116,-3.17984 -8.85398,5.14033 -15.78697,13.22504 -24.71667,18.23266 -1.10877,0.62178 -1.21354,-2.23411 -1.82031,-3.35117 -1.48187,-3.72458 -2.34365,-7.75973 -1.50878,-11.72748 0.67043,-0.0641 -0.68727,-2.37332 0.0447,-2.23448 0.48109,0.0913 1.02407,1.45731 0.5432,1.36489 -0.51028,-0.0981 -0.49517,-0.91554 -0.69683,-1.39442 -0.36471,-0.86605 -0.80426,-1.71666 -1.00033,-2.63569 -0.24691,-1.15738 -0.21091,-2.35743 -0.31637,-3.53614 0.38771,-3.05667 0.57716,-2.74311 -0.31152,-6.3623 -1.34671,-5.48455 -2.80093,-7.71334 -3.92012,-13.53128 -0.71413,-3.7123 -1.00905,-7.4931 -1.50712,-11.24051 -0.59269,-4.45931 -1.17677,-8.91975 -1.76516,-13.37962 -0.80557,-4.40405 -1.40807,-8.85012 -2.41672,-13.21213 -1.43548,-6.20789 -2.63505,-9.69976 -5.46366,-14.96913 -1.50372,-2.80124 -2.7133,-3.51426 -3.6178,-6.59501 -0.36656,-1.24851 -0.38668,-2.57353 -0.58002,-3.86029 -0.49447,-8.02455 -3.40626,-15.66127 -4.05394,-23.69626 -1.86796,-23.17339 1.56784,3.80881 -1.23869,-16.50106 -0.92006,-5.10041 -1.19063,-10.30214 -2.09467,-15.4049 -2.28461,-12.89521 -0.37795,0.42123 -2.30461,-9.60752 -0.44885,-2.33636 -0.82936,-6.33329 -1.08533,-8.72267 -1.02245,-4.32363 -2.07549,-8.91852 -2.76737,-13.30125 -0.70364,-4.45731 -0.36728,-5.1586 -1.25994,-9.27647 -0.24142,-1.11366 -0.62223,-2.19246 -0.93334,-3.2887 -1.27298,-3.03513 -2.22813,-6.14157 -2.22093,-9.46242 0.002,-0.84068 0.1197,-1.67889 0.24601,-2.51003 0.0786,-0.51726 0.37672,-1.00289 0.36734,-1.52601 -0.0188,-1.04593 -0.30026,-2.07053 -0.45039,-3.1058 -0.19984,-1.11129 -0.48082,-2.211 -0.59953,-3.33385 -0.13881,-1.31302 -0.074,-2.64056 -0.17129,-3.9573 -0.22859,-3.09358 -0.99909,-6.1507 -1.22253,-9.24184 -0.0932,-1.28945 -0.0325,-2.58544 -0.0487,-3.87816 -0.035,-0.32977 -0.51718,-4.09364 -0.31197,-4.72643 0.70209,-2.1651 0.60064,2.21025 0.019,1.20669 -0.39519,-0.6818 -1.42127,-2.81269 -1.03837,-2.12391 0.58438,1.05123 1.09559,2.1415 1.64338,3.21226 -0.57145,-0.70913 -1.34104,-1.29668 -1.71434,-2.12738 -1.82052,-4.0512 -1.71018,-4.72164 -1.74069,-8.35716 -0.006,-0.70524 0.0165,-1.41044 0.022,-2.11569 0.004,-0.46044 -0.28191,-1.74139 0.005,-1.38135 0.49502,0.62091 0.47148,1.51657 0.70721,2.27486 -1.95289,-2.76272 -2.29104,-6.29719 -2.03105,-9.58973 0.0165,-0.2089 0.26376,-0.37319 0.23931,-0.58131 -0.0614,-0.52237 -0.32268,-1.00122 -0.48402,-1.50183 -0.3086,-2.45318 -1.30963,-4.93459 -1.25742,-7.44046 0.0123,-0.58958 0.22648,-1.15829 0.30249,-1.74308 0.14836,-1.14151 0.21449,-2.29248 0.35195,-3.43535 -0.19706,-2.67067 -0.49915,-5.28457 -0.40019,-7.96724 0.0759,-1.74791 0.0561,-3.49764 0.041,-5.24647 0,0 28.75559,-8.541175 28.75559,-8.541175 l 0,0 c -0.009,1.781705 -0.0179,3.563775 0.038,5.344925 0.0642,2.72036 -0.27275,5.40467 -0.25929,8.12505 0.13901,1.54793 0.47346,4.54915 0.20099,6.09676 -0.10981,0.62371 -1.08043,0.91325 -0.82446,1.71168 -0.0613,0.43687 0.0222,0.88202 0.0333,1.32303 0.55542,2.16823 1.45017,4.25582 1.82055,6.4632 0.0764,0.45543 -0.0788,0.94512 -0.29354,1.35393 -0.13114,0.24961 -0.90886,-0.51322 -0.80814,-0.24986 0.21303,0.55701 0.59699,1.03256 0.89549,1.54884 1.94214,4.7297 2.23421,3.13949 1.67373,6.21702 -0.0933,0.5124 -0.20712,1.02087 -0.31619,1.53014 -0.0771,0.36017 0.0686,1.27552 -0.2424,1.0781 -1.03164,-0.65494 -1.10148,-2.26688 -2.073,-3.02352 0.99876,1.37276 2.05304,2.70679 2.99628,4.11828 0.0646,0.0967 -0.36668,-0.23255 -0.32661,-0.1233 1.38543,3.77683 1.44343,0.67429 2.49335,6.35459 0.13377,0.72374 -0.68271,3.71463 -0.82596,4.29953 -0.0169,0.58404 -0.16234,4.92468 -0.10595,5.57175 0.26224,3.00874 0.96937,4.07959 1.31938,7.22273 0.0986,0.88546 -0.0508,1.78178 -0.0349,2.67256 0.0161,0.90112 0.0872,1.80041 0.13074,2.70061 0.24577,1.14935 0.45376,2.30744 0.7373,3.44806 0.38989,1.56844 1.0451,3.07723 1.28219,4.67592 0.38246,2.57888 -2.95766,4.97166 -0.94403,7.68042 0.41645,1.56329 0.92136,3.10565 1.24935,4.68985 1.25052,6.04 0.27685,3.19365 1.03022,8.84582 0.61636,4.62425 1.53759,9.27179 2.87062,13.73942 0.32625,1.6126 0.7599,3.20714 0.97874,4.83778 0.17369,1.29425 0.11204,2.6095 0.19558,3.91267 0.10556,1.64683 0.35097,3.28656 0.37167,4.93664 0.024,1.91302 -0.34359,3.82435 -0.23778,5.7346 0.28547,5.15393 1.73153,10.20152 1.77456,15.38347 0.41832,2.83331 0.914,5.65628 1.25495,8.49995 1.09714,9.15057 -0.002,5.47959 1.84893,14.00788 1.80419,8.31388 0.91258,3.27094 4.06366,11.70602 0.54446,1.45747 0.88331,2.98369 1.32497,4.47554 0.18326,0.95193 0.36651,1.90386 0.54977,2.85579 -0.0415,0.80434 -0.22172,1.61351 -0.12445,2.41303 1.76855,14.53673 0.51013,-6.81021 1.83665,12.51169 1.26023,18.35617 -1.06018,1.93313 2.70935,23.10673 1.26727,4.2001 2.52947,8.40174 3.8018,12.60031 0.9189,3.03228 1.68916,6.11451 2.7719,9.09223 0.18868,0.51891 5.05963,11.4566 5.60978,12.601 0.93003,1.93461 2.08037,3.76338 2.92818,5.73541 0.5539,1.28841 0.84194,2.67552 1.26291,4.01328 -0.11302,0.11211 -0.19279,0.27351 -0.33907,0.33633 -0.11487,0.0493 -0.39705,-0.15303 -0.37384,-0.0302 0.085,0.44987 0.40477,0.82139 0.60152,1.23479 1.66973,3.5084 1.98648,3.62458 2.09797,6.82619 0.10244,1.47678 0.65577,4.82709 -1.44827,5.28778 -4.75365,-10.04106 1.58966,2.70754 -23.87472,18.50362 -1.13947,0.70684 -1.35808,-2.35025 -1.69521,-3.64809 -0.24291,-0.93508 -0.0925,-1.93617 -0.005,-2.89834 0.38632,-4.26273 1.67661,-8.42096 1.54545,-12.74728 2.13686,-22.367 -0.11471,2.59717 1.4414,-19.0888 0.14474,-2.01709 0.44447,-4.02095 0.59342,-6.03773 0.0846,-1.14496 0.18751,-2.29736 0.10675,-3.4426 -0.0553,-0.78379 -1.23695,-1.99848 -0.51178,-2.30098 9.47571,-3.95266 19.49317,-6.45499 29.23976,-9.68249 -0.68393,0.63755 -0.40485,0.18274 -0.19777,1.58856 -9.52832,3.08414 -19.05663,6.16829 -28.58495,9.25243 -1.10795,0.26508 1.49227,-1.78596 1.86983,-2.86079 2.5947,-7.38654 2.41381,-13.30204 3.09687,-21.32355 0.0623,-5.36815 0.2363,-10.73617 0.18688,-16.10445 -0.17218,-18.6999 -0.58727,-13.45477 -1.36721,-31.41614 -0.51757,-11.91909 -0.64037,-23.8754 -0.52442,-35.80292 0.14605,-6.30735 0.37039,-17.1385 0.62477,-23.36052 0.45305,-11.08156 1.14204,-16.48083 0.7975,-27.83242 -0.15393,-5.07132 -0.68012,-10.12455 -1.04675,-15.18495 -0.31004,-4.27929 -0.65552,-8.55593 -0.98327,-12.8339 -0.27263,-3.52679 -0.64119,-7.04746 -0.81788,-10.58035 -0.16314,-3.26216 -0.11291,-10.97677 -0.12661,-14.59775 -0.007,-1.79762 -0.13731,-3.59774 -0.0401,-5.39273 0.16372,-3.0225 1.16046,-5.96927 0.94295,-9.03169 1.10757,-2.82356 1.30079,-2.95596 1.90664,-5.93332 0.10587,-0.52029 0.58581,-5.64819 1.74991,-6.28698 1.23986,-0.68035 1.17477,4.90139 2.29105,3.57103 -0.006,-0.6375 -0.1878,-1.29828 -0.017,-1.91248 0.0665,-0.23892 0.1219,0.66319 0.36928,0.64584 9.90987,-0.69499 23.76923,-10.74088 29.67521,-2.7529 33.90854,45.86215 -27.36838,10.53355 -27.25977,7.77256 -1.29636,-0.6354 -2.50596,-1.49237 -3.88909,-1.90619 -5.93278,-1.77503 -11.25595,-1.76756 -17.47819,-1.89648 -11.6249,-0.24084 -23.33009,0.0556 -34.70137,2.75093 0,0 15.54892,-23.943224 15.54892,-23.943224 z"
       inkscape:connector-curvature="0" />
    <path
       style="opacity:0.86029412;fill:#000000;fill-opacity:1;stroke:none"
       id="path3797"
       d="m 532.31332,449.84851 c 1.08349,-4.47894 -1.32353,-9.02868 -0.12111,-13.48737 0.0725,-0.26898 0.0759,1.01339 0.25142,0.79706 0.45135,-0.55621 0.49278,-1.34519 0.73916,-2.01779 0.22118,0.15378 0.49523,0.67168 0.66353,0.46134 0.5204,-0.65038 0.51895,-1.58538 0.8481,-2.35055 0.38535,-0.89583 0.73498,-1.82439 1.29209,-2.62479 0.14506,-0.20841 0.51778,-0.10147 0.71598,-0.26021 0.57065,-0.45706 1.18303,-1.30065 1.654,-1.91495 0.32667,-1.66675 0.76266,-4.79039 1.39062,-6.3552 0.0701,-0.17477 0.4968,0.0731 0.55493,-0.10606 0.42163,-1.2993 0.29156,-2.7483 0.78472,-4.02218 0.14102,-0.36427 0.22536,0.748 0.33804,1.12201 7.18683,-4.71087 14.37366,-9.42174 21.56049,-14.13261 1.18449,0.43475 4.63608,0.65617 3.55348,1.30424 -6.94582,4.15793 -15.43036,5.4105 -22.196,9.85561 -1.24472,0.8178 -0.0581,3.03914 0.42584,4.44766 0.31862,0.92736 -0.0775,-1.97446 0.0921,-2.94026 0.0275,-0.15673 0.30093,-0.10357 0.4514,-0.15535 3.21207,-11.01048 0.25365,-2.98093 22.1156,-17.83091 0.50064,-0.34007 1.12472,-0.49991 1.72686,-0.56085 0.92313,-0.0934 1.90593,0.41142 2.78158,0.10459 0.38222,-0.13392 0.19224,-0.78686 0.28837,-1.18029 0.64149,-0.0963 1.28299,-0.19263 1.92448,-0.28895 0.60207,-0.54802 6.38009,1.95424 6.55788,1.73276 0.36521,-0.45498 -0.75897,-1.16035 -0.49274,-1.6795 0.63203,-1.23243 4.55242,-0.52922 4.83939,-0.51124 2.47196,0.005 4.78548,0.90265 7.25267,0.91487 0.44585,0.002 0.89281,-0.0468 1.33169,-0.12535 0.3004,-0.0538 0.63756,-0.46151 0.87489,-0.26968 1.83181,1.48064 3.324,3.338 4.98599,5.00699 1.03796,2.56317 1.29951,2.89299 1.88556,5.6308 0.18635,0.87056 1.28696,2.75397 0.40399,2.64012 -0.92651,-0.11947 -0.5941,-1.77567 -0.78762,-2.68959 -0.0195,-0.0923 0.29751,0.21771 0.24728,0.13783 -0.63283,-1.00622 -1.34146,-1.96274 -2.01218,-2.9441 3.75534,3.69744 2.83039,2.13449 5.17529,7.86777 0.0588,0.14375 -0.11718,0.30612 -0.0851,0.45808 0.14605,0.69165 0.38929,1.35954 0.61066,2.03089 0.22115,0.67066 0.68809,1.23364 1.01386,1.86018 1.01063,2.34772 1.58399,4.80812 1.28136,7.36465 -0.10934,0.92371 -0.41403,1.77072 -0.49823,2.70668 0.31745,3.10234 -0.0855,6.17595 -0.10686,9.26818 0.10447,3.1084 0.77381,6.44249 0.13646,9.52432 -0.24194,1.1699 -0.97323,2.18211 -1.45984,3.27316 -0.28992,0.0965 -0.7179,0.0243 -0.86974,0.28948 -0.50242,0.87731 -0.46591,1.99199 -0.94627,2.88156 -0.27795,0.51473 -0.74485,0.94964 -1.26602,1.21532 -7.51682,3.83196 -14.93476,7.92781 -22.77652,11.0412 -0.91953,0.36508 -1.892,-1.16441 -2.83711,-0.87187 -0.53478,0.16552 0.43144,1.03315 0.64716,1.54972 -0.41971,0.17547 -0.80615,0.48448 -1.25912,0.5264 -3.02445,0.27986 -5.69513,-1.64313 -8.73227,-1.30048 -2.47862,0.49909 -5.01698,0.2765 -7.52442,0.22149 -0.0976,-3.28514 -3.56331,-1.88008 -4.94745,-3.29889 -1.07975,-1.10681 -1.84004,-2.4928 -2.88548,-3.63206 -0.11895,-0.12963 -0.0565,0.37673 0.0357,0.52657 0.60432,0.98238 2.17789,1.66894 2.01746,2.8111 -0.12232,0.87083 -1.47328,-0.96057 -2.20992,-1.44086 -0.89123,-1.12129 -1.83557,1.27098 -2.20288,1.05326 -1.61795,-0.95904 -2.94057,-2.34644 -4.38237,-3.55423 -0.29512,-0.24723 -0.9496,-1.17247 -0.82518,-0.80813 0.23412,0.68557 0.78256,1.21938 1.17384,1.82907 -1.00428,-1.06723 -2.00855,-2.13445 -3.01282,-3.20167 0.0828,0.24886 0.41256,0.9511 0.24835,0.7466 -2.2684,-2.82497 -2.92301,-3.89018 -3.66625,-7.50037 -0.17828,-0.86601 -0.91458,-2.98966 -0.098,-2.65071 0.94684,0.39299 0.55982,1.97239 0.83973,2.95859 -1.02665,-0.60106 -1.4003,-2.34653 -1.94752,-2.99929 -0.27593,-0.32915 0.69662,1.49959 0.35559,1.23848 -1.72547,-1.32106 -2.49645,-4.68402 -3.09233,-6.33968 -0.27285,-5.7761 -0.42425,-2.23482 0.41409,-1.45472 0.27867,0.25931 -0.51431,-1.43093 -0.35355,-1.08588 0.40001,0.85861 1.1728,1.68911 1.07345,2.6311 -0.0499,0.47315 -1.06295,-0.94572 -2.29465,-2.58467 -0.34033,-0.44949 -0.68066,-0.89897 -1.021,-1.34846 -0.039,0.26768 0.11667,0.93911 -0.11714,0.80305 -0.85445,-0.49722 -1.23857,-1.60969 -2.10062,-2.0936 -0.36438,-0.20454 0.3021,0.77921 0.45315,1.16881 -0.90775,-1.25242 -1.81549,-2.50484 -2.72324,-3.75726 0,0 26.5191,-14.90109 26.5191,-14.90109 l 0,0 c -2.14026,-2.60503 -3.16353,-3.70204 -0.0541,-0.45827 0.16113,0.16809 -0.68194,-0.63427 -0.50853,-0.47888 1.31713,1.18023 2.6168,2.37987 3.93878,3.55473 3.20971,2.21007 4.99563,6.81017 5.85313,10.47734 0.0368,0.15722 -0.31369,-0.0766 -0.47054,-0.11491 -0.44021,-0.68684 -0.85224,-1.39257 -1.32063,-2.06051 -0.16311,-0.23259 -0.73327,-0.86625 -0.56916,-0.63436 1.73699,2.45433 2.62895,3.1792 4.42583,5.74938 0.57572,1.54588 1.29797,3.04485 1.72714,4.63765 0.0416,0.15447 -0.29354,0.35763 -0.41057,0.24855 -0.48876,-0.45555 -0.71625,-1.12935 -1.11199,-1.66768 -0.43722,-0.59476 -2.11917,-1.80026 -1.38451,-1.72835 0.85339,0.0836 1.30332,2.4257 1.86183,1.77507 0.56121,-0.65378 -1.17491,-1.26063 -1.76236,-1.89095 8.18542,6.46742 0.39185,0.31297 0.32275,0.16953 -0.31747,-0.65913 1.43373,0.30179 2.13339,0.51561 0.77685,0.23741 1.52896,0.54949 2.2891,0.83593 0.64487,0.24301 1.28377,0.50154 1.92566,0.75231 1.37583,-1.75723 0.48249,-0.94219 4.32558,2.65539 0.54689,0.51195 2.01245,1.51112 1.32713,1.81365 -0.70972,0.31331 -1.38347,-0.94914 -1.59408,-1.69581 -0.58455,-2.07248 4.46788,4.60736 0.21442,-0.6948 2.66201,-0.0301 5.33728,-0.32281 7.98508,0.0879 0.77363,0.11859 2.83259,0.78883 3.57198,0.10968 0.77795,-0.71456 -0.42276,-1.50955 1.90596,-1.73329 1.12993,0.20059 2.24547,0.68861 3.38978,0.60178 0.28486,-0.0216 0.1639,-0.97339 -0.0946,-0.85179 -6.85117,3.22264 -13.52026,6.82225 -20.19517,10.39568 -0.29386,0.15732 0.7205,-0.30751 0.99322,-0.11587 0.49266,0.34618 0.43568,1.74276 0.99107,1.5102 0.79995,-0.33496 0.71201,-1.5816 1.06802,-2.3724 1.79335,1.10571 0.90986,0.3074 2.26636,2.76122 0.28911,0.2388 -0.009,-0.75006 -7.5e-4,-1.12495 0.0315,-1.39446 0.21178,-2.77826 0.27441,-4.17108 0.008,-2.93772 -0.25474,-5.86703 -0.2498,-8.81139 -0.063,-0.77195 -0.53979,-5.48246 0.15243,-5.81373 0.0523,-0.025 1.18473,0.65871 1.20257,0.66925 -0.72033,-2.43433 0.40685,1.1556 -1.80097,-3.7675 -0.14971,-0.33383 -0.10255,-0.73091 -0.234,-1.07234 -0.32164,-0.8354 -1.90192,-2.87512 -1.11883,-2.44139 1.68164,0.9314 1.63196,3.73643 3.5268,4.56294 -3.72625,-3.37528 -4.91349,-4.07315 -6.43417,-8.93061 -0.0662,-0.21151 0.21031,-0.3903 0.32231,-0.58155 0.0547,-0.0934 0.0726,-0.24537 0.1775,-0.27192 0.0711,-0.018 0.0338,0.14277 0.0508,0.21415 1.36632,1.2607 2.95666,2.31534 4.09895,3.78208 0.28885,0.37088 -0.92008,-0.19333 -1.37995,-0.29083 -1.96386,-0.41635 -3.86429,-0.72337 -5.77926,0.13087 -1.25252,0.78433 -1.95335,1.43557 -3.60614,1.4079 -1.46774,-0.0246 -2.89983,-0.4669 -4.35917,-0.62564 -0.32631,-0.0355 -0.69795,-0.11706 -0.98369,0.0445 -0.38829,0.21951 0.0534,1.30973 0.0831,1.41801 -1.87528,1.81484 1.20558,-0.88324 -3.23121,0.83197 -0.29671,0.11471 -0.0638,0.67162 -0.26731,0.91614 -0.33733,0.40532 -1.70107,1.24722 -1.27478,0.93681 19.06713,-13.88385 25.65527,-10.01647 18.07624,-14.12795 -0.0869,0.5872 0.26202,1.48047 -0.26079,1.7616 -0.42158,0.22668 -0.74377,-1.6604 -0.80922,-1.18624 -0.30553,2.21353 1.84256,5.3724 0.0477,6.70337 -6.98768,5.18164 -16.09024,6.70075 -23.73132,10.85899 -0.54328,0.29565 0.8261,0.92075 1.23915,1.38113 6.66749,-4.468 13.33498,-8.93601 20.00248,-13.40402 -1.70802,5.66787 0.31396,0.53815 -1.54956,-0.44719 -0.65655,-0.34715 -0.0213,1.61222 -0.514,2.16794 -0.23528,0.26536 -0.60771,-0.80769 -0.88643,-0.58839 -0.46701,0.36744 -0.35289,1.13487 -0.52933,1.7023 -0.30826,0.15236 -0.61653,0.30473 -0.92479,0.45709 -0.23448,2.15155 -0.50122,6.50104 -1.82505,8.33259 -0.30705,0.42482 -1.65958,0.0191 -1.8935,0.7525 -0.29349,0.92019 -0.20304,1.92103 -0.30455,2.88155 -1.71405,-0.75496 1.29841,0.35805 -0.9456,1.84487 -0.52999,0.35116 -1.52594,-3.14942 -2.58618,-1.90484 -0.70673,0.8296 -0.14601,6.32904 -0.11648,6.8111 0,0 -27.37337,8.10836 -27.37337,8.10836 z"
       inkscape:connector-curvature="0" />
  </g>
</svg>
